<?xml version="1.0" encoding="utf-8"?>
<!-- Generator: Adobe Illustrator 23.0.5, SVG Export Plug-In . SVG Version: 6.00 Build 0)  -->
<svg version="1.1" id="Capa_1" xmlns="http://www.w3.org/2000/svg" xmlns:xlink="http://www.w3.org/1999/xlink" x="0px" y="0px"
	 viewBox="0 0 150 80" style="enable-background:new 0 0 150 80;" xml:space="preserve">
<style type="text/css">
	.st0{fill-rule:evenodd;clip-rule:evenodd;fill:#FFFFFF;}
</style>
<path class="st0" d="M12.501,24.642L0,55.644h8.182l2.319-6.137h13.864l2.545,6.137h8.319L21.455,24.642H12.501z M12.546,44.097
	l4.545-12.046l5,12.046H12.546z M55.492,36.142l-9.955-11.5H38.81v31.002h7.728V36.279l8.364,9.727h1.182l8.364-9.727v19.365h7.728
	V24.642h-6.728L55.492,36.142z M91.758,24.642H78.075v31.002h12.818c12.364,0,18.002-6.546,18.002-15.455
	C108.895,31.688,103.076,24.642,91.758,24.642z M90.848,49.961h-5.046V30.324h4.955c7.318,0,10.182,4.5,10.182,9.819
	C100.94,44.688,98.622,49.961,90.848,49.961z M114.581,22.179l9.656,9.7h15.885v15.796L150,57.598V22.135L114.581,22.179z
	 M124.281,33.659l-10.056,10.056v14.15h14.55l9.879-9.878h-14.417L124.281,33.659z"/>
</svg>
