<?xml version="1.0" encoding="utf-8"?>
<!-- Generator: Adobe Illustrator 23.0.5, SVG Export Plug-In . SVG Version: 6.00 Build 0)  -->
<svg version="1.1" id="Capa_1" xmlns="http://www.w3.org/2000/svg" xmlns:xlink="http://www.w3.org/1999/xlink" x="0px" y="0px"
	 viewBox="0 0 18 16">
<style type="text/css">
	.st0{fill:#F0F0F0;}
</style>
<path class="st0" d="M17.778,3.327c-0.195-0.236-0.492-0.374-0.807-0.374H4.918L4.34,0.746C4.226,0.308,3.815,0,3.343,0H1.029
	C0.46,0,0,0.441,0,0.985s0.46,0.985,1.029,0.985H2.54l0.57,2.184c0.005,0.02,0.01,0.039,0.016,0.059l1.902,6.882
	c0.359,1.294,1.585,2.198,2.983,2.198h5.273c1.438,0,2.673-0.937,3.003-2.277l1.684-6.852C18.044,3.871,17.973,3.563,17.778,3.327z
	 M14.286,10.564c-0.109,0.447-0.521,0.76-1,0.76H8.012c-0.466,0-0.875-0.301-0.994-0.733L5.45,4.923h10.222L14.286,10.564z
	 M6.428,14.031c-0.568,0-1.029,0.441-1.029,0.985C5.4,15.559,5.86,16,6.428,16c0.568,0,1.029-0.441,1.029-0.985
	C7.457,14.472,6.996,14.031,6.428,14.031z M14.657,14.031c-0.568,0-1.029,0.441-1.029,0.985c0,0.544,0.461,0.985,1.029,0.985
	c0.568,0,1.029-0.441,1.029-0.985C15.685,14.472,15.225,14.031,14.657,14.031z"/>
</svg>