<?xml version="1.0" encoding="utf-8"?>
<!-- Generator: Adobe Illustrator 23.0.5, SVG Export Plug-In . SVG Version: 6.00 Build 0)  -->
<svg version="1.1" id="Capa_1" xmlns="http://www.w3.org/2000/svg" xmlns:xlink="http://www.w3.org/1999/xlink" x="0px" y="0px"
	 viewBox="0 0 18 16">
<style type="text/css">
	.st0{fill:#F0F0F0;}
</style>
<path class="st0" d="M17.207,2.98C16.654,2.854,16.1,3.183,15.97,3.713l-1.684,6.851c-0.109,0.447-0.521,0.76-1,0.76H8.011
	c-0.466,0-0.875-0.301-0.994-0.733L5.112,3.7L4.34,0.746C4.226,0.308,3.815,0,3.343,0H1.029C0.46,0,0,0.441,0,0.985
	s0.46,0.985,1.029,0.985H2.54l2.488,9.125c0.359,1.294,1.585,2.198,2.983,2.198h5.273c1.438,0,2.673-0.937,3.003-2.277l1.684-6.852
	C18.102,3.635,17.76,3.105,17.207,2.98z M6.428,14.031c-0.568,0-1.029,0.441-1.029,0.985C5.4,15.559,5.86,16,6.428,16
	c0.568,0,1.029-0.441,1.029-0.985C7.457,14.472,6.996,14.031,6.428,14.031z M14.657,14.031c-0.568,0-1.029,0.441-1.029,0.985
	c0,0.544,0.461,0.985,1.029,0.985c0.568,0,1.029-0.441,1.029-0.985C15.685,14.472,15.225,14.031,14.657,14.031z"/>
</svg>