<?xml version="1.0" encoding="utf-8"?>
<!-- Generator: Adobe Illustrator 23.0.5, SVG Export Plug-In . SVG Version: 6.00 Build 0)  -->
<svg version="1.1" id="Capa_1" xmlns="http://www.w3.org/2000/svg" xmlns:xlink="http://www.w3.org/1999/xlink" x="0px" y="0px"
	 viewBox="0 0 150 80" style="enable-background:new 0 0 150 80;" xml:space="preserve">
<style type="text/css">
	.st0{fill:#1349A1;}
</style>
<path class="st0" d="M142.853,24.327h1.109v3.108h0.511v-3.108h1.107v-0.448h-2.727V24.327z M149.159,23.879l-1.099,2.95
	l-1.122-2.95h-0.844v3.557h0.514v-3.076h0.01l1.177,3.076h0.506l1.179-3.076h0.008v3.076H150v-3.557H149.159z M22.305,42.802h5.08
	V23.817h-5.08V42.802z M57.403,23.833L50.158,42.91h5.165l1.505-4.07h7.16l1.423,4.07h5.574l-7.351-19.077H57.403z M58.003,35.23
	l2.461-7.462h0.053l2.268,7.462H58.003z M85.079,33.178v-0.053c2.131-0.708,3.361-2.049,3.361-4.458c0-3.28-2.653-4.836-6.204-4.836
	H73.46V42.91h8.038c3.415,0,7.434-0.954,7.434-5.518C88.931,35.066,87.617,33.701,85.079,33.178z M78.542,27.443h1.48
	c1.694,0,3.331,0.16,3.331,1.91c0,1.614-1.72,2.024-3.388,2.024h-1.423V27.443z M80.049,39.306h-1.507v-4.484h1.563
	c1.747,0,3.742,0.188,3.742,2.268C83.847,39.03,81.907,39.306,80.049,39.306z M102.047,23.831l-3.69,7.654l-3.746-7.654h-5.847
	l7.05,11.893v7.186h5.084v-7.186l7.001-11.893H102.047z M119.778,42.91V27.603h4.698v-3.772h-14.485v3.772h4.698V42.91H119.778z
	 M140.643,39.306h-8.665v-4.322h7.9v-3.607h-7.9v-3.934h8.366v-3.612h-13.449V42.91h13.747V39.306z M17.931,31.925h-5.22v5.996
	c-0.004,0.597-0.617,0.597-0.617,0.597H11.17l-0.549,0.006c-2.5,0-5.088-2.348-5.088-5.142c0-2.873,1.847-5.094,5.228-5.375h6.982
	l0.004-4.084l-7.809-0.025c-5.436-0.195-9.802,4.21-9.802,9.484c0,4.876,4.013,9.523,9.639,9.523c2.991,0,8.144,0.004,8.144,0.004
	S17.931,35.31,17.931,31.925z M48.127,31.925h-5.212v5.996c-0.004,0.597-0.613,0.597-0.613,0.597h-0.926l-0.547,0.006
	c-2.502,0-5.086-2.348-5.086-5.142c0-2.873,1.843-5.094,5.227-5.375h6.973l0.002-4.084l-7.796-0.025
	c-5.438-0.195-9.8,4.21-9.8,9.484c0,4.876,4.009,9.523,9.632,9.523c2.989,0,8.137,0.004,8.137,0.004S48.127,35.31,48.127,31.925z
	 M0,50.492h1.896v5.576h1.327v-5.576H5.12v-1.039H0V50.492z M16.008,53.167h2.36v-1.043h-2.36v-1.632h2.58v-1.039h-3.912v6.615
	h3.929v-1.043h-2.597V53.167z M31.967,55.139c-1.412,0-2.245-1.013-2.245-2.362c0-1.353,0.852-2.4,2.214-2.4
	c0.477,0,0.935,0.064,1.433,0.352l0.097-1.123c-0.485-0.183-1.062-0.272-1.499-0.272c-2.245,0-3.632,1.272-3.632,3.537
	c0,2.239,1.491,3.312,3.632,3.312c0.5,0,1.024-0.094,1.507-0.208l-0.057-1.111C33.106,55.025,32.487,55.139,31.967,55.139z
	 M47.139,52.124h-2.654v-2.672h-1.325v6.615h1.325v-2.901h2.654v2.901h1.328v-6.615h-1.328V52.124z M62.816,54.402h-0.019
	l-2.521-4.949h-1.633v6.615h1.272v-4.949h0.017l2.534,4.949h1.622v-6.615h-1.272V54.402z M77.185,49.334
	c-2.105,0-3.242,1.378-3.242,3.405c0,2.031,1.117,3.444,3.242,3.444c2.097,0,3.244-1.442,3.244-3.444
	C80.429,50.738,79.261,49.334,77.185,49.334z M77.185,55.139c-1.355,0-1.859-1.2-1.859-2.4c0-1.166,0.543-2.362,1.859-2.362
	c1.319,0,1.86,1.195,1.86,2.362C79.045,53.939,78.538,55.139,77.185,55.139z M91.677,49.453h-1.329v6.615h3.899v-1.043h-2.569
	V49.453z M106.72,49.334c-2.109,0-3.243,1.378-3.243,3.405c0,2.031,1.115,3.444,3.243,3.444c2.093,0,3.24-1.442,3.24-3.444
	C109.959,50.738,108.796,49.334,106.72,49.334z M106.72,55.139c-1.359,0-1.864-1.2-1.864-2.4c0-1.166,0.545-2.362,1.864-2.362
	c1.315,0,1.858,1.195,1.858,2.362C108.577,53.939,108.075,55.139,106.72,55.139z M122.659,53.316h1.405v1.73
	c-0.229,0.055-0.514,0.093-0.874,0.093c-1.412,0-2.248-1.013-2.248-2.362c0-1.353,0.852-2.4,2.4-2.4
	c0.532,0,1.194,0.115,1.707,0.352l0.083-1.123c-0.564-0.166-1.175-0.272-1.943-0.272c-2.248,0-3.633,1.272-3.633,3.537
	c0,2.239,1.491,3.312,3.633,3.312c0.712,0,1.442-0.149,2.144-0.339v-3.567h-2.674V53.316z M137.891,52.226l-1.569-2.773h-1.551
	l2.417,3.999v2.616h1.327v-2.616l2.371-3.999h-1.404L137.891,52.226z"/>
</svg>
