<?xml version="1.0" encoding="utf-8"?>
<!-- Generator: Adobe Illustrator 23.0.5, SVG Export Plug-In . SVG Version: 6.00 Build 0)  -->
<svg version="1.1" id="Capa_1" xmlns="http://www.w3.org/2000/svg" xmlns:xlink="http://www.w3.org/1999/xlink" x="0px" y="0px"
	 viewBox="0 0 40 40" style="enable-background:new 0 0 40 40;" xml:space="preserve">
<style type="text/css">
	.st0{fill:#F0F0F0;}
</style>
<path class="st0" d="M19.976,40c-0.457,0-0.916-0.19-1.275-0.572L2.87,22.682c-0.066-0.067-0.127-0.142-0.181-0.22
	C-1.527,16.526-0.699,8.014,4.57,3.083C9.128-1.18,15.455-0.943,19.974,3.399c4.504-4.355,10.707-4.587,15.385-0.335
	c2.604,2.369,4.226,5.667,4.573,9.288c0.342,3.61-0.603,7.201-2.67,10.109c-0.054,0.078-0.115,0.153-0.181,0.22L21.252,39.428
	C20.892,39.81,20.433,40,19.976,40z"/>
</svg>
