<?xml version="1.0" encoding="utf-8"?>
<!-- Generator: Adobe Illustrator 23.0.5, SVG Export Plug-In . SVG Version: 6.00 Build 0)  -->
<svg version="1.1" id="Capa_1" xmlns="http://www.w3.org/2000/svg" xmlns:xlink="http://www.w3.org/1999/xlink" x="0px" y="0px"
	 viewBox="0 0 200 40" style="enable-background:new 0 0 200 40;" xml:space="preserve">
<path d="M43.531,23.477h-0.422l-0.219,0.094l-0.094-0.203v-7.344c-0.563-0.073-0.844-0.182-0.844-0.328l0.109-0.516
	c-0.073,0-0.109-0.036-0.109-0.109c-0.875,0-1.958-0.036-3.25-0.109c-0.125,0-0.198-0.067-0.219-0.203v-0.109
	c0-0.114,0.073-0.182,0.219-0.203h0.422c0.229,0,0.401,0.031,0.516,0.094l0.625-0.094h1.578l0.219-0.109l-0.109-0.531V6.148h-7.359
	c-0.114,0-0.183,0.068-0.203,0.203v7.875c0,0.146-0.067,0.219-0.203,0.219h-0.422c-0.604,0-1.552,0.031-2.844,0.094v0.328
	c0,0.136,0.073,0.203,0.219,0.203h3.25v0.625c0,0.146,0.067,0.219,0.203,0.219h0.531c0,0.073,0.036,0.177,0.109,0.313l-0.109,0.531
	c0.073,0.136,0.109,0.24,0.109,0.313c0,0.031-0.036,0.172-0.109,0.422h-8.5l-0.531,0.094c0-0.063-0.281-0.094-0.844-0.094
	c-0.281,0-0.422-0.489-0.422-1.469c-0.417-0.125-0.625-0.266-0.625-0.422l0.109-0.219c0-0.104-0.073-0.245-0.219-0.422
	c-0.156,0-0.297,0.037-0.422,0.109c-0.552-0.073-0.828-0.177-0.828-0.313v-0.109c0-0.114,0.067-0.182,0.203-0.203h1.047
	c0.146,0,0.219-0.073,0.219-0.219V6.352c0-0.114-0.214-0.219-0.641-0.313c-0.114,0.073-0.25,0.109-0.406,0.109h-4.313l-0.734-0.109
	c0,0.073-0.141,0.109-0.422,0.109h-0.938c-0.125,0-0.198,0.068-0.219,0.203v1.266c0,0.156,0.036,0.297,0.109,0.422
	c-0.073,0.115-0.109,0.255-0.109,0.422v5.766c-0.104,0.208-0.208,0.313-0.313,0.313h-0.953c-0.114,0-0.182,0.073-0.203,0.219v0.109
	c0,0.136,0.068,0.203,0.203,0.203h1.063c0.136,0,0.203,0.208,0.203,0.625l0.625,0.422v10.828c0,0.136,0.073,0.203,0.219,0.203h1.672
	c0.146,0,0.219,0.068,0.219,0.203v0.219l-0.531,0.109h-1.781l-0.531,0.094c0-0.063-0.104-0.094-0.313-0.094h-0.109
	c-0.114,0-0.183,0.068-0.203,0.203v4.734l0.109,0.203c-0.073,0-0.109,0.036-0.109,0.109v1.359l0.109,0.219
	c1.292,0.063,2.234,0.094,2.828,0.094h4.516c0.146,0,0.219-0.068,0.219-0.203v-6.625l0.516-0.094h2.734
	c0.146,0,0.219-0.072,0.219-0.219v-0.109c0-0.135-0.281-0.239-0.844-0.313c-0.125,0.073-0.266,0.109-0.422,0.109h-0.625
	c-0.125,0-0.198-0.067-0.219-0.203v-3.578c0-0.114,0.073-0.182,0.219-0.203h0.938c0.239,0,0.417-0.036,0.531-0.109l0.625,0.109
	h2.938l0.219-0.109c0,0.073,0.031,0.109,0.094,0.109c0.156,0,0.297-0.036,0.422-0.109l0.219,0.109c0.156,0,0.297-0.036,0.422-0.109
	c0.375,0.073,0.688,0.109,0.938,0.109h2.313l0.203-0.109l0.219,0.422c0.833,0.063,1.25,0.167,1.25,0.313v0.531
	c-0.104,0.209-0.208,0.313-0.313,0.313h-0.625l-0.203-0.109c-0.052,0.125-0.125,0.615-0.219,1.469
	c0.073,0.125,0.109,0.266,0.109,0.422l-0.109,0.734h-0.531c-0.114,0-0.183,0.068-0.203,0.203v6.938l0.109,0.219
	c1.292,0.063,2.234,0.094,2.828,0.094h4.422l0.313-0.203l-0.109-0.734v-6.313c0.563-0.104,0.844-0.239,0.844-0.406v-2.313
	l0.625-0.109c0.031,0,0.172,0.037,0.422,0.109c0.208-0.114,0.313-0.219,0.313-0.313v-0.531
	C44.156,23.623,43.948,23.519,43.531,23.477z M33.969,23.57h-0.938c-0.125,0-0.198,0.073-0.219,0.219v0.203l0.109,0.219h-0.109
	c0,0.209,0.386,0.313,1.156,0.313c0.146,0,0.219-0.067,0.219-0.203v-0.531C34.188,23.675,34.114,23.602,33.969,23.57z
	 M56.875,22.977h-0.109c-0.114,0-0.183,0.068-0.203,0.203v0.313c0,0.136,0.067,0.203,0.203,0.203h0.109
	c0.136,0,0.203-0.067,0.203-0.203V23.18C57.078,23.065,57.011,22.998,56.875,22.977z M45.469,21.227
	c0-0.114-0.067-0.182-0.203-0.203h-1.125v0.313h1.125L45.469,21.227z M44.859,24.82h0.313l0.297-0.203l-0.094-0.516H44.75
	l-0.203,0.109C44.62,24.617,44.724,24.82,44.859,24.82z M75.141,20.211h-0.094l-0.219,0.094c0-0.063-0.031-0.094-0.094-0.094h-1.031
	c-0.114,0-0.183-0.067-0.203-0.203c0-1.302-0.136-1.953-0.406-1.953h-0.203c-0.229,0-0.401,0.031-0.516,0.094
	c-0.156-0.063-0.739-0.094-1.75-0.094v-0.109h2.469l0.297-0.203c-0.771-2.927-1.933-5.255-3.484-6.984v-0.094
	c0.229,0,0.401-0.036,0.516-0.109c0,0.073,0.031,0.109,0.094,0.109h0.516c0.136,0,0.203-0.067,0.203-0.203v-0.109l-0.5-0.109h-1.141
	c-0.417-0.271-0.828-0.406-1.234-0.406C66.703,8.534,65.75,7.883,65.5,7.883V7.68c0.146,0,0.281-0.031,0.406-0.094
	c-1.677-1.031-3.729-1.547-6.156-1.547c-3.511,0-6.183,0.547-8.016,1.641h-1.125c-1.406,0.854-2.364,1.505-2.875,1.953
	c0,0.136,0.136,0.203,0.406,0.203l-0.094,0.203l0.094,0.203l0.516-0.094h0.109c0.177,0,0.38,0.068,0.609,0.203
	c0,0.208-0.442,0.313-1.328,0.313c-0.5,0-1.052,0.412-1.656,1.234c-1.573,2.406-2.458,4.797-2.656,7.172
	c0,0.073,0.031,0.177,0.094,0.313c0.073,0,0.177-0.031,0.313-0.094c0.136,0.063,0.239,0.094,0.313,0.094v0.406
	c-0.552,0.073-0.828,0.177-0.828,0.313c0,0.136,0.067,0.203,0.203,0.203h1.75c0.261,0.479,0.433,0.719,0.516,0.719h3.688
	c0.136,0,0.203,0.068,0.203,0.203v0.109h-1.531c-0.479,0-1.234,0.037-2.266,0.109c0-0.072-0.031-0.109-0.094-0.109l-0.109,0.203
	v0.313c0.104,1.678,0.688,3.526,1.75,5.547l-0.516,0.094h-1.328c-0.146,0-0.219,0.104-0.219,0.313h-1.016v0.203h0.922
	c0.156,0,0.292,0.037,0.406,0.109c0.802,1.136,1.864,2.261,3.188,3.375c1.708,1.479,4.067,2.474,7.078,2.984
	c0.073,0,0.177-0.037,0.313-0.109c0.292,0.146,0.839,0.219,1.641,0.219h1.125c1.323,0,2.797-0.209,4.422-0.625
	c3.333-1.271,5.797-3.219,7.391-5.844c0-0.072-0.375-0.109-1.125-0.109c0-0.114,0.067-0.182,0.203-0.203h1.016l0.422-0.313h1.953
	l0.203-0.094c1.302-2.313,1.953-4.609,1.953-6.891C75.766,20.352,75.558,20.253,75.141,20.211z M68.359,21.336
	c0,0.198-0.203,0.984-0.609,2.359c-1.052,1.959-2.25,3.225-3.594,3.797c-0.073,0-0.177-0.031-0.313-0.094
	c-0.114,0.063-0.25,0.094-0.406,0.094h-1.031c-0.886,0.209-1.364,0.313-1.438,0.313h-1.125v0.203h0.516
	c0.136,0,0.203,0.068,0.203,0.203c-0.906,0.209-1.558,0.313-1.953,0.313c-0.417,0-1.234-0.172-2.453-0.516h-1.234v-0.203h0.609
	v-0.109l-0.094-0.203h1.438l0.203-0.094c0-0.094-0.38-0.4-1.141-0.922c-1.375-1.344-2.229-2.854-2.563-4.531v-0.5
	c1.667-0.072,2.625-0.109,2.875-0.109l0.516,0.109c0-0.072,0.036-0.109,0.109-0.109s0.172,0.037,0.297,0.109
	c0.136,0,0.203-0.072,0.203-0.219v-0.203h-0.813c-0.719,0-1.813-0.031-3.281-0.094c-0.094-0.479-0.198-0.719-0.313-0.719h-1.844
	v-0.313h0.5c0.146,0,0.219-0.067,0.219-0.203v-0.203l-0.625-0.422v-0.203c0-0.364,0.239-1.151,0.719-2.359
	c1.792-2.938,4.12-4.406,6.984-4.406c0.979,0,2.245,0.479,3.797,1.438c1.406,0.979,2.433,2.38,3.078,4.203v0.109h-1.531
	c-0.479,0-1.234,0.031-2.266,0.094v0.203h3.5l0.5,0.109c0,1.365,0.141,2.047,0.422,2.047h0.719l0.203-0.094
	c0.677,0.083,1.016,0.183,1.016,0.297V21.336z M69.594,21.539c-0.136,0-0.203,0.068-0.203,0.203h-0.094v-0.094l0.094-0.203h0.203
	V21.539z M95.141,6.445c0-0.104-0.072-0.245-0.219-0.422c-0.156,0-0.297,0.037-0.422,0.109c-0.125-0.073-0.266-0.109-0.422-0.109
	H76.5c-0.739,0-1.864,0.037-3.375,0.109c0,0.073-0.036,0.109-0.109,0.109c0,0.156,0.037,0.297,0.109,0.422
	c-0.072,0.125-0.109,0.266-0.109,0.422v0.109c0,0.136,0.141,0.203,0.422,0.203v4c0,0.146,0.073,0.219,0.219,0.219h6.094l0.531,0.094
	c0-0.063,0.036-0.094,0.109-0.094c0.281,0.115,0.422,0.323,0.422,0.625v1.688l-0.109,0.531c0.073,0,0.109,0.068,0.109,0.203
	l-0.109,0.953h-0.531l-0.422,0.516h-0.938c-0.125,0-0.198,0.073-0.219,0.219c0,0.136,0.073,0.203,0.219,0.203h0.938
	c0.146,0,0.219,0.073,0.219,0.219v1.375c0,0.136,0.177,0.203,0.531,0.203v0.422h-0.953c-0.114,0-0.183,0.068-0.203,0.203v6.328
	c-0.083,0-0.192,0.037-0.328,0.109L78.5,25.305c-0.125,0-0.198,0.068-0.219,0.203v0.109h0.953l0.203-0.109
	c0,0.146,0.317,0.287,0.953,0.422v5.688c0,0.604,0.036,1.552,0.109,2.844c1.396,0.072,2.448,0.109,3.156,0.109h4.219
	c0.136,0,0.203-0.068,0.203-0.203v-8.328c0-0.094-0.208-0.234-0.625-0.422h-1.594v-0.109c0.708-0.083,1.063-0.224,1.063-0.422
	v-6.203c0.844-0.073,1.266-0.177,1.266-0.313l-0.641-0.422v-0.953l0.109-0.531l-0.203-0.109h-1.063
	c-0.114,0-0.183-0.067-0.203-0.203c0-0.114,0.067-0.188,0.203-0.219h0.953c0.136,0,0.203-0.135,0.203-0.406
	c0.563-0.073,0.844-0.182,0.844-0.328v-3.688h1.063l0.516-0.094c0,0.063,0.036,0.094,0.109,0.094l0.219-0.094
	c0.156,0,0.297,0.031,0.422,0.094l0.734-0.094c0.229,0,0.401,0.031,0.516,0.094l0.641-0.094h2.203l0.531,0.094l0.109-0.203v-4
	c-0.209-0.198-0.35-0.479-0.422-0.844L95.141,6.445z M80.5,24.664h-0.109v-0.203H80.5V24.664z M77.656,16.133h-0.219
	c-0.114,0-0.183,0.073-0.203,0.219c0,0.136,0.067,0.203,0.203,0.203h0.219c0.136,0,0.203-0.067,0.203-0.203
	C77.859,16.237,77.792,16.164,77.656,16.133z M102,15.617h-0.203v0.203H102V15.617z M102.609,15.617h-0.297v0.203h0.297V15.617z
	 M111.25,23.742h-1.016v0.203h0.297l0.719,0.109V23.742z M163.563,19.633h0.531c0.135,0,0.203-0.067,0.203-0.203v-0.531
	c0-0.114-0.068-0.182-0.203-0.203h-0.531c-0.114,0-0.188,0.068-0.219,0.203v0.531C163.344,19.565,163.417,19.633,163.563,19.633z
	 M184.609,30.117h-1.578c-0.073-0.708-0.178-1.063-0.313-1.063h-10.063v-0.109c0-0.156,0.036-0.297,0.109-0.422
	c-0.073-0.125-0.109-0.266-0.109-0.422c-0.417-0.041-0.625-0.25-0.625-0.625v-3.5l-1.063-0.109h-0.641v-0.094
	c0-0.125,0.072-0.197,0.219-0.219h0.203l0.641,0.109c0.489-0.041,0.734-0.182,0.734-0.422h9l0.313-0.219l-0.109-1.063v-1.797
	l0.109-0.531c0.072,0,0.182,0.037,0.328,0.109l0.625-0.109l0.219,0.109c0.771-0.073,1.156-0.177,1.156-0.313v-1.594
	c0-0.114-0.068-0.182-0.203-0.203h-9.203v-4.547c0-0.125-0.073-0.198-0.219-0.219h-0.953c-0.115,0-0.183-0.067-0.203-0.203v-0.953
	c1.51-0.073,2.635-0.109,3.375-0.109h7.297c0.146,0,0.219-0.073,0.219-0.219v-0.531h0.531c0.135,0,0.203-0.067,0.203-0.203V10.43
	c0-0.114-0.172-0.219-0.516-0.313c-0.125,0.073-0.271,0.109-0.438,0.109h-0.422c-0.209-0.114-0.313-0.219-0.313-0.313V6.305
	c-0.115-0.208-0.219-0.313-0.313-0.313h-15.031c-0.698,0-1.756,0.037-3.172,0.109l-0.109,0.203v3.703
	c0,0.146,0.072,0.219,0.219,0.219h1.266c0.146,0,0.219,0.068,0.219,0.203v0.219l-0.75,0.422v1.688h0.219
	c0.771,0,1.156,0.109,1.156,0.328v6.453c-1.115,0.063-1.781,0.094-2,0.094s-0.328,0.073-0.328,0.219v3.484
	c0,0.146-0.068,0.219-0.203,0.219h-1.266c-0.125,0-0.197,0.073-0.219,0.219c0,0.136,0.073,0.203,0.219,0.203h1.375l0.203,0.109
	l-0.109,0.203v3.609c0.5,0.042,0.75,0.214,0.75,0.516c0,0.167-0.037,0.313-0.109,0.438c-0.428,0.115-0.641,0.219-0.641,0.313
	c0,0.156,0.036,0.297,0.109,0.422l-0.109,0.219c0,0.209,0.072,0.313,0.219,0.313h0.422L166,30.227v0.203h-0.422
	c-0.638,0-1.526,0.036-2.656,0.104v-0.76l0.094-0.531l-0.203-0.109h-7.969l-1.063-0.109c0,0.073-0.068,0.109-0.203,0.109
	c-0.125,0-0.198-0.072-0.219-0.219v-6.359c0-0.114-0.245-0.224-0.734-0.328l0.094-0.203V10.977c0-0.114-0.068-0.182-0.203-0.203
	h-1.172v-0.219c0-0.114,0.072-0.182,0.219-0.203h0.953l0.844-0.641V7.477c0-0.135-0.178-0.203-0.531-0.203
	c-0.073-0.854-0.178-1.281-0.313-1.281h-7.328c-0.115,0-0.183,0.073-0.203,0.219v0.953c0.489,0,0.734,0.208,0.734,0.625v1.922
	c0,0.136-0.104,0.203-0.313,0.203c-0.479,0.406-1.047,0.62-1.703,0.641v0.109c0.854,0.073,1.281,0.177,1.281,0.313v11.156
	c0,0.083,0.244,0.261,0.734,0.531v5.03c-1.554-4.782-2.476-7.255-2.766-7.405h-0.094l-0.641,0.094
	c-0.428-0.042-0.641-0.25-0.641-0.625v-0.109h2.438l0.219-0.109l-0.75-2.109c-1.5-4.375-2.344-6.635-2.531-6.781h-1.063
	l-0.313-0.203c-1.011-2.938-1.578-4.417-1.703-4.438h-6.234l-1.266,0.094c-0.604,1.229-1.172,2.745-1.703,4.547v0.109h0.531v0.109
	l-1.484,4.344c-1.021,2.865-1.584,4.308-1.688,4.328c-1.979,0-2.922,0.052-2.828,0.156c-0.094-0.198-0.067,0.031,0.078,0.688h1.063
	v0.109l-0.762,2.203c-0.099-0.195-0.194-0.297-0.285-0.297h-1.234c-0.053-0.344-0.156-0.516-0.313-0.516
	c0-0.135,0.411-0.234,1.234-0.297c-0.688-0.739-1.031-1.151-1.031-1.234c-1.604-1.396-3.766-2.495-6.484-3.297
	c-1.417-0.5-2.136-0.844-2.156-1.031V15.93h2.063v-0.313h-2.469l-0.203-0.109l0.094-0.203c0-0.177-0.24-0.313-0.719-0.406
	c-0.386-0.344-0.693-0.516-0.922-0.516h-0.922l-0.109-0.516c0.052-0.958,0.224-1.438,0.516-1.438c0-0.552,0.688-0.828,2.063-0.828
	h0.094c0.729,0.094,1.791,0.813,3.188,2.156h1.438c2.583-2.417,3.891-3.682,3.922-3.797V9.852c0-0.135-0.62-0.75-1.859-1.844
	c0.479,0,0.755-0.036,0.828-0.109c-0.104-0.208-0.209-0.313-0.313-0.313h-1.031c-1.573-0.677-2.464-1.016-2.672-1.016h-0.609
	c-0.49-0.344-1.484-0.516-2.984-0.516h-0.313c-0.156,0-0.292-0.036-0.406-0.109c-0.125,0.073-0.266,0.109-0.422,0.109h-1.547
	c-1.646,0.146-2.469,0.318-2.469,0.516c0,0.104-0.443,0.412-1.328,0.922v0.094h0.609l0.219,0.109c0,0.136-0.209,0.24-0.625,0.313
	l-0.203-0.109l-0.203,0.109c0-0.073-0.037-0.109-0.109-0.109h-0.313c-1.99,1.625-2.984,3.511-2.984,5.656v0.828h1.141
	c0.104,0,0.208,0.136,0.313,0.406l0.719,0.422c0,0.136-0.172,0.203-0.516,0.203v0.203h1.328v0.203c-0.303,0-0.506,0.037-0.609,0.109
	c0-0.073-0.037-0.109-0.109-0.109h-0.406l-0.203,0.109c0.094,0.865,0.4,1.651,0.922,2.359c0.76,1.333,2.203,2.396,4.328,3.188v0.203
	h-0.734v0.203c0.802,0.209,1.422,0.417,1.859,0.625c0.156,0,0.291-0.036,0.406-0.109c0.271,0.073,0.51,0.109,0.719,0.109
	l2.891,0.922v0.203c-1.188,0.073-1.875,0.109-2.063,0.109h-0.109v0.203c0.072,0,0.177,0.037,0.313,0.109L113,23.945
	c0.469,0.073,0.849,0.109,1.141,0.109h1.031c0.364,0,0.635,0.172,0.813,0.516v0.094h-1.031c0.344,0.74,0.516,1.219,0.516,1.438
	c0,1.428-0.891,2.287-2.672,2.578c-1.167,0-2.334-0.516-3.5-1.547V26.93h0.313v-0.203c-0.636-1.031-1.011-1.547-1.125-1.547h-1.234
	c-1.792,1.115-2.787,1.698-2.984,1.75l-0.422-0.094c-0.553,0.281-1.339,0.761-2.359,1.438c0.031,0.5,0.375,1.047,1.031,1.641
	c0,0.636,0.891,1.011,2.672,1.125c2.396,2.333,5.484,3.5,9.266,3.5h0.094c1.971,0,3.675-0.282,5.118-0.84l-0.305,0.871v0.109h8.047
	l1.375-4.141v-0.094c0-0.125-0.073-0.197-0.219-0.219h-1.797l-0.203-0.109c0.083-0.563,0.328-0.844,0.734-0.844h6.141
	c0.416,0.636,0.661,0.953,0.734,0.953h0.953c-0.063-0.5-0.094-0.781-0.094-0.844v-0.109h0.844c0.333,0.636,0.541,0.953,0.625,0.953
	h2.125l0.313,0.219c0,0.136-0.068,0.203-0.203,0.203h-3.391c-0.604,0-1.558,0.037-2.859,0.109c0,0.073-0.037,0.109-0.109,0.109
	c0,0.136,0.072,0.203,0.219,0.203c0.156,0,0.297-0.031,0.422-0.094c0.125,0.063,0.266,0.094,0.422,0.094h5.609
	c0.729,2.406,1.15,3.609,1.266,3.609h6.009c0.998,0.051,1.76,0.078,2.257,0.078h14.125c0.146,0,0.219-0.073,0.219-0.219v-0.953
	l-0.109-0.203l-0.641,0.094c-0.375-0.063-0.589-0.094-0.641-0.094v-0.219c0.239,0,0.416-0.037,0.531-0.109l0.641,0.109
	c0.146,0,0.219-0.068,0.219-0.203V31.18h0.844l0.531,0.094v2.547l0.109,0.203c-0.073,0-0.109,0.036-0.109,0.109v0.219
	c0.114,0.208,0.224,0.313,0.328,0.313h0.625l0.219-0.109c0,0.072,0.036,0.109,0.109,0.109h17.344v-4.016l0.531-0.109h1.156
	c0.146,0,0.219-0.072,0.219-0.219C184.828,30.206,184.755,30.139,184.609,30.117z M106.109,15.82h-0.094v-0.203h0.094V15.82z
	 M106.313,15.82v-0.203h0.109c0.135,0,0.203,0.068,0.203,0.203H106.313z M107.25,25.805h-0.109v-0.219h0.109V25.805z
	 M122.875,24.753v-0.089h0.031C122.896,24.695,122.885,24.723,122.875,24.753z M123.172,23.883
	c-0.007,0.022-0.014,0.041-0.021,0.063h-0.682c0-0.114,0.067-0.182,0.203-0.203h0.549L123.172,23.883z M136.719,23.773
	c0,0.146-0.354,0.25-1.063,0.313c0-0.063-0.037-0.094-0.109-0.094h-1.797l-0.531,0.094c0-0.063-0.031-0.094-0.094-0.094
	l-0.641,0.094c-0.073,0-0.178-0.031-0.313-0.094l-0.75,0.094l-0.531-0.094c0-0.083,0.354-1.213,1.063-3.391
	c0-0.167-0.209-0.271-0.625-0.313h-0.641c0.072-0.427,0.177-0.641,0.313-0.641h2.438c0.302,0,0.833-1.479,1.594-4.438h0.203
	c0.563,1.594,1.021,3.037,1.375,4.328h-1.797c-0.115,0-0.188,0.073-0.219,0.219c0.146,0.177,0.219,0.354,0.219,0.531
	c0.635,0.052,0.953,0.261,0.953,0.625c0.375,1.364,0.692,2.281,0.953,2.75V23.773z M145.719,31.07h-5.188
	c-0.125,0-0.198-0.067-0.219-0.203l0.109-0.219l0.734,0.109h2.219c0.166,0,0.313-0.036,0.438-0.109
	c0.114,0.073,0.255,0.109,0.422,0.109h1.484V31.07z M145.719,30.227h-1.281c-0.115,0-0.359-0.563-0.734-1.688
	c0-0.125,0.067-0.197,0.203-0.219h0.531l0.75,0.109c0-0.072,0.031-0.109,0.094-0.109c0.041,0,0.182,0.037,0.422,0.109l0.016-0.008
	V30.227z M168.328,30.43h-0.953c0-0.114,0.067-0.182,0.203-0.203h0.75V30.43z M180.484,31.18h-1.469
	c-0.125,0-0.198-0.072-0.219-0.219v-0.422h1.688c0,0.073,0.036,0.178,0.109,0.313C180.521,30.987,180.484,31.097,180.484,31.18z"/>
</svg>
