<?xml version="1.0" encoding="utf-8"?>
<!-- Generator: Adobe Illustrator 23.0.5, SVG Export Plug-In . SVG Version: 6.00 Build 0)  -->
<svg version="1.1" id="Capa_1" xmlns="http://www.w3.org/2000/svg" xmlns:xlink="http://www.w3.org/1999/xlink" x="0px" y="0px"
	 viewBox="0 0 150 80" style="enable-background:new 0 0 150 80;" xml:space="preserve">
<style type="text/css">
	.st0{fill:#272425;}
	.st1{fill:#CA2231;}
	.st2{fill:#FFFFFF;}
</style>
<g>
	<path class="st2" d="M45.525,50.732c-1.025-3.563-0.828-8.341-9.995-8.776l6.717-6.748c1.731-1.412,4.662-3.834,6.218-3.834v-0.406h-9.117
		v0.406c1.237,0,3.354,1.08,1.113,4.718c-0.305,0.496-0.808,1.285-5.283,5.747l-0.479-0.027v-5.999c0-2.861,0.197-4.538,2.953-4.538
		V31H26.945v0.276c3.321,0,2.73,5.663,2.73,8.526v8.165c0,2.862,0.393,6.418-2.927,6.418v0.272h11.177v-0.272
		c-2.898,0-3.226-1.315-3.226-4.178v-7.652c3.967-0.593,4.559,5.176,5.81,12.102c0,0.009,8.167,0,8.167,0v-0.239
		C46.477,53.991,46.103,52.741,45.525,50.732z M56.329,43.531V30.978h-7.409v0.41c1.943,0,2.423,1.242,2.423,3.519v8.623
		c0,1.944-0.152,4.197-2.094,4.197v0.24h9.515v-0.24C56.857,47.727,56.329,46.806,56.329,43.531z M53.759,29.938
		c1.446,0,2.649-1.202,2.649-2.651c0-1.447-1.203-2.648-2.649-2.648c-1.45,0-2.652,1.202-2.652,2.648
		C51.107,28.736,52.31,29.938,53.759,29.938z M75.902,43.531l-0.013-6.466c0-2.95-0.383-6.432-4.93-6.432
		c-1.908,0-3.034,0.055-4.697,2.445v-2.1h-7.445v0.407c1.945,0,2.373,1.148,2.373,3.522v8.623c0,2.715-0.299,4.197-2.064,4.197
		v0.239h8.889v-0.239c-1.59,0-1.754-1.415-1.754-4.197v-9.303c0.563-0.953,0.641-2.613,2.718-2.613c1.814,0,1.554,2.975,1.554,5.343
		v6.573c0,2.814,0,4.197-1.588,4.197v0.239h9.053v-0.239C76.231,47.727,75.902,46.708,75.902,43.531z M113.322,42.367V32.165h2.897
		l0.592-1.186h-3.489v-5.224h-0.301c-1.709,2.493-5.4,5.493-7.648,6.271v0.139h2.879v11.541c0,2.44,1.617,4.258,4.196,4.258
		c0.677,0,2.49,0.458,5.153-1.688l-0.067-0.321C116.29,47.07,113.322,47.499,113.322,42.367z M123.918,30.633
		c-4.497,0-8.157,4.933-8.157,9.014c0,4.687,3.756,8.618,8.157,8.618c3.609,0,8.023-3.798,8.023-8.915
		C131.941,35.006,128.023,30.633,123.918,30.633z M123.918,47.952c-2.751,0-2.74-3.608-2.74-8.767c0-4.277-0.209-8.207,2.74-8.207
		c2.69,0,2.873,3.048,2.873,8.207C126.79,44.344,127.001,47.952,123.918,47.952z M147.902,43.531l-0.013-6.466
		c0-2.95-0.385-6.432-4.932-6.432c-1.908,0-3.032,0.055-4.696,2.445v-2.1h-7.444v0.407c1.944,0,2.373,1.148,2.373,3.522v8.623
		c0,2.715-0.297,4.197-2.064,4.197v0.239h8.89v-0.239c-1.59,0-1.755-1.415-1.755-4.197v-9.303c0.565-0.953,0.641-2.613,2.718-2.613
		c1.812,0,1.554,2.975,1.554,5.343v6.573c0,2.814,0,4.197-1.59,4.197v0.239H150v-0.239
		C148.233,47.727,147.902,46.708,147.902,43.531z M94.627,31.486v-0.367h-7.59v1.791c0,0-0.948-2.197-3.409-2.197
		c-3.472,0-6.491,4.171-6.491,8.868c0,5.776,2.398,8.671,5.575,8.671c2.743,0,3.476-2.203,3.993-2.882
		c0.307,3.282,1.064,7.008-2.468,9.582l-0.043,0.41c6.148-1.733,7.696-4.171,7.939-7.726V34.551
		C92.134,30.983,94.627,31.486,94.627,31.486z M87.144,40.162c0,3.703-1.252,7.183-2.793,7.183c-1.748,0-2.132-3.07-2.132-7.662
		c0-5.47,0.442-8.49,2.166-8.49c2.468,0,2.759,3.745,2.759,7.584V40.162z M106.871,42.272c0-6.18-9.743-4.662-9.743-8.854
		c0-0.16-0.112-2.496,2.748-2.496c3.499,0,3.837,3.391,3.645,4.215h2.056c0-1.152-0.642-4.458-6.147-4.458
		c-3.396,0-5.665,2.49-5.665,5.473c0,6.568,9.007,4.721,9.007,9.045c0,1.407-1.459,2.671-3.068,2.671
		c-0.891,0-4.592-0.006-4.266-5.322h-2.428c0,1.56,1.607,5.975,7.706,5.64C104.243,47.991,106.871,45.39,106.871,42.272z
		 M147.93,31.306c0.972,0,1.754-0.789,1.754-1.765c0-0.963-0.782-1.752-1.754-1.752c-0.975,0-1.762,0.789-1.762,1.752
		C146.168,30.516,146.955,31.306,147.93,31.306z M147.93,28.019c0.855,0,1.477,0.67,1.477,1.522c0,0.865-0.622,1.532-1.477,1.532
		c-0.858,0-1.486-0.667-1.486-1.532C146.444,28.688,147.072,28.019,147.93,28.019z M147.518,29.621h0.44l0.561,0.904h0.289
		l-0.594-0.904c0.348-0.01,0.616-0.153,0.616-0.539c0-0.323-0.176-0.519-0.695-0.519h-0.86v1.963h0.243V29.621z M147.518,28.734
		h0.56c0.241,0,0.493,0.037,0.493,0.345c0,0.399-0.408,0.352-0.686,0.352h-0.367V28.734z M49.826,49.943h1.784v4.668h0.73v-4.668
		h1.784v-0.629h-4.298V49.943z M60.273,52.183h2.924v-0.614h-2.924v-1.608h3.162v-0.646h-3.861v5.296h3.915v-0.633h-3.216V52.183z
		 M72.588,53.506c-0.276,0.407-0.679,0.611-1.208,0.611c-0.575,0-1.006-0.194-1.296-0.579c-0.29-0.387-0.436-0.89-0.436-1.511
		c0-0.756,0.162-1.318,0.482-1.686c0.321-0.365,0.742-0.549,1.265-0.549c0.428,0,0.759,0.1,0.995,0.298
		c0.237,0.202,0.394,0.471,0.473,0.813h0.7c-0.04-0.448-0.246-0.852-0.616-1.206c-0.37-0.352-0.89-0.528-1.561-0.528
		c-0.788,0-1.401,0.272-1.849,0.814c-0.412,0.501-0.621,1.141-0.621,1.922c0,1.028,0.277,1.789,0.826,2.283
		c0.419,0.371,0.936,0.558,1.551,0.558c0.715,0,1.283-0.228,1.702-0.682c0.349-0.378,0.556-0.845,0.619-1.403h-0.698
		C72.845,53.011,72.735,53.292,72.588,53.506z M82.709,51.502h-2.754v-2.188H79.23v5.296h0.725v-2.479h2.754v2.479h0.724v-5.296
		h-0.724V51.502z M95.891,53.602l-2.676-4.288h-0.847v5.296h0.684v-4.289l2.716,4.289h0.803v-5.296h-0.681V53.602z M105.302,49.17
		c-0.895,0-1.57,0.326-2.026,0.98c-0.355,0.508-0.536,1.124-0.536,1.839c0,0.792,0.209,1.45,0.625,1.968
		c0.466,0.537,1.105,0.809,1.921,0.809c0.872,0,1.543-0.308,2.016-0.924c0.402-0.524,0.601-1.179,0.601-1.97
		c0-0.733-0.174-1.331-0.527-1.801C106.928,49.47,106.236,49.17,105.302,49.17z M106.745,53.444c-0.282,0.452-0.74,0.678-1.37,0.678
		c-0.669,0-1.148-0.199-1.446-0.603c-0.296-0.402-0.445-0.898-0.445-1.484c0-0.733,0.173-1.289,0.519-1.664
		c0.347-0.377,0.794-0.564,1.341-0.564c0.566,0,1.01,0.19,1.335,0.569c0.325,0.379,0.491,0.88,0.491,1.504
		C107.17,52.469,107.028,52.991,106.745,53.444z M114.793,49.314h-0.717v5.296h3.398v-0.633h-2.681V49.314z M125.633,49.17
		c-0.895,0-1.57,0.326-2.025,0.98c-0.357,0.508-0.535,1.124-0.535,1.839c0,0.792,0.209,1.45,0.624,1.968
		c0.466,0.537,1.106,0.809,1.922,0.809c0.872,0,1.543-0.308,2.016-0.924c0.399-0.524,0.6-1.179,0.6-1.97
		c0-0.733-0.175-1.331-0.527-1.801C127.261,49.47,126.568,49.17,125.633,49.17z M127.076,53.444
		c-0.281,0.452-0.739,0.678-1.37,0.678c-0.667,0-1.147-0.199-1.445-0.603c-0.296-0.402-0.445-0.898-0.445-1.484
		c0-0.733,0.175-1.289,0.52-1.664c0.347-0.377,0.793-0.564,1.341-0.564c0.565,0,1.008,0.19,1.337,0.569
		c0.325,0.379,0.489,0.88,0.489,1.504C127.503,52.469,127.359,52.991,127.076,53.444z M136.714,52.37h1.659
		c-0.009,0.621-0.17,1.07-0.482,1.347c-0.312,0.277-0.71,0.418-1.188,0.418c-0.625,0-1.075-0.197-1.351-0.594
		c-0.276-0.394-0.415-0.909-0.415-1.537c0-0.73,0.166-1.278,0.502-1.645c0.337-0.368,0.748-0.552,1.238-0.552
		c0.415,0,0.757,0.089,1.028,0.264c0.271,0.178,0.451,0.459,0.538,0.847h0.71c-0.117-0.693-0.44-1.175-0.967-1.453
		c-0.362-0.194-0.791-0.29-1.29-0.29c-0.724,0-1.317,0.249-1.775,0.75c-0.479,0.525-0.72,1.229-0.72,2.116
		c0,0.89,0.247,1.588,0.738,2.098c0.452,0.407,0.993,0.61,1.62,0.61c0.484,0,0.886-0.088,1.201-0.268
		c0.186-0.101,0.402-0.288,0.645-0.554l0.172,0.683h0.463v-2.834h-2.326V52.37z M147.267,51.859l-1.523-2.545h-0.836l2.002,3.161
		v2.136h0.718v-2.136l1.999-3.161h-0.841L147.267,51.859z"/>
	<path class="st0" d="M1.197,29.43c-0.105-0.424-0.244-1.44-0.244-1.44c-0.195-0.826,0.213-1.052,0.213-1.052
		s3.722-1.942,10.568-2.113c2.063-0.052,5.644-0.114,9.222,1.1c0.24,0.098,0.298,0.288,0.393,0.643
		c0.12,0.443,0.173,0.836,0.229,1.23c0.129,0.916,0.163,1.445,0.136,1.953c-0.02,0.366-0.425,1.01-0.442,1.191
		c-0.058,0.626,0.175,3.064,0.086,4.256c-0.089,1.193-0.551,5.195-1.507,7.817c-1.009,2.768-2.75,2.316-3.634,2.316l4.178,9.376
		L0,54.691l3.017-16.333c0,0,0.046-0.412-0.321-0.642c-0.81-0.506-1.461-1.309-1.461-1.309s-0.411-0.464-0.876-3.144
		c0,0-0.393-2.52,0.043-3.07c0.202-0.255,0.688-0.503,0.832-0.59L1.197,29.43z"/>
	<path class="st1" d="M19.725,29.035c0,0,0.172-0.344,0.584-0.447c0,0,0.372-0.094,0.463-0.484c0.12-0.508,0.271-1.409,0.035-1.596
		c-2.672-1.17-8.312-1.08-9.021-1.082c-6.008-0.022-10.001,1.856-10.001,1.856c-0.221,0.111-0.282,0.386-0.282,0.386
		s0.154,1.335,0.222,1.557c0.049,0.159,0.163,0.171,0.163,0.171s1.519-0.508,2.937-0.413c0.984,0.066,1.238,1.598,1.238,1.598
		c-0.068-0.109-0.118-0.051-0.206-0.154c-0.287-0.335-0.708-0.785-1.185-0.877c-0.981-0.103-3.292,0.38-3.661,0.979
		c-0.412,0.67,0.154,4.64,0.773,5.465c1.128,1.505,3.969,2.887,3.969,2.887l-4.227-7.166c0,0-0.126-0.242,0-0.516
		c0.065-0.142,0.266-0.477,1.546-0.515c1.701-0.052,1.907,1.598,1.907,1.598l1.547,6.701c0.243-0.023,4.146-0.442,5.206-0.618
		c1.061-0.177,2.689-1.039,3.506-1.237c0.817-0.199,3.454,0.051,3.454,0.051s-3.131-2.265-3.198-2.332
		c-0.067-0.067-0.05-0.143-0.05-0.143s0.257-1.001,0.346-1.178c0.088-0.177,0.42-0.169,0.42-0.169l1.295,0.309
		c0.423,0.142-0.738,0.144-0.738,0.144h-0.55c-0.155,0-0.24,0.481-0.258,0.739c-0.023,0.353,0.567,0.412,0.567,0.412
		s2.864-0.05,3.107-0.066c0.554-0.037,0.753-0.074,0.709-0.295C20.299,34.381,19.725,29.035,19.725,29.035z M18.9,38.623
		c-2.871-0.751-5.612-0.244-5.612-0.244c1.745,1.413,6.162,1.172,6.162,1.172C19.516,39.133,18.9,38.623,18.9,38.623z
		 M19.312,40.274c-5.155-0.464-5.928,2.886-5.928,2.886c1.924,0.491,4.099-0.411,5.286-1.598
		C19.67,40.562,19.312,40.274,19.312,40.274z M21.309,29.046c-0.161-0.134-0.147-0.16-0.399-0.199
		c-0.237-0.036-0.605,0.694-0.605,0.694c0.812-0.024,0.911,0.186,1.018,0.079C21.43,29.513,21.469,29.179,21.309,29.046z
		 M3.705,38.405L0.754,54.106h7.99L5.6,39.706L3.705,38.405z M8.313,45.468l2.089,8.674h2.827l-0.412-5.361
		C12.198,47.903,8.313,45.468,8.313,45.468z M14.931,50.378l-0.877,3.763h3.815C17.198,52.491,14.931,50.378,14.931,50.378z"/>
	<path class="st2" d="M18.443,29.478c-0.058-0.266-0.304-0.192-0.304-0.192l0.532,4.6c0,0,0.43,0.343,0.43-0.066
		C19.1,33.606,18.724,30.775,18.443,29.478z M9.97,25.483l0.992,2.32c0.068-0.045,0.479-0.274,0.507-0.298
		c0,0-1.205-2.043-1.249-2.044C10.059,25.457,9.97,25.483,9.97,25.483z M5.429,30.773c-0.886,0.204-0.448,1.51-0.448,1.51
		s0.244-0.805,0.925-1.078s2.93-0.704,2.93-0.704C7.473,30.432,6.315,30.568,5.429,30.773z"/>
	<path class="st0" d="M17.308,28.127c-0.31-0.103-0.94-0.367-2.12-0.639c-2.266-0.523-2.836-0.395-2.836-0.395
		c-2.577,1.082-4.691,3.334-4.691,3.334c0.222,0.088,0.722,0,0.722,0c2.32-2.011,4.268-2.804,4.268-2.804
		c1.65-0.035,4.547,0.94,4.702,0.896C17.431,28.497,17.443,28.173,17.308,28.127z M15.262,28.993
		c-0.419-0.11-1.208-0.007-2.136,0.214c-0.927,0.221-2.783,1.168-2.783,1.168c0.713,0.316,1.962,0.463,3.108,0.583
		c1.325,0.139,2.717-0.531,2.717-0.531C16.146,30.228,15.682,29.103,15.262,28.993z"/>
</g>
</svg>
