<?xml version="1.0" encoding="utf-8"?>
<!-- Generator: Adobe Illustrator 23.0.5, SVG Export Plug-In . SVG Version: 6.00 Build 0)  -->
<svg version="1.1" id="Capa_1" xmlns="http://www.w3.org/2000/svg" xmlns:xlink="http://www.w3.org/1999/xlink" x="0px" y="0px"
	 viewBox="0 0 150 80" style="enable-background:new 0 0 150 80;" xml:space="preserve">
<style type="text/css">
	.st0{fill-rule:evenodd;clip-rule:evenodd;fill:#00B7FB;}
	.st1{fill-rule:evenodd;clip-rule:evenodd;fill:#FFFFFF;}
</style>
<g>
	<path class="st0" d="M114.089,39.557c0,10.387,8.455,18.76,18.842,18.76v-7.809c-6.12,0-10.951-4.992-10.951-10.95
		c0-6.12,4.831-10.95,10.951-10.95v-7.81C122.545,20.797,114.089,29.171,114.089,39.557z M133.172,36.175v7.649h9.098v9.098H150
		V36.175H133.172z"/>
	<path class="st1" d="M0,50.105h3.784V28.204H0V50.105z M13.607,34.162c-4.67,0-8.212,3.543-8.212,8.132s3.623,8.213,8.212,8.213
		s8.213-3.543,8.213-8.132C21.82,37.785,18.277,34.162,13.607,34.162z M13.607,46.803c-2.496,0-4.428-1.933-4.428-4.509
		c0-2.496,1.932-4.428,4.428-4.428s4.428,1.932,4.428,4.428C18.035,44.79,16.184,46.803,13.607,46.803z M31.481,50.507
		c4.589,0,8.213-3.543,8.213-8.132c0-1.611-0.483-3.06-1.288-4.187l1.207-0.483v-3.06h-5.394c-0.885-0.402-1.771-0.483-2.657-0.483
		c-4.67,0-8.293,3.543-8.293,8.213C23.269,47.045,26.892,50.507,31.481,50.507z M31.562,37.866c2.497,0,4.429,1.932,4.429,4.428
		c0,2.495-2.013,4.509-4.429,4.509c-2.496,0-4.428-1.933-4.428-4.509C27.133,39.798,29.065,37.866,31.562,37.866z M31.562,55.499
		c-2.496,0-4.428-1.933-4.428-4.428h-3.865c0,4.67,3.623,8.132,8.213,8.132s8.293-3.543,8.293-8.132H35.99
		C35.91,53.646,33.978,55.499,31.562,55.499z M41.304,50.105h3.785V34.645h-3.785V50.105z M43.317,27.721
		c-1.369,0-2.497,1.128-2.497,2.658c0,1.368,1.128,2.496,2.497,2.496c1.531,0,2.657-1.128,2.657-2.496
		C45.814,28.849,44.686,27.721,43.317,27.721z M52.818,29.895h-3.785v4.75h-2.012v3.382h2.012v11.996h3.785V38.027h2.174v-3.382
		h-2.174V29.895z M63.527,34.162c-4.67,0-8.132,3.543-8.132,8.213c0,4.67,3.14,7.971,8.132,7.971c2.657,0,5.153-1.047,7.005-2.899
		l-2.657-2.657c-1.289,1.289-2.657,2.013-4.267,2.013c-2.175,0-3.704-1.288-4.187-3.14h11.996v-0.886
		C71.416,37.705,68.116,34.162,63.527,34.162z M59.34,40.764c0.563-2.012,2.012-3.14,4.026-3.14c2.012,0,3.542,1.128,3.944,3.14
		H59.34z M80.836,37.947c1.611,0,2.899,0.805,3.946,2.012l2.657-2.657c-1.53-1.932-3.785-3.059-6.603-3.059
		c-4.669,0-8.212,3.542-8.212,8.132c0,4.589,3.623,8.132,8.212,8.132c2.657,0,5.073-1.289,6.603-3.06l-2.657-2.657
		c-1.048,1.127-2.416,2.013-3.946,2.013c-2.495,0-4.267-1.933-4.267-4.428C76.408,39.879,78.422,37.947,80.836,37.947z
		 M97.503,34.162c-1.932,0-3.542,0.644-4.67,1.932v-7.97H89.05v21.899h3.784v-8.373c0-2.255,1.37-3.704,3.704-3.704
		c2.174,0,3.382,1.368,3.382,3.704v8.373h3.784v-9.017C103.865,36.739,101.126,34.162,97.503,34.162z"/>
</g>
</svg>
