<?xml version="1.0" encoding="utf-8"?>
<!-- Generator: Adobe Illustrator 23.0.5, SVG Export Plug-In . SVG Version: 6.00 Build 0)  -->
<svg version="1.1" id="Capa_1" xmlns="http://www.w3.org/2000/svg" xmlns:xlink="http://www.w3.org/1999/xlink" x="0px" y="0px"
	 viewBox="0 0 40 40" style="enable-background:new 0 0 40 40;" xml:space="preserve">
<style type="text/css">
	.st0{fill-rule:evenodd;clip-rule:evenodd;fill:#FFFFFF;}
</style>
<g>
	<path class="st0" d="M19.817,39.941l0.035-14.294c-0.77,0-3.346,0.1-3.906-0.031c-1.022-0.245-0.67-2.204-0.698-3.158
		c-0.097-3.773-0.297-3.116,4.569-3.116c0-7.107-0.407-12.373,9.134-12.373c2.814,0,3.201-0.615,3.198,2.225
		c-0.003,3.334,0.363,3.362-1.979,3.351c-1.789-0.003-3.443-0.076-3.975,1.448c-0.338,0.967-0.197,4.115-0.197,5.348
		c7.266,0,6.509-0.453,6.119,2.892c-0.49,4.229,0.338,3.414-6.088,3.414l-0.041,14.294c1.664,0,8.388,0.104,9.486-0.086
		c2.452-0.425,4.341-2.484,4.462-5.183c0.138-3.051,0.01-6.423,0.01-9.512V6.026c-0.003-3.106-1.45-5.024-3.885-5.77
		c-1.333-0.411-16.31-0.204-18.927-0.204c-3.167,0-6.333,0-9.5,0c-2.521,0-5.328-0.19-6.886,2.743
		c-1.091,2.056-0.666,6.223-0.666,8.835v19.138c0,3.666-0.449,5.763,1.82,7.809c2.051,1.855,5.104,1.365,8.291,1.365
		C13.401,39.941,16.609,39.941,19.817,39.941L19.817,39.941z"/>
</g>
</svg>
