<?xml version="1.0" encoding="utf-8"?>
<!-- Generator: Adobe Illustrator 23.0.5, SVG Export Plug-In . SVG Version: 6.00 Build 0)  -->
<svg version="1.1" id="Capa_1" xmlns="http://www.w3.org/2000/svg" xmlns:xlink="http://www.w3.org/1999/xlink" x="0px" y="0px"
	 viewBox="0 0 40 40" style="enable-background:new 0 0 40 40;" xml:space="preserve">
<style type="text/css">
	.st0{fill:#3183FF;}
	.st1{fill:#FF3423;}
	.st2{fill:#FFBA00;}
	.st3{fill:#26B14B;}
</style>
<g>
	<path class="st0" d="M40,20c0-1.293-0.125-2.558-0.347-3.782H38.07h-6.184H20.414v7.565h11.642
		c-0.755,2.621-2.342,4.862-4.467,6.408l6.009,4.68C37.556,31.211,40,25.905,40,20L40,20z"/>
	<path class="st1" d="M20.664,8.109c2.926,0,5.564,1.039,7.606,2.766l5.56-5.524C30.358,2.032,25.673,0,20.414,0
		C12.577,0,5.587,4.508,2.19,11.075l6.823,5.098C10.758,11.474,15.396,8.109,20.664,8.109L20.664,8.109z"/>
	<path class="st2" d="M2.315,29.166l6.583-5.129c-0.398-1.188-0.62-2.454-0.62-3.769c0-1.438,0.264-2.816,0.736-4.095L2.19,11.075
		C0.796,13.76,0,16.789,0,20C0,23.306,0.842,26.417,2.315,29.166L2.315,29.166z"/>
	<path class="st3" d="M8.897,24.036l-6.583,5.129C5.763,35.596,12.674,40,20.414,40c5.138,0,9.735-1.941,13.184-5.129l-6.009-4.68
		c-1.935,1.406-4.31,2.24-6.925,2.24C15.271,32.431,10.545,28.907,8.897,24.036L8.897,24.036z"/>
</g>
</svg>
