<?xml version="1.0" encoding="utf-8"?>
<!-- Generator: Adobe Illustrator 23.0.5, SVG Export Plug-In . SVG Version: 6.00 Build 0)  -->
<svg version="1.1" id="Capa_1" xmlns="http://www.w3.org/2000/svg" xmlns:xlink="http://www.w3.org/1999/xlink" x="0px" y="0px"
	 viewBox="0 0 52 66" style="enable-background:new 0 0 52 66;" xml:space="preserve">
<style type="text/css">
	.st0{fill:#BEBEBE;}
</style>
<path class="st0" d="M2.012,27.779v3.998H6.01v-3.998H2.012z M49.988,27.779H45.99v3.998h3.998V27.779z M6.01,15.992h11.994v-3.998
	h-3.998V7.996h-3.998V3.998H6.01V0H2.012v11.994H6.01V15.992z M45.99,31.777h-7.996v3.998H14.006v-3.998H6.01v3.998h3.998v3.998
	h3.998v3.998h3.998v3.998h15.992v-3.998h3.998v-3.998h3.998v-3.998h3.998V31.777z M45.99,11.994h3.998V0H45.99v3.998h-3.998v3.998
	h-3.998v3.998h-3.998v3.998H45.99V11.994z M1.053,63.921h2.079v-8.316H1.053V63.921z M13.526,53.526h-2.079V66h6.237v-2.079h-4.158
	V53.526z M5.21,59.763v2.079h2.079v-2.079H5.21z M9.368,66v-4.158H7.289v2.079H3.132V66H9.368z M3.132,55.605h6.237v-2.079H3.132
	V55.605z M34.316,55.605h6.237v-2.079h-6.237V55.605z M48.868,53.526v6.237h-4.158v-6.237h-2.079V66h2.079v-4.158h4.158V66h2.079
	V53.526H48.868z M32.237,63.921h2.079v-8.316h-2.079V63.921z M23.921,55.605H26V66h2.079V55.605h2.079v-2.079h-6.237V55.605z
	 M19.763,66h2.079V53.526h-2.079V66z M40.553,66v-2.079h-6.237V66H40.553z"/>
</svg>
