<?xml version="1.0" encoding="utf-8"?>
<!-- Generator: Adobe Illustrator 23.0.5, SVG Export Plug-In . SVG Version: 6.00 Build 0)  -->
<svg version="1.1" id="Capa_1" xmlns="http://www.w3.org/2000/svg" xmlns:xlink="http://www.w3.org/1999/xlink" x="0px" y="0px"
	 viewBox="0 0 165 40" style="enable-background:new 0 0 165 40;" xml:space="preserve">
<style type="text/css">
	.st0{fill:#0A169A;}
	.st1{fill:#009BDB;}
	.st2{fill:#FFFFFF;}
</style>
<path class="st0" d="M59.745,18.9C59.745,8.488,46.808,0,30.849,0C14.89,0,1.953,8.488,1.953,18.9c0,0.269-0.003,1.012-0.003,1.106
	C1.95,31.053,13.258,40,30.845,40c17.696,0,28.9-8.944,28.9-19.991C59.745,19.623,59.745,19.401,59.745,18.9L59.745,18.9z"/>
<path class="st1" d="M58.639,18.891c0,9.817-12.439,17.774-27.785,17.774c-15.345,0-27.784-7.958-27.784-17.774
	c0-9.817,12.439-17.775,27.784-17.775C46.2,1.116,58.639,9.074,58.639,18.891L58.639,18.891z"/>
<path class="st2" d="M21.629,13.283c-0.015,0.028-0.292,0.315-0.112,0.545c0.439,0.56,1.793,0.881,3.162,0.574
	c0.815-0.183,1.861-1.014,2.873-1.818c1.097-0.872,2.186-1.745,3.28-2.092c1.158-0.369,1.901-0.211,2.391-0.062
	c0.538,0.161,1.171,0.515,2.18,1.272c1.901,1.429,9.546,8.102,10.866,9.255c1.064-0.48,5.792-2.516,12.216-3.932
	c-0.558-3.425-2.642-6.559-5.802-9.125c-4.404,1.85-9.786,2.815-15.049,0.244c-0.027-0.011-2.875-1.359-5.685-1.293
	c-4.176,0.097-5.985,1.904-7.899,3.817L21.629,13.283L21.629,13.283z"/>
<path class="st2" d="M45.96,21.684c-0.09-0.08-8.989-7.867-11.005-9.382c-1.167-0.875-1.816-1.098-2.497-1.185
	c-0.355-0.046-0.845,0.02-1.188,0.114c-0.938,0.256-2.164,1.075-3.253,1.939c-1.127,0.898-2.19,1.743-3.176,1.964
	c-1.26,0.283-2.799-0.051-3.501-0.525c-0.284-0.191-0.485-0.413-0.581-0.637c-0.259-0.601,0.219-1.082,0.298-1.163l2.456-2.656
	c0.286-0.285,0.573-0.57,0.867-0.85c-0.792,0.103-1.525,0.306-2.238,0.504c-0.89,0.251-1.745,0.488-2.611,0.488
	c-0.361,0-2.298-0.317-2.666-0.418c-2.222-0.608-4.173-1.2-7.086-2.56c-3.491,2.599-5.826,5.849-6.5,9.428
	c0.502,0.133,1.31,0.373,1.649,0.449c7.9,1.756,10.361,3.566,10.808,3.944c0.483-0.538,1.18-0.878,1.959-0.878
	c0.874,0.001,1.662,0.44,2.14,1.119c0.452-0.357,1.076-0.662,1.883-0.662c0.366,0,0.746,0.068,1.13,0.198
	c0.891,0.306,1.351,0.899,1.59,1.436c0.299-0.135,0.666-0.234,1.1-0.233c0.425,0,0.868,0.097,1.314,0.29
	c1.457,0.625,1.683,2.056,1.551,3.135c0.104-0.012,0.208-0.017,0.314-0.017c1.727,0.001,3.132,1.405,3.131,3.133
	c0,0.534-0.137,1.037-0.375,1.479c0.47,0.264,1.668,0.862,2.719,0.728c0.84-0.106,1.16-0.393,1.274-0.554
	c0.078-0.111,0.161-0.241,0.084-0.334l-2.229-2.477c0,0-0.367-0.347-0.246-0.481c0.126-0.137,0.353,0.06,0.513,0.194
	c1.135,0.947,2.52,2.377,2.52,2.377c0.023,0.015,0.115,0.197,0.627,0.288c0.441,0.079,1.221,0.033,1.762-0.411
	c0.137-0.112,0.273-0.252,0.387-0.396c-0.009,0.007-0.016,0.017-0.025,0.02c0.57-0.729-0.063-1.468-0.063-1.468L36.194,24.7
	c0,0-0.372-0.344-0.246-0.482c0.114-0.12,0.353,0.061,0.516,0.196c0.824,0.689,1.988,1.857,3.104,2.951
	c0.218,0.159,1.198,0.766,2.497-0.087c0.788-0.517,0.946-1.151,0.924-1.631c-0.055-0.634-0.549-1.086-0.549-1.086l-3.555-3.574
	c0,0-0.375-0.321-0.243-0.483c0.109-0.137,0.353,0.06,0.512,0.194c1.133,0.948,4.199,3.759,4.199,3.759
	c0.044,0.031,1.103,0.785,2.412-0.048c0.468-0.299,0.767-0.751,0.793-1.274C46.602,22.224,45.96,21.684,45.96,21.684L45.96,21.684z"
	/>
<path class="st2" d="M28.717,26.215c-0.551-0.006-1.154,0.321-1.233,0.273c-0.043-0.029,0.034-0.251,0.085-0.378
	c0.053-0.127,0.779-2.311-0.99-3.07c-1.354-0.582-2.182,0.073-2.466,0.368c-0.075,0.077-0.108,0.071-0.117-0.027
	c-0.027-0.393-0.203-1.457-1.372-1.814c-1.67-0.511-2.744,0.655-3.017,1.075c-0.122-0.952-0.927-1.691-1.912-1.692
	c-1.071-0.001-1.94,0.867-1.941,1.937c0,1.071,0.868,1.939,1.939,1.939c0.521,0.001,0.993-0.207,1.341-0.541
	c0.011,0.01,0.015,0.028,0.01,0.065c-0.081,0.479-0.232,2.222,1.593,2.931c0.732,0.284,1.354,0.073,1.87-0.289
	c0.154-0.108,0.179-0.062,0.157,0.082c-0.066,0.448,0.017,1.408,1.363,1.953c1.024,0.416,1.629-0.01,2.026-0.376
	c0.173-0.158,0.22-0.132,0.229,0.111c0.049,1.297,1.126,2.327,2.434,2.328c1.348,0.001,2.441-1.089,2.441-2.436
	C31.156,27.307,30.064,26.23,28.717,26.215L28.717,26.215z"/>
<path class="st0" d="M28.717,30.918c-1.221-0.001-2.215-0.95-2.26-2.16c-0.003-0.104-0.014-0.379-0.247-0.379
	c-0.096,0-0.179,0.057-0.275,0.144c-0.268,0.249-0.611,0.502-1.11,0.502c-0.226,0-0.472-0.053-0.732-0.159
	c-1.29-0.522-1.308-1.409-1.255-1.765c0.014-0.095,0.019-0.194-0.046-0.271l-0.08-0.071h-0.08c-0.065,0-0.133,0.027-0.224,0.091
	c-0.373,0.262-0.731,0.389-1.095,0.389c-0.2,0-0.405-0.04-0.611-0.119c-1.698-0.661-1.564-2.264-1.481-2.746
	c0.012-0.098-0.012-0.174-0.074-0.224l-0.12-0.099l-0.112,0.107c-0.331,0.319-0.764,0.494-1.219,0.494
	c-0.973-0.001-1.765-0.791-1.764-1.764c0.001-0.973,0.793-1.763,1.766-1.762c0.879,0,1.627,0.661,1.739,1.539l0.061,0.474
	l0.26-0.401c0.029-0.047,0.742-1.124,2.052-1.123c0.249,0,0.507,0.04,0.766,0.12c1.045,0.318,1.222,1.266,1.249,1.66
	c0.019,0.23,0.182,0.241,0.214,0.241c0.09,0,0.157-0.057,0.204-0.107c0.197-0.206,0.626-0.548,1.298-0.548
	c0.308,0.001,0.635,0.074,0.972,0.219c1.66,0.712,0.907,2.821,0.898,2.844c-0.143,0.35-0.149,0.504-0.015,0.593l0.066,0.031h0.048
	c0.075,0,0.168-0.032,0.321-0.085c0.226-0.078,0.567-0.196,0.886-0.195h0.001c1.25,0.014,2.266,1.031,2.266,2.266
	C30.982,29.904,29.965,30.918,28.717,30.918L28.717,30.918z M46.304,20.752c-2.741-2.392-9.076-7.9-10.793-9.188
	c-0.98-0.737-1.648-1.127-2.236-1.302c-0.263-0.079-0.628-0.17-1.098-0.171c-0.436,0-0.905,0.079-1.395,0.234
	c-1.109,0.351-2.213,1.229-3.282,2.078l-0.055,0.043c-0.995,0.791-2.024,1.61-2.802,1.784c-0.34,0.077-0.689,0.116-1.038,0.116
	c-0.872-0.001-1.656-0.253-1.949-0.627c-0.048-0.062-0.017-0.162,0.096-0.307l0.015-0.019l2.411-2.599
	c1.889-1.889,3.673-3.672,7.779-3.766c0.067-0.002,0.137-0.003,0.205-0.003c2.556,0.002,5.112,1.146,5.398,1.278
	c2.397,1.169,4.87,1.763,7.358,1.765c2.592,0.001,5.266-0.641,8.077-1.935c-0.314-0.264-0.641-0.521-0.977-0.773
	c-2.47,1.071-4.823,1.612-7.094,1.611c-2.319-0.002-4.636-0.559-6.885-1.657c-0.119-0.056-2.941-1.387-5.877-1.388
	c-0.077,0-0.155,0.001-0.231,0.002c-3.449,0.081-5.392,1.306-6.699,2.379c-1.271,0.031-2.367,0.337-3.343,0.61
	c-0.87,0.242-1.622,0.452-2.355,0.451c-0.302,0-0.846-0.028-0.895-0.03c-0.843-0.025-5.091-1.067-8.47-2.347
	c-0.345,0.244-0.677,0.496-1,0.753c3.53,1.447,7.825,2.567,9.181,2.654c0.377,0.025,0.779,0.067,1.181,0.068
	c0.897,0,1.792-0.251,2.658-0.494c0.512-0.144,1.076-0.3,1.67-0.414c-0.159,0.156-0.317,0.313-0.475,0.472l-2.45,2.65
	c-0.193,0.195-0.611,0.714-0.336,1.354c0.11,0.259,0.333,0.505,0.644,0.715c0.584,0.393,1.629,0.659,2.6,0.66
	c0.368,0,0.717-0.037,1.037-0.109c1.027-0.23,2.104-1.089,3.246-1.996c0.91-0.722,2.201-1.64,3.19-1.909
	c0.276-0.075,0.616-0.122,0.889-0.122c0.082,0.001,0.159,0.003,0.23,0.013c0.654,0.083,1.285,0.305,2.414,1.152
	c2.011,1.511,10.911,9.297,10.998,9.374c0.006,0.005,0.574,0.494,0.534,1.308c-0.021,0.453-0.273,0.857-0.711,1.136
	c-0.38,0.241-0.772,0.364-1.168,0.364c-0.595-0.001-1.004-0.28-1.031-0.299c-0.033-0.027-3.082-2.823-4.203-3.762
	c-0.179-0.148-0.353-0.281-0.528-0.281c-0.094-0.001-0.177,0.04-0.233,0.11c-0.177,0.218,0.021,0.519,0.254,0.717l3.562,3.58
	c0.005,0.004,0.444,0.415,0.492,0.965c0.028,0.593-0.256,1.09-0.845,1.477c-0.42,0.277-0.846,0.418-1.263,0.418
	c-0.547,0-0.931-0.249-1.016-0.308l-0.511-0.504c-0.934-0.919-1.898-1.869-2.604-2.458c-0.172-0.143-0.356-0.275-0.531-0.275
	c-0.087,0-0.165,0.032-0.224,0.095c-0.081,0.089-0.137,0.251,0.064,0.517c0.083,0.109,0.18,0.2,0.18,0.2l2.6,2.92
	c0.021,0.026,0.536,0.637,0.058,1.245l-0.092,0.117c-0.078,0.086-0.162,0.165-0.242,0.233c-0.443,0.364-1.036,0.403-1.27,0.403
	c-0.125,0-0.246-0.011-0.351-0.03c-0.256-0.046-0.429-0.117-0.512-0.216l-0.031-0.033c-0.142-0.147-1.452-1.484-2.536-2.389
	c-0.143-0.12-0.321-0.271-0.505-0.271c-0.091,0-0.172,0.036-0.235,0.105c-0.214,0.235,0.107,0.586,0.244,0.715l2.217,2.445
	c-0.002,0.021-0.03,0.072-0.084,0.149c-0.079,0.11-0.348,0.379-1.152,0.48c-0.097,0.013-0.196,0.018-0.294,0.018
	c-0.83,0-1.714-0.402-2.17-0.644c0.207-0.438,0.315-0.921,0.315-1.405c0.001-1.825-1.481-3.309-3.305-3.311
	c-0.039,0-0.08,0.001-0.119,0.003c0.06-0.833-0.058-2.411-1.677-3.105c-0.466-0.201-0.931-0.304-1.383-0.304
	c-0.353,0-0.694,0.06-1.013,0.183c-0.336-0.652-0.892-1.127-1.619-1.374c-0.401-0.139-0.801-0.209-1.187-0.209
	c-0.674,0-1.295,0.198-1.848,0.592c-0.53-0.66-1.332-1.05-2.175-1.05c-0.738,0-1.449,0.296-1.975,0.817
	c-0.69-0.527-3.427-2.266-10.754-3.93c-0.355-0.08-1.169-0.313-1.668-0.46c-0.083,0.397-0.146,0.798-0.188,1.202
	c0,0,1.351,0.323,1.617,0.383c7.485,1.662,9.957,3.391,10.375,3.717c-0.142,0.34-0.215,0.707-0.216,1.076
	c-0.001,1.546,1.257,2.805,2.804,2.806c0.173,0,0.345-0.015,0.514-0.046c0.233,1.138,0.978,2.001,2.115,2.443
	c0.333,0.128,0.669,0.194,0.999,0.194c0.214,0,0.428-0.026,0.639-0.08c0.21,0.534,0.683,1.199,1.74,1.628
	c0.371,0.149,0.742,0.227,1.102,0.227c0.294,0,0.582-0.052,0.856-0.153c0.507,1.234,1.713,2.051,3.056,2.051
	c0.891,0.001,1.746-0.362,2.37-1.004c0.534,0.297,1.661,0.834,2.799,0.835c0.148,0,0.286-0.011,0.424-0.027
	c1.131-0.143,1.657-0.585,1.899-0.929c0.044-0.06,0.083-0.124,0.117-0.19c0.267,0.077,0.56,0.139,0.897,0.14
	c0.618,0,1.211-0.211,1.81-0.647c0.589-0.424,1.007-1.034,1.067-1.552c0.001-0.007,0.002-0.015,0.003-0.022
	c0.198,0.041,0.402,0.062,0.605,0.062c0.636,0,1.261-0.198,1.859-0.59c1.153-0.756,1.353-1.743,1.334-2.389
	c0.201,0.042,0.408,0.064,0.613,0.064c0.597,0,1.183-0.179,1.742-0.536c0.715-0.456,1.145-1.156,1.21-1.97
	c0.045-0.553-0.092-1.111-0.384-1.591c1.932-0.832,6.347-2.443,11.545-3.614c-0.031-0.403-0.089-0.801-0.162-1.198
	C52.173,18.197,47.48,20.229,46.304,20.752L46.304,20.752z"/>
<g>
	<g>
		<path class="st0" d="M160.907,5.784c-1.043-1.307-2.626-1.96-4.752-1.96c-2.123,0-3.707,0.653-4.749,1.96
			c-1.044,1.306-1.566,2.851-1.566,4.632c0,1.814,0.522,3.363,1.566,4.654c1.043,1.286,2.627,1.931,4.749,1.931
			c2.125,0,3.709-0.645,4.752-1.931c1.044-1.29,1.565-2.84,1.565-4.654C162.472,8.634,161.951,7.09,160.907,5.784z M158.322,13.282
			c-0.506,0.672-1.23,1.008-2.177,1.008c-0.945,0-1.673-0.336-2.183-1.008c-0.511-0.671-0.765-1.627-0.765-2.866
			c0-1.237,0.254-2.19,0.765-2.858c0.51-0.668,1.238-1.002,2.183-1.002c0.947,0,1.671,0.334,2.177,1.002
			c0.505,0.668,0.76,1.622,0.76,2.858C159.082,11.654,158.828,12.61,158.322,13.282z M134.245,4.69
			c-1.058-0.536-2.269-0.807-3.631-0.807c-2.095,0-3.573,0.547-4.433,1.638c-0.541,0.699-0.845,1.589-0.916,2.674h3.129
			c0.077-0.478,0.231-0.857,0.462-1.137c0.323-0.379,0.871-0.568,1.647-0.568c0.693,0,1.217,0.095,1.576,0.291
			c0.356,0.193,0.536,0.544,0.536,1.051c0,0.418-0.232,0.724-0.7,0.922c-0.26,0.114-0.692,0.209-1.297,0.284l-1.109,0.137
			c-1.26,0.159-2.217,0.425-2.865,0.797c-1.185,0.683-1.777,1.785-1.777,3.31c0,1.175,0.366,2.083,1.104,2.724
			c0.734,0.641,1.67,0.91,2.798,0.962c7.077,0.316,6.997-3.729,7.062-4.571V7.74C135.833,6.247,135.303,5.229,134.245,4.69z
			 M132.602,11.756c-0.022,1.085-0.333,1.832-0.929,2.241c-0.597,0.41-1.249,0.615-1.956,0.615c-0.448,0-0.827-0.125-1.139-0.371
			c-0.311-0.247-0.466-0.647-0.466-1.201c0-0.621,0.254-1.08,0.764-1.376c0.304-0.174,0.799-0.323,1.491-0.442l0.739-0.137
			c0.368-0.07,0.657-0.144,0.869-0.224c0.214-0.078,0.42-0.181,0.628-0.311V11.756z M118.109,6.657c0.809,0,1.403,0.25,1.787,0.749
			c0.263,0.37,0.428,0.786,0.492,1.248h3.491c-0.192-1.761-0.808-2.991-1.848-3.687c-1.044-0.693-2.38-1.043-4.015-1.043
			c-1.923,0-3.433,0.591-4.523,1.769c-1.093,1.18-1.64,2.83-1.64,4.95c0,1.878,0.495,3.408,1.484,4.588
			c0.989,1.179,2.533,1.769,4.63,1.769c2.1,0,3.684-0.707,4.752-2.121c0.67-0.876,1.045-1.807,1.124-2.79h-3.479
			c-0.07,0.65-0.274,1.18-0.61,1.588c-0.336,0.407-0.901,0.612-1.701,0.612c-1.127,0-1.894-0.513-2.302-1.543
			c-0.223-0.549-0.336-1.277-0.336-2.182c0-0.949,0.113-1.711,0.336-2.286C116.173,7.198,116.96,6.657,118.109,6.657z
			 M110.916,3.924c-7.171,0-6.746,6.349-6.746,6.349v6.449h3.254v-6.049c0-0.991,0.126-1.725,0.373-2.203
			c0.447-0.846,1.319-1.27,2.62-1.27c0.098,0,0.227,0.005,0.386,0.013c0.158,0.008,0.338,0.022,0.545,0.046V3.948
			c-0.145-0.01-0.238-0.014-0.279-0.018C111.028,3.927,110.976,3.924,110.916,3.924z M101.56,6.33
			c-0.561-0.833-1.276-1.442-2.137-1.83c-0.861-0.384-1.829-0.577-2.905-0.577c-1.813,0-3.285,0.571-4.421,1.713
			c-1.135,1.144-1.705,2.784-1.705,4.926c0,2.286,0.63,3.935,1.888,4.949c1.257,1.013,2.71,1.521,4.354,1.521
			c1.992,0,3.543-0.601,4.65-1.804c0.597-0.633,0.971-1.259,1.129-1.876h-3.451c-0.137,0.195-0.284,0.362-0.445,0.492
			c-0.46,0.378-1.084,0.493-1.819,0.493c-0.696,0-1.24-0.105-1.732-0.416c-0.812-0.499-1.269-1.343-1.317-2.583h9.003
			c0.013-1.067-0.022-1.884-0.108-2.453C102.394,7.918,102.065,7.064,101.56,6.33z M93.728,9.206
			c0.116-0.805,0.404-1.441,0.86-1.913c0.458-0.47,1.101-0.706,1.93-0.706c0.763,0,1.401,0.221,1.918,0.666
			c0.514,0.444,0.801,1.096,0.86,1.952H93.728z M83.928,3.881c-1.511,0-2.817,0.662-3.695,1.724
			c-0.835-1.061-2.118-1.724-3.696-1.724c-3.179,0-5.228,2.337-5.228,5.427v7.413h2.974V9.236c0-1.367,0.924-2.31,2.254-2.31
			c1.959,0,2.162,1.627,2.162,2.31v7.485h2.975V9.236c0-1.367,0.946-2.31,2.253-2.31c1.961,0,2.186,1.627,2.186,2.31v7.485h2.972
			V9.307C89.086,6.123,87.173,3.881,83.928,3.881z M145.594,2.298l-0.003,3.486c-0.363-0.582-0.835-1.038-1.417-1.366
			c-0.581-0.329-1.246-0.494-1.996-0.494c-1.625,0-2.921,0.605-3.894,1.815c-0.973,1.21-1.456,2.954-1.456,5.063
			c0,1.83,0.493,3.33,1.48,4.498c0.986,1.167,2.921,1.679,4.639,1.679c5.991,0,5.922-5.138,5.922-5.138l0.002-11.825
			C148.872,0.015,145.594-0.335,145.594,2.298z M144.969,13.309c-0.475,0.681-1.173,1.021-2.086,1.021
			c-0.916,0-1.598-0.343-2.047-1.027c-0.449-0.685-0.674-1.682-0.674-2.823c0-1.059,0.219-1.945,0.662-2.66
			c0.441-0.714,1.134-1.072,2.08-1.072c0.62,0,1.164,0.197,1.634,0.59c0.763,0.65,1.145,1.818,1.145,3.328
			C145.684,11.747,145.445,12.628,144.969,13.309z"/>
	</g>
</g>
<path class="st1" d="M97.973,21.951c-2.244,0-3.443,0.586-4.247,1.2c-1.217,0.928-1.956,2.302-1.956,4.496v11.281h1.621
	c0.446,0,0.828-0.157,1.145-0.471c0.32-0.313,0.479-0.69,0.479-1.13v-4.216c0.382,0.66,0.888,1.146,1.527,1.461
	c0.604,0.28,1.304,0.422,2.099,0.422c1.495,0,2.722-0.594,3.676-1.789c0.953-1.228,1.431-2.824,1.431-4.804
	c0-1.913-0.449-3.379-1.525-4.693C101.265,22.539,99.489,21.951,97.973,21.951z M99.739,31.228c-0.476,0.66-1.13,0.989-1.956,0.989
	c-0.891,0-1.576-0.329-2.052-0.989c-0.478-0.597-0.716-1.488-0.716-2.685c0-1.284,0.222-2.228,0.666-2.826
	c0.479-0.657,1.148-0.99,2.006-0.99c0.891,0,1.575,0.333,2.052,0.99c0.479,0.661,0.717,1.601,0.717,2.826
	C100.456,29.676,100.218,30.568,99.739,31.228z M126.525,23.133c-1.104-0.836-2.232-1.275-4.172-1.224
	c-1.968,0.054-3.399,0.605-4.29,1.812c-0.889,1.207-1.335,2.785-1.335,4.727c0,1.663,0.336,3.004,1.006,4.027
	c0.672,1.018,1.478,1.717,2.416,2.092c0.935,0.377,1.881,0.455,2.834,0.237c0.953-0.221,1.712-0.766,2.274-1.647v0.797
	c-0.064,1.005-0.305,1.759-0.725,2.261c-0.425,0.5-0.894,0.807-1.409,0.916c-0.512,0.11-1.031,0.049-1.543-0.189
	c-0.518-0.233-0.9-0.571-1.15-1.009h-3.421c0.887,2.664,2.478,3.839,5.343,4.047c4.625,0.332,6.098-3.582,6.093-5.694v-6.637
	C128.446,25.455,127.732,24.049,126.525,23.133z M125.165,29.651c-0.125,0.735-0.328,1.279-0.609,1.621
	c-0.594,0.814-1.517,1.104-2.765,0.873c-1.25-0.237-1.876-1.436-1.876-3.6c0-1.005,0.186-1.898,0.563-2.684
	c0.376-0.781,1.093-1.175,2.156-1.175c0.781,0,1.376,0.283,1.781,0.847c0.407,0.565,0.666,1.208,0.774,1.931
	C125.299,28.184,125.289,28.914,125.165,29.651z M113.951,22.804C112.895,22.27,111.687,22,110.329,22
	c-2.092,0-3.565,0.545-4.424,1.633c-0.539,0.696-0.843,1.585-0.913,2.668h3.124c0.076-0.478,0.228-0.856,0.459-1.135
	c0.322-0.378,0.87-0.567,1.643-0.567c0.693,0,1.216,0.095,1.572,0.29c0.356,0.193,0.535,0.543,0.535,1.05
	c0,0.416-0.232,0.723-0.697,0.92c-0.259,0.113-0.69,0.208-1.294,0.284l-1.107,0.135c-1.257,0.159-2.212,0.426-2.857,0.796
	c-1.184,0.681-1.773,1.781-1.773,3.301c0,1.172,0.366,2.079,1.102,2.718c0.732,0.639,1.665,0.909,2.792,0.96
	c7.059,0.316,6.98-3.721,7.044-4.56v-4.646C115.534,24.356,115.007,23.343,113.951,22.804z M112.31,29.853
	c-0.02,1.083-0.331,1.827-0.925,2.236c-0.595,0.408-1.245,0.613-1.952,0.613c-0.447,0-0.825-0.124-1.136-0.369
	c-0.312-0.246-0.468-0.646-0.468-1.198c0-0.619,0.255-1.077,0.764-1.372c0.303-0.173,0.797-0.322,1.487-0.44l0.737-0.137
	c0.368-0.07,0.657-0.143,0.865-0.223c0.215-0.078,0.421-0.181,0.627-0.311V29.853z M140.726,23.827
	c-1.042-1.305-2.622-1.956-4.743-1.956c-2.116,0-3.697,0.651-4.738,1.956c-1.042,1.303-1.562,2.843-1.562,4.622
	c0,1.809,0.521,3.355,1.562,4.642c1.041,1.282,2.622,1.926,4.738,1.926c2.121,0,3.701-0.644,4.743-1.926
	c1.04-1.287,1.559-2.833,1.559-4.642C142.285,26.67,141.767,25.131,140.726,23.827z M138.146,31.306
	c-0.504,0.671-1.228,1.006-2.171,1.006c-0.943,0-1.67-0.335-2.178-1.006c-0.511-0.669-0.764-1.622-0.764-2.857
	c0-1.234,0.253-2.185,0.764-2.851c0.507-0.668,1.234-0.999,2.178-0.999c0.943,0,1.667,0.332,2.171,0.999
	c0.506,0.666,0.758,1.617,0.758,2.851C138.904,29.684,138.652,30.638,138.146,31.306z"/>
</svg>
