<?xml version="1.0" encoding="utf-8"?>
<!-- Generator: Adobe Illustrator 23.0.5, SVG Export Plug-In . SVG Version: 6.00 Build 0)  -->
<svg version="1.1" id="Capa_1" xmlns="http://www.w3.org/2000/svg" xmlns:xlink="http://www.w3.org/1999/xlink" x="0px" y="0px"
	 viewBox="0 0 40 40" style="enable-background:new 0 0 40 40;" xml:space="preserve">
<style type="text/css">
	.st0{fill-rule:evenodd;clip-rule:evenodd;fill:#1B77F2;}
</style>
<g>
	<path class="st0" d="M3.054,0h33.893C38.626,0,40,1.374,40,3.054v33.893C40,38.626,38.626,40,36.946,40h-9.154l-0.016-14.883
		l4.885-0.03l1.272-6.239l-6.216-0.023c-0.257-8.021,0.063-7.461,6.17-7.461c0.105-0.632,0.128-4.49-0.03-4.991
		c-3.897-0.418-7.29-1.219-10.205,1.729c-2.859,2.892-1.976,6.078-2.184,10.712l-6.213,0.02v6.17l6.186,0.049L21.477,40H3.054
		C1.374,40,0,38.626,0,36.946V3.054C0,1.374,1.374,0,3.054,0L3.054,0z"/>
</g>
</svg>
