<?xml version="1.0" encoding="utf-8"?>
<!-- Generator: Adobe Illustrator 23.0.5, SVG Export Plug-In . SVG Version: 6.00 Build 0)  -->
<svg version="1.1" id="Capa_1" xmlns="http://www.w3.org/2000/svg" xmlns:xlink="http://www.w3.org/1999/xlink" x="0px" y="0px"
	 viewBox="0 0 52 48" style="enable-background:new 0 0 52 48;" xml:space="preserve">
<style type="text/css">
	.st0{fill:#D729FF;}
	.st1{fill:#2CCAFF;}
	.st2{fill:#FFFFFF;}
</style>
<g>
	<path class="st0" d="M44,0.104v4h2v-4H44z M44,31.896h2v-4h-2V31.896z M36,35.896h2v-4h-2V35.896z M40,8.104h2v-4h-2V8.104z
		 M36,12.104h2v-4h-2V12.104z M32,16.104h2v-4h-2V16.104z M12,43.896h2v-4h-2V43.896z M4,16.104h2v-4H4V16.104z M4,35.896h2v-4H4
		V35.896z M0,12.104h2v-12H0V12.104z M16,47.896h2v-4h-2V47.896z M0,31.896h2v-4H0V31.896z M8,39.896h2v-4H8V39.896z"/>
	<path class="st1" d="M18,16.104h2v-4h-2V16.104z M10,8.104h2v-4h-2V8.104z M14,35.896h2v-4h-2V35.896z M46,16.104h2v-4h-2V16.104z
		 M34,47.896h2v-4h-2V47.896z M38,43.896h2v-4h-2V43.896z M6,31.896h2v-4H6V31.896z M46,35.896h2v-4h-2V35.896z M14,12.104h2v-4h-2
		V12.104z M6,4.104h2v-4H6V4.104z M50,0.104v12h2v-12H50z M50,31.896h2v-4h-2V31.896z M42,39.896h2v-4h-2V39.896z"/>
	<path class="st2" d="M6,16.104h12v-4h-4v-4h-4v-4H6v-4H2v12h4V16.104z M46,0.104v4h-4v4h-4v4h-4v4h12v-4h4v-12H46z M2,27.896v4h4
		v-4H2z M38,35.896H14v-4H6v4h4v4h4v4h4v4h16v-4h4v-4h4v-4h4v-4h-8V35.896z M46,31.896h4v-4h-4V31.896z"/>
</g>
</svg>
