<?xml version="1.0" encoding="utf-8"?>
<!-- Generator: Adobe Illustrator 23.0.5, SVG Export Plug-In . SVG Version: 6.00 Build 0)  -->
<svg version="1.1" id="Capa_1" xmlns="http://www.w3.org/2000/svg" xmlns:xlink="http://www.w3.org/1999/xlink" x="0px" y="0px"
	  viewBox="0 0 52 66">
<style type="text/css">
	.st0{fill:#D729FF;}
	.st1{fill:#2CCAFF;}
	.st2{fill:#FFFFFF;}
</style>
<g>
	<path class="st0" d="M44,4h2V0h-2V4z M33.28,55.6h1.04v-2.08h-1.04V55.6z M44,31.793h2v-4h-2V31.793z M36,35.793h2v-4h-2V35.793z
		 M42,4h-2v4h2V4z M36,12h2V8h-2V12z M6.24,63.92h1.04v-2.08H6.24V63.92z M34,12h-2v4h2V12z M12,43.793h2v-4h-2V43.793z M4,16h2v-4
		H4V16z M2.08,55.6h1.04v-2.08H2.08V55.6z M4.16,61.84H5.2v-2.08H4.16V61.84z M4,35.793h2v-4H4V35.793z M47.84,53.52v2.08v2.08v2.08
		h1.04v-6.24H47.84z M24.96,57.68v2.08v2.08v2.08V66H26V55.6h-1.04V57.68z M22.88,55.6h1.04v-2.08h-1.04V55.6z M31.2,57.68v2.08
		v2.08v2.08h1.04V55.6H31.2V57.68z M0,4v4v4h2V0H0V4z M18.72,55.6v2.08v2.08v2.08v2.08V66h1.04V53.52h-1.04V55.6z M33.28,66h1.04
		v-2.08h-1.04V66z M41.6,55.6v2.08v2.08v2.08v2.08V66h1.04V53.52H41.6V55.6z M47.84,63.92V66h1.04v-4.16h-1.04V63.92z M16,47.793h2
		v-4h-2V47.793z M2.08,66h1.04v-2.08H2.08V66z M0,31.793h2v-4H0V31.793z M0,57.68v2.08v2.08v2.08h1.04V55.6H0V57.68z M8,39.793h2v-4
		H8V39.793z M10.4,55.6v2.08v2.08v2.08v2.08V66h1.04V53.52H10.4V55.6z"/>
	<path class="st1" d="M13.52,63.92h1.04v-10.4h-1.04V63.92z M7.28,61.84h1.04v-2.08H7.28V61.84z M3.12,63.92h1.04V55.6H3.12V63.92z
		 M18,16h2v-4h-2V16z M10,8h2V4h-2V8z M14,35.793h2v-4h-2V35.793z M46,16h2v-4h-2V16z M34.32,63.92h1.04V55.6h-1.04V63.92z
		 M34,47.793h2v-4h-2V47.793z M38,43.793h2v-4h-2V43.793z M8,27.793H6v4h2V27.793z M46,35.793h2v-4h-2V35.793z M44.72,59.76h1.04
		v-6.24h-1.04V59.76z M14,12h2V8h-2V12z M44.72,66h1.04v-4.16h-1.04V66z M8,0H6v4h2V0z M40.56,55.6h1.04v-2.08h-1.04V55.6z
		 M40.56,66h1.04v-2.08h-1.04V66z M50.96,66H52V53.52h-1.04V66z M50,0v12h2V0H50z M50,31.793h2v-4h-2V31.793z M42,39.793h2v-4h-2
		V39.793z M9.36,55.6h1.04v-2.08H9.36V55.6z M17.68,66h1.04v-2.08h-1.04V66z M30.16,55.6h1.04v-2.08h-1.04V55.6z M9.36,66h1.04
		v-4.16H9.36V66z M21.84,66h1.04V53.52h-1.04V66z M28.08,66h1.04V55.6h-1.04V66z"/>
	<path class="st2" d="M5.2,59.76v2.08h2.08v-2.08H5.2z M13.52,53.52h-2.08V66h6.24v-2.08h-4.16V53.52z M19.76,66h2.08V53.52h-2.08
		V66z M3.12,55.6h6.24v-2.08H3.12V55.6z M1.04,63.92h2.08V55.6H1.04V63.92z M9.36,66v-4.16H7.28v2.08H3.12V66H9.36z M23.92,55.6H26
		V66h2.08V55.6h2.08v-2.08h-6.24V55.6z M48.88,53.52v6.24h-4.16v-6.24h-2.08V66h2.08v-4.16h4.16V66h2.08V53.52H48.88z M34.32,55.6
		h6.24v-2.08h-6.24V55.6z M32.24,63.92h2.08V55.6h-2.08V63.92z M40.56,66v-2.08h-6.24V66H40.56z M6,16h12v-4h-4V8h-4V4H6V0H2v12h4
		V16z M46,12h4V0h-4v4h-4v4h-4v4h-4v4h12V12z M2,27.793v4h4v-4H2z M46,31.793h-8v4H14v-4H6v4h4v4h4v4h4v4h16v-4h4v-4h4v-4h4V31.793z
		 M50,27.793h-4v4h4V27.793z"/>
</g>
</svg>
