<?xml version="1.0" encoding="utf-8"?>
<!-- Generator: Adobe Illustrator 23.0.5, SVG Export Plug-In . SVG Version: 6.00 Build 0)  -->
<svg version="1.1" id="Capa_1" xmlns="http://www.w3.org/2000/svg" xmlns:xlink="http://www.w3.org/1999/xlink" x="0px" y="0px"
	 viewBox="0 0 48 48" style="enable-background:new 0 0 48 48;" xml:space="preserve">
<style type="text/css">
	.st0{fill:#B4B4B4;}
</style>
<path class="st0" d="M0.012,27.894v3.998H4.01v-3.998H0.012z M43.99,31.892h3.998v-3.998H43.99V31.892z M4.01,16.107h11.994v-3.998
	h-3.998V8.112H8.008V4.113H4.01V0.115H0.012v11.994H4.01V16.107z M35.994,35.891H12.006v-3.998H4.01v3.998h3.998v3.998h3.998v3.998
	h3.998v3.998h15.992v-3.998h3.998v-3.998h3.998v-3.998h3.998v-3.998h-7.996V35.891z M43.99,0.115v3.998h-3.998v3.998h-3.998v3.998
	h-3.998v3.998H43.99v-3.998h3.998V0.115H43.99z"/>
</svg>
