<?xml version="1.0" encoding="utf-8"?>
<!-- Generator: Adobe Illustrator 23.0.5, SVG Export Plug-In . SVG Version: 6.00 Build 0)  -->
<svg version="1.1" id="Capa_1" xmlns="http://www.w3.org/2000/svg" xmlns:xlink="http://www.w3.org/1999/xlink" x="0px" y="0px"
	 viewBox="0 0 165 40" style="enable-background:new 0 0 165 40;" xml:space="preserve">
<style type="text/css">
	.st0{fill:#A7A7A7;}
</style>
<path class="st0" d="M30.808,0C14.849,0,1.912,8.488,1.912,18.901c0,0.269-0.003,1.011-0.003,1.107
	C1.909,31.054,13.216,40,30.805,40c17.696,0,28.9-8.944,28.9-19.991v-1.108C59.705,8.488,46.768,0,30.808,0z M30.814,1.116
	c8.471,0,16.051,2.428,21.148,6.252c-2.464,1.065-4.811,1.604-7.076,1.604C42.566,8.97,40.25,8.413,38,7.316
	c-0.118-0.057-2.94-1.387-5.876-1.389c-0.077,0-0.155,0.001-0.232,0.003c-3.45,0.081-5.392,1.306-6.699,2.379
	c-1.271,0.031-2.367,0.337-3.343,0.61C20.98,9.16,20.228,9.37,19.495,9.37c-0.302,0-0.846-0.028-0.894-0.03
	c-0.841-0.025-5.068-1.062-8.442-2.336C15.245,3.389,22.613,1.116,30.814,1.116z M9.159,7.758c3.524,1.441,7.8,2.555,9.153,2.643
	c0.377,0.024,0.779,0.067,1.181,0.068c0.897,0,1.792-0.251,2.658-0.494c0.512-0.143,1.077-0.3,1.67-0.413
	c-0.158,0.156-0.316,0.314-0.475,0.472l-2.45,2.651c-0.193,0.195-0.612,0.714-0.335,1.354c0.109,0.258,0.332,0.505,0.644,0.715
	c0.584,0.393,1.63,0.659,2.601,0.66c0.368,0.001,0.717-0.037,1.038-0.108c1.027-0.23,2.104-1.089,3.246-1.996
	c0.909-0.723,2.202-1.64,3.19-1.909c0.276-0.075,0.616-0.122,0.889-0.122c0.082,0.001,0.159,0.003,0.23,0.014
	c0.653,0.083,1.286,0.305,2.413,1.152c2.011,1.511,10.911,9.297,10.998,9.373c0.006,0.005,0.574,0.495,0.534,1.309
	c-0.021,0.453-0.273,0.857-0.71,1.136c-0.38,0.241-0.772,0.364-1.168,0.364c-0.595-0.001-1.005-0.279-1.031-0.298
	c-0.032-0.027-3.082-2.823-4.204-3.762c-0.179-0.148-0.352-0.282-0.527-0.282c-0.094,0-0.177,0.04-0.233,0.11
	c-0.176,0.218,0.021,0.519,0.254,0.717l3.562,3.581c0.005,0.003,0.444,0.416,0.492,0.964c0.028,0.594-0.256,1.09-0.846,1.477
	c-0.42,0.277-0.846,0.417-1.263,0.417c-0.548,0-0.931-0.249-1.016-0.308l-0.511-0.503c-0.933-0.919-1.898-1.869-2.604-2.458
	c-0.172-0.143-0.355-0.275-0.531-0.275c-0.087,0-0.164,0.033-0.224,0.095c-0.08,0.089-0.136,0.25,0.064,0.517
	c0.082,0.11,0.18,0.2,0.18,0.2l2.599,2.92c0.021,0.026,0.535,0.637,0.058,1.245l-0.091,0.117c-0.078,0.086-0.162,0.165-0.242,0.233
	c-0.443,0.364-1.035,0.402-1.27,0.402c-0.125,0-0.247-0.011-0.352-0.03c-0.256-0.046-0.429-0.117-0.512-0.216l-0.032-0.033
	c-0.142-0.147-1.452-1.484-2.536-2.389c-0.143-0.12-0.321-0.271-0.505-0.271c-0.091,0-0.172,0.036-0.235,0.105
	c-0.215,0.235,0.108,0.586,0.243,0.715l2.217,2.445c-0.003,0.021-0.03,0.072-0.084,0.149c-0.079,0.109-0.348,0.379-1.152,0.48
	c-0.097,0.013-0.196,0.018-0.294,0.018c-0.829,0-1.714-0.402-2.17-0.644c0.207-0.439,0.315-0.921,0.315-1.405
	c0-1.825-1.481-3.309-3.305-3.311c-0.039,0-0.081,0.001-0.12,0.003c0.06-0.833-0.058-2.411-1.677-3.105
	c-0.467-0.202-0.931-0.304-1.383-0.304c-0.354,0-0.694,0.061-1.014,0.183c-0.336-0.652-0.893-1.127-1.62-1.374
	c-0.401-0.139-0.801-0.21-1.187-0.21c-0.674,0-1.294,0.199-1.848,0.592c-0.531-0.66-1.332-1.051-2.175-1.051
	c-0.738,0-1.449,0.295-1.975,0.817c-0.69-0.527-3.427-2.266-10.754-3.929c-0.35-0.08-1.144-0.307-1.645-0.453
	C3.97,13.226,6.06,10.223,9.159,7.758z M22.75,26.831l-0.079-0.072h-0.081c-0.066,0-0.133,0.027-0.224,0.091
	c-0.373,0.262-0.731,0.389-1.095,0.389c-0.2,0-0.406-0.04-0.612-0.119c-1.698-0.661-1.564-2.264-1.481-2.747
	c0.012-0.098-0.012-0.174-0.074-0.224l-0.12-0.099l-0.112,0.107c-0.331,0.319-0.764,0.494-1.219,0.494
	c-0.973-0.001-1.765-0.792-1.764-1.765c0-0.973,0.793-1.763,1.766-1.762c0.879,0,1.627,0.661,1.739,1.539l0.061,0.474l0.26-0.401
	c0.029-0.047,0.742-1.124,2.052-1.123c0.249,0,0.506,0.04,0.766,0.12c1.045,0.319,1.221,1.266,1.248,1.66
	c0.018,0.23,0.182,0.241,0.214,0.241c0.09,0,0.156-0.058,0.204-0.107c0.197-0.206,0.626-0.548,1.298-0.548
	c0.307,0.001,0.635,0.074,0.972,0.22c1.661,0.712,0.907,2.821,0.898,2.843c-0.142,0.35-0.148,0.504-0.014,0.593l0.065,0.031h0.048
	c0.075,0,0.169-0.033,0.322-0.085c0.226-0.078,0.567-0.195,0.886-0.195h0.001c1.249,0.014,2.266,1.031,2.265,2.266
	c-0.001,1.248-1.018,2.262-2.266,2.262c-1.222-0.001-2.215-0.95-2.26-2.16c-0.003-0.103-0.013-0.379-0.247-0.379
	c-0.096,0-0.179,0.057-0.275,0.144c-0.268,0.249-0.61,0.503-1.11,0.503c-0.226,0-0.472-0.053-0.731-0.159
	c-1.29-0.522-1.308-1.409-1.255-1.765C22.811,27.007,22.816,26.907,22.75,26.831z M58.599,18.891
	c0,9.816-12.44,17.775-27.785,17.775S3.029,28.707,3.029,18.891c0-0.395,0.027-0.786,0.067-1.174
	c0.123,0.029,1.341,0.321,1.593,0.378c7.485,1.662,9.958,3.391,10.376,3.717c-0.142,0.34-0.215,0.707-0.216,1.076
	c-0.001,1.546,1.256,2.806,2.803,2.807c0.173,0,0.346-0.015,0.514-0.046c0.233,1.137,0.978,2,2.116,2.443
	c0.332,0.128,0.669,0.193,0.999,0.193c0.214,0,0.429-0.026,0.639-0.08c0.21,0.533,0.683,1.199,1.74,1.628
	c0.371,0.149,0.741,0.227,1.102,0.227c0.294,0,0.582-0.052,0.856-0.153c0.507,1.234,1.712,2.051,3.057,2.051
	c0.891,0.001,1.746-0.362,2.369-1.004c0.534,0.297,1.662,0.834,2.8,0.835c0.148,0,0.286-0.01,0.424-0.027
	c1.13-0.143,1.657-0.585,1.898-0.929c0.044-0.06,0.083-0.124,0.117-0.19c0.267,0.078,0.561,0.14,0.897,0.141
	c0.617,0,1.211-0.211,1.809-0.647c0.589-0.424,1.008-1.034,1.068-1.552c0.001-0.007,0.002-0.015,0.003-0.023
	c0.199,0.041,0.402,0.062,0.605,0.062c0.636,0,1.262-0.198,1.859-0.59c1.153-0.756,1.353-1.743,1.334-2.389
	c0.202,0.042,0.408,0.064,0.613,0.064c0.597,0,1.183-0.18,1.742-0.536c0.714-0.456,1.145-1.156,1.211-1.97
	c0.044-0.553-0.093-1.111-0.385-1.591c1.929-0.831,6.335-2.438,11.524-3.609C58.586,18.298,58.599,18.594,58.599,18.891z
	 M46.264,20.751c-2.741-2.392-9.077-7.9-10.793-9.187c-0.981-0.738-1.649-1.127-2.236-1.302c-0.264-0.08-0.629-0.17-1.099-0.171
	c-0.436,0-0.905,0.079-1.394,0.235c-1.109,0.351-2.214,1.229-3.282,2.078l-0.055,0.044c-0.995,0.791-2.024,1.61-2.803,1.783
	c-0.34,0.077-0.689,0.116-1.038,0.116c-0.872-0.001-1.655-0.253-1.949-0.627c-0.049-0.062-0.017-0.162,0.096-0.306l0.015-0.019
	l2.412-2.599c1.888-1.889,3.673-3.672,7.779-3.766c0.068-0.002,0.138-0.003,0.205-0.003c2.556,0.002,5.111,1.146,5.398,1.278
	c2.397,1.169,4.871,1.763,7.357,1.765c2.587,0,5.255-0.639,8.06-1.928c2.93,2.464,4.873,5.432,5.464,8.665
	C52.122,18.202,47.438,20.229,46.264,20.751z M161.527,6.249c-1.042-1.308-2.626-1.96-4.751-1.96c-2.122,0-3.706,0.653-4.749,1.96
	c-1.044,1.305-1.566,2.849-1.566,4.631c0,1.813,0.522,3.363,1.566,4.652c1.042,1.286,2.626,1.93,4.749,1.93
	c2.125,0,3.709-0.644,4.751-1.93c1.044-1.289,1.565-2.838,1.565-4.652C163.091,9.098,162.571,7.554,161.527,6.249z M158.943,13.745
	c-0.507,0.671-1.231,1.007-2.177,1.007c-0.944,0-1.672-0.336-2.182-1.007c-0.51-0.671-0.764-1.627-0.764-2.865
	c0-1.236,0.254-2.19,0.764-2.858c0.511-0.668,1.238-1.002,2.182-1.002c0.947,0,1.671,0.334,2.177,1.002
	c0.505,0.668,0.76,1.622,0.76,2.858C159.702,12.118,159.448,13.073,158.943,13.745z M136.456,12.859V8.204
	c0-1.493-0.529-2.509-1.586-3.048c-1.058-0.536-2.269-0.807-3.63-0.807c-2.095,0-3.572,0.547-4.433,1.637
	c-0.541,0.699-0.845,1.589-0.915,2.673h3.129c0.077-0.478,0.23-0.858,0.462-1.137c0.322-0.379,0.871-0.568,1.647-0.568
	c0.693,0,1.217,0.095,1.575,0.291c0.357,0.193,0.536,0.544,0.536,1.051c0,0.418-0.232,0.724-0.699,0.922
	c-0.26,0.113-0.692,0.208-1.296,0.284l-1.109,0.135c-1.259,0.16-2.216,0.427-2.864,0.798c-1.185,0.683-1.777,1.784-1.777,3.309
	c0,1.174,0.367,2.083,1.105,2.723c0.733,0.641,1.668,0.91,2.797,0.962C136.472,17.744,136.391,13.7,136.456,12.859z M129.202,14.704
	c-0.311-0.247-0.467-0.647-0.467-1.201c0-0.621,0.254-1.079,0.765-1.376c0.303-0.173,0.799-0.323,1.49-0.442l0.739-0.137
	c0.368-0.069,0.658-0.144,0.869-0.223c0.213-0.078,0.421-0.181,0.628-0.311v1.205c-0.021,1.084-0.332,1.831-0.929,2.241
	c-0.596,0.409-1.249,0.615-1.956,0.615C129.893,15.075,129.514,14.949,129.202,14.704z M118.592,17.462
	c2.098,0,3.683-0.707,4.751-2.12c0.67-0.876,1.045-1.806,1.124-2.789h-3.478c-0.071,0.649-0.274,1.179-0.611,1.587
	c-0.335,0.407-0.901,0.612-1.701,0.612c-1.126,0-1.894-0.513-2.3-1.543c-0.223-0.549-0.337-1.276-0.337-2.181
	c0-0.949,0.113-1.71,0.337-2.285c0.423-1.08,1.211-1.621,2.359-1.621c0.808,0,1.403,0.249,1.786,0.749
	c0.263,0.369,0.427,0.786,0.491,1.248h3.491c-0.192-1.761-0.808-2.99-1.848-3.687c-1.043-0.693-2.379-1.043-4.014-1.043
	c-1.923,0-3.433,0.591-4.523,1.769c-1.093,1.181-1.64,2.83-1.64,4.949c0,1.877,0.494,3.407,1.484,4.586
	C114.952,16.872,116.495,17.462,118.592,17.462z M108.052,17.183v-6.047c0-0.991,0.126-1.725,0.373-2.202
	c0.447-0.845,1.318-1.269,2.62-1.269c0.098,0,0.227,0.005,0.385,0.013c0.159,0.008,0.339,0.021,0.545,0.046V4.413
	c-0.145-0.009-0.238-0.014-0.277-0.018c-0.043-0.004-0.094-0.007-0.155-0.007c-7.169,0-6.745,6.348-6.745,6.348v6.447H108.052z
	 M92.912,15.973c1.256,1.013,2.709,1.521,4.353,1.521c1.992,0,3.543-0.601,4.65-1.803c0.596-0.632,0.97-1.258,1.128-1.876h-3.45
	c-0.136,0.195-0.284,0.362-0.445,0.492c-0.46,0.378-1.084,0.494-1.82,0.494c-0.695,0-1.238-0.105-1.732-0.416
	c-0.812-0.498-1.268-1.343-1.317-2.582h9.002c0.013-1.066-0.022-1.883-0.108-2.452c-0.15-0.968-0.479-1.822-0.984-2.555
	c-0.561-0.833-1.275-1.442-2.136-1.829c-0.862-0.384-1.83-0.578-2.906-0.578c-1.813,0-3.284,0.572-4.42,1.713
	c-1.135,1.144-1.704,2.785-1.704,4.924C91.025,13.311,91.654,14.959,92.912,15.973z M95.22,7.758c0.457-0.47,1.1-0.705,1.929-0.705
	c0.763,0,1.402,0.22,1.918,0.666c0.514,0.443,0.801,1.096,0.86,1.951h-5.568C94.475,8.866,94.764,8.229,95.22,7.758z M84.561,4.346
	c-1.511,0-2.817,0.662-3.694,1.724c-0.835-1.062-2.118-1.724-3.695-1.724c-3.177,0-5.227,2.337-5.227,5.425v7.411h2.973V9.7
	c0-1.367,0.924-2.31,2.253-2.31c1.959,0,2.162,1.626,2.162,2.31v7.482h2.975V9.7c0-1.367,0.946-2.31,2.253-2.31
	c1.96,0,2.186,1.626,2.186,2.31v7.482h2.972V9.771C89.718,6.587,87.805,4.346,84.561,4.346z M146.216,2.763l-0.003,3.485
	c-0.362-0.582-0.835-1.038-1.417-1.366c-0.581-0.328-1.245-0.494-1.996-0.494c-1.626,0-2.921,0.605-3.894,1.814
	c-0.972,1.211-1.456,2.954-1.456,5.062c0,1.829,0.493,3.329,1.479,4.497c0.987,1.167,2.921,1.678,4.639,1.678
	c5.99,0,5.921-5.137,5.921-5.137l0.003-11.822C149.494,0.482,146.216,0.131,146.216,2.763z M145.591,13.771
	c-0.475,0.68-1.173,1.021-2.085,1.021c-0.916,0-1.598-0.343-2.047-1.026c-0.449-0.684-0.674-1.681-0.674-2.822
	c0-1.059,0.22-1.945,0.663-2.659c0.441-0.714,1.134-1.072,2.08-1.072c0.62,0,1.164,0.196,1.633,0.589
	c0.763,0.651,1.145,1.817,1.145,3.328C146.306,12.21,146.067,13.091,145.591,13.771z M98.59,21.417
	c-2.254,0-3.456,0.588-4.264,1.204c-1.221,0.933-1.964,2.312-1.964,4.513v11.324h1.627c0.449,0,0.832-0.157,1.15-0.473
	c0.321-0.315,0.481-0.693,0.481-1.134v-4.232c0.383,0.663,0.892,1.151,1.532,1.467c0.607,0.283,1.309,0.424,2.107,0.424
	c1.502,0,2.732-0.597,3.69-1.796c0.957-1.232,1.435-2.835,1.435-4.822c0-1.921-0.45-3.391-1.53-4.711
	C101.893,22.008,100.111,21.417,98.59,21.417z M100.361,30.729c-0.479,0.662-1.134,0.993-1.964,0.993
	c-0.893,0-1.582-0.331-2.059-0.993c-0.48-0.599-0.718-1.494-0.718-2.694c0-1.29,0.222-2.237,0.668-2.837
	c0.481-0.659,1.152-0.993,2.014-0.993c0.894,0,1.58,0.333,2.059,0.993c0.482,0.662,0.72,1.607,0.72,2.837
	C101.081,29.172,100.843,30.067,100.361,30.729z M127.248,22.603c-1.108-0.839-2.24-1.279-4.187-1.228
	c-1.976,0.054-3.412,0.607-4.306,1.819c-0.893,1.212-1.339,2.795-1.339,4.745c0,1.669,0.337,3.015,1.01,4.041
	c0.675,1.023,1.483,1.724,2.426,2.101c0.938,0.378,1.887,0.456,2.844,0.238c0.956-0.222,1.718-0.769,2.282-1.653v0.8
	c-0.064,1.008-0.306,1.765-0.728,2.268c-0.426,0.503-0.897,0.811-1.414,0.921c-0.514,0.11-1.034,0.048-1.549-0.19
	c-0.521-0.234-0.904-0.573-1.155-1.013h-3.434c0.891,2.675,2.487,3.854,5.364,4.062c4.643,0.334,6.12-3.596,6.116-5.714v-6.662
	C129.176,24.935,128.459,23.524,127.248,22.603z M125.882,29.146c-0.125,0.738-0.328,1.284-0.611,1.627
	c-0.596,0.817-1.523,1.108-2.775,0.876c-1.255-0.237-1.883-1.442-1.883-3.613c0-1.009,0.186-1.906,0.565-2.695
	c0.377-0.785,1.097-1.18,2.164-1.18c0.785,0,1.382,0.285,1.788,0.85c0.409,0.568,0.668,1.213,0.776,1.939
	C126.017,27.674,126.007,28.407,125.882,29.146z M114.627,22.274c-1.059-0.536-2.273-0.808-3.636-0.808
	c-2.099,0-3.578,0.548-4.441,1.64c-0.541,0.7-0.846,1.591-0.917,2.678h3.135c0.077-0.479,0.23-0.859,0.461-1.139
	c0.324-0.38,0.873-0.569,1.649-0.569c0.696,0,1.22,0.096,1.578,0.291c0.356,0.193,0.537,0.545,0.537,1.053
	c0,0.418-0.233,0.725-0.7,0.923c-0.259,0.114-0.691,0.208-1.298,0.285l-1.111,0.135c-1.261,0.16-2.22,0.427-2.868,0.799
	c-1.187,0.684-1.779,1.789-1.779,3.314c0,1.176,0.367,2.086,1.106,2.728c0.735,0.642,1.671,0.912,2.801,0.964
	c7.086,0.316,7.006-3.735,7.071-4.578v-4.663C116.216,23.831,115.687,22.814,114.627,22.274z M112.98,29.35
	c-0.021,1.086-0.332,1.833-0.929,2.243c-0.597,0.41-1.251,0.616-1.958,0.616c-0.449,0-0.829-0.125-1.14-0.37
	c-0.313-0.247-0.469-0.649-0.469-1.203c0-0.621,0.256-1.081,0.767-1.378c0.304-0.174,0.8-0.323,1.493-0.443l0.739-0.137
	c0.37-0.071,0.66-0.145,0.87-0.225c0.215-0.078,0.422-0.181,0.629-0.312V29.35z M136.743,21.338c-2.125,0-3.711,0.653-4.757,1.963
	c-1.045,1.308-1.568,2.854-1.568,4.639c0,1.816,0.523,3.366,1.568,4.659c1.045,1.287,2.632,1.935,4.757,1.935
	c2.128,0,3.714-0.648,4.759-1.935c1.045-1.292,1.566-2.842,1.566-4.659c0-1.785-0.521-3.331-1.566-4.639
	C140.457,21.992,138.87,21.338,136.743,21.338z M138.913,30.808c-0.506,0.674-1.232,1.01-2.18,1.01c-0.946,0-1.675-0.336-2.185-1.01
	c-0.512-0.671-0.767-1.628-0.767-2.868c0-1.239,0.255-2.193,0.767-2.862c0.51-0.67,1.24-1.003,2.185-1.003
	c0.947,0,1.674,0.333,2.18,1.003c0.507,0.669,0.761,1.623,0.761,2.862C139.674,29.18,139.42,30.137,138.913,30.808z"/>
</svg>
