<?xml version="1.0" encoding="utf-8"?>
<!-- Generator: Adobe Illustrator 23.0.5, SVG Export Plug-In . SVG Version: 6.00 Build 0)  -->
<svg version="1.1" id="Capa_1" xmlns="http://www.w3.org/2000/svg" xmlns:xlink="http://www.w3.org/1999/xlink" x="0px" y="0px"
	 viewBox="0 0 55 40" style="enable-background:new 0 0 55 40;" xml:space="preserve">
<style type="text/css">
	.st0{fill:#222220;}
	.st1{fill:#C3141D;}
	.st2{fill:#CF611B;}
	.st3{fill:#E09E1D;}
</style>
<g>
	<path class="st0" d="M10.554,36.025c-0.148-0.148-0.324-0.264-0.527-0.346s-0.426-0.124-0.668-0.124
		c-0.128,0-0.261,0.011-0.399,0.033c-0.138,0.022-0.273,0.061-0.405,0.117c-0.132,0.056-0.258,0.133-0.378,0.232
		c-0.119,0.099-0.223,0.223-0.311,0.373c-0.142-0.235-0.335-0.42-0.578-0.553c-0.243-0.134-0.522-0.201-0.834-0.201
		c-0.105,0-0.214,0.01-0.327,0.029c-0.112,0.019-0.224,0.052-0.335,0.099c-0.111,0.047-0.217,0.111-0.318,0.192
		c-0.101,0.081-0.193,0.183-0.275,0.306v-0.516H4.311v4.224h0.896v-2.341c0-0.179,0.029-0.339,0.085-0.478
		c0.057-0.14,0.133-0.256,0.228-0.351c0.095-0.094,0.207-0.165,0.335-0.214c0.128-0.049,0.265-0.073,0.41-0.073
		c0.302,0,0.536,0.096,0.702,0.287c0.166,0.191,0.25,0.465,0.25,0.82v2.35h0.896v-2.341c0-0.179,0.028-0.339,0.085-0.478
		c0.057-0.14,0.133-0.256,0.228-0.351c0.095-0.094,0.207-0.165,0.335-0.214c0.128-0.049,0.265-0.073,0.41-0.073
		c0.301,0,0.535,0.096,0.702,0.287c0.166,0.191,0.25,0.465,0.25,0.82v2.35h0.896v-2.655c0-0.247-0.041-0.473-0.122-0.679
		C10.817,36.35,10.702,36.173,10.554,36.025"/>
	<path class="st0" d="M15.281,36.177c-0.147-0.188-0.329-0.339-0.547-0.452s-0.478-0.17-0.78-0.17c-0.297,0-0.573,0.055-0.829,0.165
		c-0.256,0.11-0.479,0.264-0.67,0.461c-0.191,0.197-0.341,0.431-0.45,0.703c-0.109,0.272-0.163,0.569-0.163,0.893
		c0,0.324,0.055,0.621,0.163,0.893c0.109,0.272,0.259,0.506,0.45,0.703c0.191,0.197,0.415,0.35,0.67,0.461
		C13.38,39.945,13.656,40,13.953,40c0.303,0,0.563-0.056,0.78-0.168c0.217-0.111,0.4-0.262,0.547-0.45v0.507h0.922v-4.224h-0.922
		V36.177z M15.245,38.316c-0.062,0.165-0.148,0.307-0.26,0.428c-0.112,0.12-0.245,0.215-0.401,0.284
		c-0.156,0.069-0.329,0.104-0.52,0.104c-0.2,0-0.379-0.036-0.536-0.108c-0.157-0.072-0.29-0.169-0.399-0.291
		c-0.109-0.122-0.193-0.265-0.251-0.43c-0.059-0.165-0.088-0.339-0.088-0.525c0-0.185,0.029-0.36,0.088-0.525
		c0.059-0.165,0.143-0.308,0.251-0.43c0.109-0.122,0.242-0.219,0.399-0.291c0.157-0.072,0.336-0.108,0.536-0.108
		c0.191,0,0.364,0.035,0.52,0.104c0.156,0.069,0.29,0.164,0.401,0.284c0.112,0.12,0.198,0.263,0.26,0.428
		c0.062,0.165,0.092,0.344,0.092,0.538C15.338,37.972,15.307,38.151,15.245,38.316"/>
	<path class="st0" d="M20.438,37.771c-0.259-0.201-0.619-0.336-1.08-0.403l-0.436-0.066c-0.097-0.015-0.188-0.031-0.273-0.051
		c-0.085-0.019-0.159-0.045-0.221-0.077c-0.062-0.032-0.111-0.074-0.148-0.124c-0.037-0.05-0.055-0.111-0.055-0.185
		c0-0.15,0.07-0.271,0.209-0.364c0.14-0.093,0.336-0.139,0.589-0.139c0.132,0,0.262,0.012,0.39,0.035
		c0.128,0.023,0.249,0.053,0.364,0.088c0.115,0.035,0.219,0.074,0.313,0.117c0.094,0.042,0.173,0.083,0.238,0.121l0.397-0.719
		c-0.22-0.141-0.478-0.251-0.772-0.329c-0.294-0.078-0.607-0.117-0.939-0.117c-0.271,0-0.513,0.032-0.728,0.095
		c-0.215,0.063-0.398,0.153-0.549,0.269c-0.152,0.116-0.268,0.258-0.348,0.426c-0.081,0.168-0.121,0.356-0.121,0.564
		c0,0.341,0.121,0.617,0.364,0.827c0.243,0.21,0.599,0.348,1.069,0.412l0.441,0.057c0.253,0.035,0.438,0.092,0.556,0.17
		c0.118,0.078,0.176,0.177,0.176,0.298c0,0.159-0.081,0.284-0.243,0.377c-0.162,0.093-0.401,0.139-0.719,0.139
		c-0.173,0-0.328-0.012-0.465-0.035c-0.137-0.023-0.262-0.055-0.375-0.095c-0.113-0.04-0.215-0.085-0.304-0.137
		c-0.09-0.051-0.173-0.107-0.249-0.165l-0.428,0.692c0.153,0.115,0.313,0.207,0.481,0.278c0.168,0.07,0.332,0.126,0.494,0.165
		c0.162,0.04,0.315,0.066,0.459,0.079c0.144,0.013,0.27,0.02,0.379,0.02c0.303,0,0.574-0.034,0.814-0.101
		c0.24-0.068,0.441-0.163,0.604-0.285c0.163-0.122,0.288-0.267,0.375-0.436c0.087-0.169,0.13-0.355,0.13-0.558
		C20.826,38.254,20.697,37.972,20.438,37.771"/>
	<path class="st0" d="M29.067,36.17c-0.175-0.196-0.385-0.347-0.631-0.454c-0.245-0.107-0.515-0.161-0.809-0.161
		c-0.312,0-0.596,0.054-0.853,0.161c-0.257,0.107-0.478,0.259-0.664,0.454c-0.185,0.195-0.329,0.43-0.432,0.703
		c-0.103,0.273-0.154,0.575-0.154,0.904c0,0.335,0.053,0.639,0.159,0.913c0.106,0.273,0.254,0.507,0.445,0.701
		c0.191,0.194,0.419,0.344,0.684,0.45C27.076,39.947,27.367,40,27.684,40c0.32,0,0.625-0.044,0.915-0.132s0.564-0.243,0.822-0.463
		l-0.458-0.657c-0.176,0.141-0.371,0.251-0.584,0.328c-0.213,0.078-0.426,0.117-0.637,0.117c-0.15,0-0.294-0.02-0.432-0.062
		c-0.138-0.041-0.263-0.105-0.375-0.192c-0.112-0.087-0.207-0.198-0.287-0.333c-0.079-0.135-0.134-0.298-0.163-0.489h3.122
		c0.006-0.053,0.01-0.109,0.013-0.167c0.003-0.059,0.004-0.118,0.004-0.176c0-0.329-0.049-0.63-0.148-0.902
		C29.378,36.6,29.242,36.366,29.067,36.17 M26.49,37.416c0.023-0.153,0.065-0.293,0.124-0.421c0.059-0.128,0.134-0.238,0.227-0.331
		c0.093-0.092,0.203-0.164,0.331-0.214c0.128-0.05,0.274-0.075,0.439-0.075c0.294,0,0.534,0.091,0.719,0.273
		c0.185,0.182,0.303,0.438,0.353,0.767H26.49z"/>
	<path class="st0" d="M41.31,36.177c-0.147-0.188-0.329-0.339-0.547-0.452s-0.478-0.17-0.78-0.17c-0.297,0-0.573,0.055-0.829,0.165
		c-0.256,0.11-0.479,0.264-0.67,0.461c-0.191,0.197-0.341,0.431-0.45,0.703c-0.109,0.272-0.163,0.569-0.163,0.893
		c0,0.324,0.054,0.621,0.163,0.893c0.109,0.272,0.259,0.506,0.45,0.703c0.191,0.197,0.415,0.35,0.67,0.461
		C39.41,39.945,39.686,40,39.983,40c0.303,0,0.563-0.056,0.78-0.168c0.217-0.111,0.4-0.262,0.547-0.45v0.507h0.922v-4.224H41.31
		V36.177z M41.275,38.316c-0.062,0.165-0.148,0.307-0.26,0.428c-0.112,0.12-0.245,0.215-0.401,0.284
		c-0.156,0.069-0.329,0.104-0.52,0.104c-0.2,0-0.378-0.036-0.536-0.108c-0.157-0.072-0.29-0.169-0.399-0.291
		c-0.109-0.122-0.193-0.265-0.251-0.43c-0.059-0.165-0.088-0.339-0.088-0.525c0-0.185,0.029-0.36,0.088-0.525
		s0.143-0.308,0.251-0.43c0.109-0.122,0.242-0.219,0.399-0.291c0.157-0.072,0.336-0.108,0.536-0.108c0.191,0,0.365,0.035,0.52,0.104
		c0.156,0.069,0.29,0.164,0.401,0.284c0.112,0.12,0.198,0.263,0.26,0.428c0.062,0.165,0.092,0.344,0.092,0.538
		C41.368,37.972,41.337,38.151,41.275,38.316"/>
	<path class="st0" d="M24.39,39.048c-0.148,0.056-0.295,0.084-0.439,0.084c-0.094,0-0.182-0.014-0.262-0.044
		c-0.081-0.029-0.151-0.076-0.212-0.139c-0.06-0.063-0.108-0.145-0.143-0.245c-0.035-0.1-0.053-0.221-0.053-0.362v-1.839h1.48
		v-0.838h-1.48v-1.279h-0.926v1.279h-0.842v0.838h0.842v1.856c0,0.562,0.133,0.975,0.399,1.241C23.02,39.867,23.393,40,23.872,40
		c0.267,0,0.508-0.041,0.721-0.123c0.141-0.055,0.272-0.117,0.394-0.185l-0.315-0.772C24.582,38.967,24.489,39.01,24.39,39.048"/>
	<path class="st0" d="M32.71,35.555c-0.259,0-0.492,0.047-0.701,0.141c-0.209,0.094-0.383,0.321-0.525,0.523v-0.554h-0.837v4.224
		h0.846v-2.324c0-0.179,0.025-0.34,0.075-0.481c0.05-0.141,0.119-0.26,0.207-0.357c0.088-0.097,0.194-0.171,0.318-0.221
		c0.123-0.05,0.259-0.075,0.406-0.075c0.112,0,0.232,0.013,0.362,0.04c0.066,0.013,0.128,0.03,0.185,0.05l0.272-0.882
		c-0.074-0.023-0.149-0.043-0.226-0.057C32.978,35.565,32.851,35.555,32.71,35.555"/>
	<path class="st0" d="M45.521,35.555c-0.259,0-0.492,0.047-0.701,0.141c-0.209,0.094-0.383,0.321-0.525,0.523v-0.554h-0.837v4.224
		h0.846v-2.324c0-0.179,0.025-0.34,0.075-0.481c0.05-0.141,0.119-0.26,0.207-0.357c0.088-0.097,0.194-0.171,0.318-0.221
		c0.123-0.05,0.259-0.075,0.406-0.075c0.112,0,0.232,0.013,0.362,0.04c0.066,0.013,0.128,0.03,0.185,0.05l0.272-0.882
		c-0.074-0.023-0.149-0.043-0.226-0.057C45.789,35.565,45.662,35.555,45.521,35.555"/>
	<path class="st0" d="M49.825,33.949v2.228c-0.147-0.188-0.329-0.339-0.547-0.452s-0.478-0.17-0.78-0.17
		c-0.297,0-0.573,0.055-0.829,0.165c-0.256,0.11-0.479,0.264-0.67,0.461c-0.191,0.197-0.341,0.431-0.45,0.703
		c-0.109,0.272-0.163,0.569-0.163,0.893c0,0.324,0.054,0.621,0.163,0.893c0.109,0.272,0.259,0.506,0.45,0.703
		c0.191,0.197,0.415,0.35,0.67,0.461C47.925,39.945,48.201,40,48.498,40c0.303,0,0.563-0.056,0.78-0.168
		c0.217-0.111,0.4-0.262,0.547-0.45v0.507h0.922v-5.941H49.825z M49.79,38.316c-0.062,0.165-0.148,0.307-0.26,0.428
		s-0.245,0.215-0.401,0.284c-0.156,0.069-0.329,0.104-0.52,0.104c-0.2,0-0.379-0.036-0.536-0.108
		c-0.157-0.072-0.29-0.169-0.399-0.291c-0.109-0.122-0.193-0.265-0.251-0.43c-0.059-0.165-0.088-0.339-0.088-0.525
		c0-0.185,0.029-0.36,0.088-0.525s0.143-0.308,0.251-0.43c0.109-0.122,0.242-0.219,0.399-0.291c0.157-0.072,0.336-0.108,0.536-0.108
		c0.191,0,0.364,0.035,0.52,0.104c0.156,0.069,0.29,0.164,0.401,0.284c0.112,0.12,0.198,0.263,0.26,0.428
		c0.062,0.165,0.092,0.344,0.092,0.538C49.882,37.972,49.851,38.151,49.79,38.316"/>
	<path class="st0" d="M34.915,36.801c0.117-0.119,0.257-0.212,0.419-0.278c0.162-0.066,0.337-0.099,0.525-0.099
		c0.207,0,0.399,0.033,0.577,0.099c0.172,0.064,0.321,0.153,0.447,0.267l0.444-0.738c-0.166-0.133-0.354-0.242-0.562-0.327
		c-0.278-0.113-0.58-0.17-0.906-0.17s-0.628,0.057-0.906,0.17c-0.278,0.113-0.517,0.269-0.719,0.467
		c-0.201,0.198-0.359,0.433-0.474,0.703c-0.115,0.271-0.172,0.564-0.172,0.882c0,0.318,0.057,0.611,0.172,0.882
		c0.115,0.27,0.273,0.505,0.474,0.703c0.201,0.198,0.441,0.354,0.719,0.467c0.278,0.113,0.58,0.17,0.906,0.17
		s0.628-0.057,0.906-0.17c0.208-0.085,0.396-0.194,0.562-0.327l-0.444-0.738c-0.126,0.113-0.275,0.203-0.447,0.266
		c-0.178,0.066-0.37,0.099-0.577,0.099c-0.188,0-0.363-0.033-0.525-0.099c-0.162-0.066-0.301-0.159-0.419-0.278
		c-0.118-0.119-0.21-0.262-0.278-0.428c-0.068-0.166-0.101-0.349-0.101-0.549c0-0.2,0.034-0.383,0.101-0.549
		C34.705,37.063,34.798,36.92,34.915,36.801"/>
	<path class="st1" d="M21.455,15.92c0-5.061,2.364-9.567,6.045-12.482C24.786,1.287,21.357,0,17.625,0
		C8.833,0,1.705,7.128,1.705,15.92s7.128,15.92,15.92,15.92c3.732,0,7.161-1.287,9.875-3.437
		C23.819,25.486,21.455,20.981,21.455,15.92"/>
	<path class="st2" d="M21.455,15.92c0,5.061,2.364,9.567,6.045,12.482c3.681-2.916,6.045-7.422,6.045-12.482
		c0-5.061-2.364-9.567-6.045-12.482C23.819,6.353,21.455,10.859,21.455,15.92"/>
	<path class="st3" d="M37.375,0c-3.732,0-7.161,1.287-9.875,3.437c3.681,2.916,6.045,7.422,6.045,12.482s-2.364,9.567-6.045,12.482
		c2.714,2.15,6.143,3.437,9.875,3.437c8.792,0,15.92-7.128,15.92-15.92S46.167,0,37.375,0"/>
</g>
</svg>
