<?xml version="1.0" encoding="utf-8"?>
<!-- Generator: Adobe Illustrator 23.0.5, SVG Export Plug-In . SVG Version: 6.00 Build 0)  -->
<svg version="1.1" id="Capa_1" xmlns="http://www.w3.org/2000/svg" xmlns:xlink="http://www.w3.org/1999/xlink" x="0px" y="0px"
	 viewBox="0 0 16 14" style="enable-background:new 0 0 16 14;" xml:space="preserve">
<style type="text/css">
	.st0{fill:#F0F0F0;}
</style>
<path class="st0" d="M0.97,1.947H15.03c0.536,0,0.97-0.432,0.97-0.965s-0.434-0.965-0.97-0.965H0.97C0.434,0.016,0,0.449,0,0.982
	S0.434,1.947,0.97,1.947z M15.03,12.085H0.97c-0.536,0-0.97,0.432-0.97,0.965c0,0.534,0.434,0.965,0.97,0.965H15.03
	c0.536,0,0.97-0.432,0.97-0.965C16,12.517,15.566,12.085,15.03,12.085z M15.03,6.051H0.97C0.434,6.051,0,6.483,0,7.016
	s0.434,0.965,0.97,0.965H15.03c0.536,0,0.97-0.432,0.97-0.965S15.566,6.051,15.03,6.051z"/>
</svg>
