<?xml version="1.0" encoding="utf-8"?>
<!-- Generator: Adobe Illustrator 23.0.5, SVG Export Plug-In . SVG Version: 6.00 Build 0)  -->
<svg version="1.1" id="Capa_1" xmlns="http://www.w3.org/2000/svg" xmlns:xlink="http://www.w3.org/1999/xlink" x="0px" y="0px"
	 viewBox="0 0 150 80" style="enable-background:new 0 0 150 80;" xml:space="preserve">
<style type="text/css">
	.st0{fill-rule:evenodd;clip-rule:evenodd;fill:#FFFFFF}
	.st1{fill-rule:evenodd;clip-rule:evenodd;fill:#89898A;}
	.st2{fill-rule:evenodd;clip-rule:evenodd;fill:#EC1C24;}
</style>
<g>
	<path class="st0" d="M130.336,52.714h10.244l7.113-19.617c0,0-5.318,0-10.633,1.068L130.336,52.714z M139.366,27.801l-1.365,3.767
		c5.349-1.067,10.633-1.067,10.633-1.067L150,26.735C150,26.735,144.683,26.735,139.366,27.801z M126.928,39.723
		c-1.922-1.286-3.706-1.974-5.918-3.194c-1.936-1.066-3.068-1.791-2.939-2.91c0.568-4.909,12.76-2.839,16.099-2.23l1.302-3.587
		c-3.613-0.699-7.346-1.066-11.163-1.066c-5.552,0-14.947,1.104-16.889,7.534c-0.649,2.144,0.18,4.168,2.104,5.455
		c1.922,1.288,3.626,1.936,5.839,3.158c1.935,1.066,3.147,1.83,3.015,2.948c-0.329,2.856-4.02,3.117-6.237,3.117
		c-3.365,0-6.663-0.304-9.862-0.888l-1.299,3.587c3.677,0.713,7.417,1.07,11.162,1.07c5.553,0,14.943-1.107,16.89-7.533
		C129.68,43.035,128.853,41.011,126.928,39.723z M102.765,28.943c-1.482-1.458-3.247-2.209-6.51-2.209
		c-3.262-0.001-5.91,0.854-8.039,1.688c-1.143,0.446-2.843,1.318-4.765,2.481c-0.185-0.737-0.524-1.427-1.066-1.96
		c-1.482-1.458-3.248-2.209-6.509-2.209c-3.264-0.001-5.91,0.854-8.04,1.688c-1.143,0.446-2.842,1.318-4.765,2.481
		c-0.185-0.737-0.523-1.427-1.064-1.96c-1.483-1.458-3.248-2.209-6.511-2.209l-9.42,25.98h10.246l4.71-12.991
		c2.625-7.242,13.69-9.811,11.358-3.376l-5.933,16.367h10.245l4.71-12.993c2.629-7.243,13.69-9.807,11.357-3.374l-5.933,16.367
		h10.245l6.594-18.188C104.212,33.053,104.246,30.396,102.765,28.943z"/>
	<g>
		<path class="st1" d="M0.587,23.701c5.729-3.579,12.746-6.805,19.445-7.905l0.202-0.032l0.196,0.032
			c6.699,1.1,13.716,4.325,19.445,7.905l0.582,0.363l0.004,0.686c0.048,8.665-1.354,17.909-5.329,25.695
			c-3.111,6.093-7.899,11.366-14.496,13.65l-0.402,0.141l-0.407-0.141C13.23,61.811,8.441,56.538,5.33,50.445
			c-3.975-7.786-5.377-17.03-5.329-25.695l0.004-0.686L0.587,23.701L0.587,23.701z"/>
		<path class="st2" d="M1.247,24.757c5.997-3.747,12.872-6.727,18.981-7.731v-0.001l0.003,0l0.003,0v0.001
			c6.109,1.004,12.984,3.984,18.981,7.731c0.111,20.038-7.628,34.224-18.981,38.158v0.002l-0.003-0.001l-0.003,0.001v-0.002
			C8.875,58.981,1.136,44.795,1.247,24.757L1.247,24.757z"/>
		<path class="st0" d="M25.771,32.534c-2.498,2.892-6.471,3.305-9.213,3.426c-0.311,0.034-0.931,0.07-1.091,0.293
			c-0.089,0.145-0.005,0.344,0.129,0.449c3.102,2.19,7.145,0.589,9.269-0.459c-2.454,2.201-6.588,2.59-10.12,1.296
			c-0.45-0.154-0.738-0.2-0.886-0.041c-0.1,0.107-0.146,0.314-0.017,0.56c0.991,1.849,1.707,3.276,4.229,4.075
			c-2.927-0.172-4.762-2.953-5.194-4.438c-0.041,2.489,2.127,4.201,3.017,5.189c-1.165,0.043-2.301,0.134-2.796,1.006
			c-0.35,0.551-0.34,1.351-0.824,2.079c-1.354-2.531-2.43-6.066-1.417-9.155c0.763-2.329,2.118-4.519,5.297-5.883
			c-0.844,0.967-1.482,1.706-2.186,2.773c-0.544,1.015,0.124,1.376,0.876,0.072c1.05,2.537,8.586,1.017,10.565-1.401l0.718-0.301
			L25.771,32.534L25.771,32.534z M21.005,54.475c0.079-0.123,0.277-0.202,0.446-0.144c0.321,0.112,0.457,0.464,0.267,0.696
			c-0.233,0.317-0.617,0.545-0.87,0.851c-0.115,0.134-0.167,0.292-0.231,0.445h-0.003C20.54,55.699,20.539,55.017,21.005,54.475
			L21.005,54.475z M17.487,53.375c0.174-0.144,0.516-0.151,0.678,0.008c0.159,0.199,0.221,0.466,0.118,0.689
			c-0.169,0.209-0.441,0.348-0.674,0.51c-0.378,0.243-0.77,0.513-0.922,0.89c-0.003-0.462,0.077-0.928,0.264-1.368
			C17.066,53.838,17.227,53.574,17.487,53.375L17.487,53.375z M25.859,52.941c0.113-0.056,0.26-0.021,0.356,0.04
			c0.132,0.081,0.184,0.212,0.212,0.334c0.062,0.298,0.058,0.606,0.177,0.895c0.048,0.121,0.123,0.233,0.187,0.351
			c-0.292-0.099-0.516-0.284-0.71-0.476c-0.206-0.213-0.39-0.45-0.441-0.718C25.607,53.21,25.677,53.027,25.859,52.941
			L25.859,52.941z M14.895,51.264c0.193-0.093,0.445-0.004,0.57,0.125c0.157,0.159,0.089,0.371,0.076,0.555
			c-0.006,0.126-0.125,0.226-0.257,0.289c-0.359,0.169-0.771,0.326-1.125,0.502c-0.239,0.12-0.435,0.286-0.575,0.479
			c0.042-0.322,0.174-0.632,0.321-0.934C14.099,51.89,14.429,51.489,14.895,51.264L14.895,51.264z M29.785,48.793
			c-0.031-0.156,0.119-0.285,0.274-0.359c0.301-0.007,0.536,0.158,0.783,0.267c0.141,0.066,0.304,0.085,0.465,0.101
			c-0.282,0.185-0.638,0.297-1.007,0.301C30.076,49.096,29.818,48.982,29.785,48.793L29.785,48.793z M12.713,47.453
			c0.097-0.061,0.229-0.02,0.334,0.005c0.26,0.072,0.398,0.292,0.385,0.498c-0.017,0.223,0.017,0.497-0.248,0.644
			c-0.479,0.278-1.064,0.433-1.496,0.763c-0.158,0.108-0.273,0.245-0.378,0.385c0.07-0.624,0.325-1.238,0.74-1.774
			C12.206,47.755,12.463,47.601,12.713,47.453L12.713,47.453z M18.893,45.029c0.344-0.136,0.724-0.211,1.107-0.236
			c-0.317,0.11-0.672,0.224-0.852,0.472c-0.072,0.105-0.145,0.257-0.02,0.356c0.141,0.072,0.327,0.049,0.474,0.111
			c0.146,0.09,0.094,0.255,0.073,0.378c-0.104,0.398-0.312,0.776-0.558,1.133c-0.052,0.083-0.109,0.174-0.088,0.27
			c0.113,0.016,0.193-0.073,0.276-0.119c0.334-0.232,0.685-0.457,0.935-0.751c0.108-0.136,0.276-0.258,0.295-0.426
			c0.026-0.137-0.219-0.175-0.236-0.297c0.104-0.204,0.365-0.326,0.601-0.426c0.534-0.209,1.31-0.161,1.645,0.267
			c-0.269-0.073-0.518-0.199-0.807-0.22c-0.148-0.008-0.314,0.055-0.344,0.177c-0.034,0.154-0.014,0.313-0.051,0.468
			c-0.104,0.553-0.544,1.048-1.134,1.356c-0.202,0.102-0.456,0.151-0.609,0.304c-0.107,0.107-0.202,0.234-0.193,0.376
			c0.127,0.06,0.283,0.04,0.425,0.057c0.316,0.03,0.656,0.047,0.95-0.067c0.279-0.107,0.389-0.371,0.678-0.467
			c0.74-0.271,1.691,0.055,2.015,0.626c-0.232-0.11-0.428-0.265-0.675-0.355c-0.253-0.093-0.57-0.051-0.776,0.096
			c-0.223,0.158-0.367,0.369-0.497,0.578c-0.048,0.071-0.104,0.161-0.219,0.172c-0.196-0.006-0.374-0.129-0.575-0.078
			c-0.277,0.073-0.523,0.205-0.802,0.273c-0.19,0.044-0.394,0.04-0.585,0.001c-0.337-0.07-0.674-0.149-1.023-0.163
			c-0.159-0.002-0.348,0.014-0.445,0.127c-0.134,0.156-0.118,0.353-0.14,0.533c-0.106-0.443-0.273-0.88-0.299-1.332
			c-0.035-0.563-0.172-1.126-0.057-1.688c0.19,0.227,0.203,0.502,0.246,0.763c0.02,0.12,0.089,0.271,0.265,0.292
			c0.241,0.004,0.378-0.182,0.498-0.318c0.2-0.276,0.38-0.588,0.343-0.913c0.004-0.148-0.23-0.152-0.314-0.258
			c-0.157-0.173-0.16-0.407-0.08-0.602C18.428,45.288,18.646,45.128,18.893,45.029L18.893,45.029z M31.761,44.296
			c0.01-0.116,0.176-0.15,0.299-0.144c0.231-0.001,0.462,0.02,0.692-0.007c-0.167,0.18-0.403,0.338-0.684,0.395
			C31.885,44.572,31.72,44.437,31.761,44.296L31.761,44.296z M31.929,41.437c0.172-0.069,0.347-0.133,0.497-0.229
			c-0.061,0.194-0.185,0.395-0.418,0.495C31.826,41.743,31.77,41.483,31.929,41.437L31.929,41.437z M23.663,38.478
			c0.23,0.879,0.548,1.693,1.578,2.019c0.96,0.304,2.346,0.089,3.402-0.005c0.873-0.03,1.684-0.192,2.33,0.261
			c0.327,0.225,0.461,0.497,0.616,0.808c0.148,0.304,0.296,0.61,0.404,0.924c0.097,0.274,0.039,0.623-0.116,0.873
			c-0.247,0.389-0.404,0.719-0.453,1.151c-0.045,0.393-0.126,0.782-0.198,1.172c-0.075,0.376-0.177,0.821-0.37,1.174
			c-0.188,0.342-0.532,0.602-0.757,0.927c-0.382,0.533-0.592,1.108-0.789,1.695c-0.157,0.457-0.218,0.929-0.35,1.39
			c-0.099,0.396-0.34,0.778-0.777,1.011c-0.64,0.339-1.442,0.424-2.127,0.69c-0.634,0.246-1.058,0.652-1.558,1.029
			c-0.393,0.301-0.73,0.643-1.301,0.724c-1.05,0.161-1.318-0.676-3.215-0.009c-0.227,0.081-0.518,0.098-0.72-0.033
			c-0.453-0.22-0.504-0.839-1.011-1.108c-0.505-0.245-1.12-0.25-1.683-0.358c-0.252-0.041-0.495-0.194-0.593-0.384
			c-0.162-0.33-0.166-0.692-0.307-1.026c-0.367-0.747-1.574-0.989-1.92-1.676c-0.35-0.719,0.124-1.095,0.126-1.672
			c-0.037-0.771-0.556-1.159-1.577-1.195c0.566-0.823,0.763-1.483,0.965-2.365c0.129-0.31,0.207-0.655,0.54-0.868
			c0.291-0.181,0.757-0.285,1.108-0.37c0.379-0.088,0.934-0.101,1.294,0.061c0.965,0.53,0.744,1.924,0.235,2.495
			c-0.693,0.784-2.433,0.628-2.133-0.602c0.358,0.304,0.705,0.764,1.205,0.219c0.036-0.05,0.076-0.128,0.056-0.191
			c-0.072-0.232-0.218-0.385-0.496-0.497c-0.136-0.055-0.3-0.089-0.448-0.042c-0.498,0.153-0.831,0.458-1.028,0.84
			c-0.39,0.77,0.454,1.386,1.429,1.237c0.906-0.179,1.326-0.547,1.913-1.032c-0.02,0.981-0.046,1.693,0.084,2.721
			c0.153,0.749,0.302,1.494,0.689,2.195c0.315,0.571,0.839,1.105,1.562,1.387c0.757,0.304,1.589,0.312,2.42,0.306
			c1.42,0.004,3.49-0.608,4.633-1.2c1.828-0.966,2.09-1.739,2.985-3.253c0.395-0.707,0.769-1.585,1.04-2.331
			c0.283-0.772,0.499-1.565,0.493-2.372c-0.005-0.668-0.186-1.063-0.439-1.381c-0.801-1.012-2.505-0.582-4.079-0.628
			c-0.123,0.248-0.218,0.529-0.011,0.765c0.386,0.415,1.321,0.352,1.949,0.401c-2.694,1.096-5.105-0.1-5.774-2.216
			c0.56,0.703,1.468,2.132,2.841,1.709c0.5-0.151,0.271-0.505,0.111-0.778c-0.039-0.096-0.214-0.097-0.315-0.133
			C23.909,40.582,23.456,39.494,23.663,38.478L23.663,38.478z M15.02,38.026c0.202,0.157,0.27,0.372,0.473,0.529
			c1.906,1.452,3.589,1.445,6.021,1.526c-2.155,0.528-4.9,0.204-6.434-1.25c-0.213-0.198-0.364-0.383-0.49-0.623
			C14.477,37.872,14.776,37.834,15.02,38.026L15.02,38.026z M24.037,37.626c1.949-0.106,3.94,0.631,4.566,2.521
			c-0.257-0.282-1.317-0.53-1.715-0.434c-0.11,0.022-0.212,0.086-0.229,0.178c-0.042,0.168,0.058,0.3,0.123,0.454
			c-1.069,0.122-1.844-0.235-2.323-0.921c0.24,0.102,0.478,0.262,0.754,0.306c0.528,0.099,1.048-0.124,1.351-0.454
			c0.19-0.207,0.069-0.471-0.156-0.63C25.591,38.043,24.9,37.974,24.037,37.626L24.037,37.626z M26.029,34.108
			c0.253-0.189,0.471-0.403,0.71-0.601C25.65,35.166,23,36.48,20.914,36.85c-1.053,0.21-3.356,0.484-4.324-0.047
			c-0.106-0.056-0.215-0.183-0.116-0.278c0.157-0.117,0.414-0.094,0.611-0.095c0.41,0.039,0.845-0.011,1.257-0.009
			c1.024,0.022,2.191-0.146,3.195-0.307C23.202,35.743,24.788,35.08,26.029,34.108L26.029,34.108z M6.325,28.084
			c0.302-0.068,0.632-0.019,0.9,0.101c0.335,0.15,0.528,0.422,0.697,0.682C8,28.993,8.088,29.141,8.026,29.282
			c-0.093,0.022-0.192,0.03-0.285,0.055c-0.08,0.077-0.054,0.184-0.052,0.276c0.061,0.482,0.262,0.894,0.478,1.344
			c0.029,0.065,0.09,0.114,0.152,0.16c0.082-0.511-0.05-1.013,0.16-1.512c0.037-0.072,0.078-0.166,0.188-0.184
			c0.178-0.002,0.313,0.149,0.494,0.12c0.151-0.07,0.128-0.235,0.116-0.353c-0.047-0.304-0.348-0.518-0.547-0.765
			c0.444,0.275,0.861,0.613,1.044,1.039c0.109,0.25,0.079,0.566-0.183,0.752c-0.116,0.089-0.285,0.065-0.429,0.049
			c-0.321,0.311-0.274,0.714-0.196,1.084c0.026,0.092,0.047,0.253,0.212,0.24c0.337-0.072,0.554-0.303,0.838-0.445
			c-0.649,0.805-1.202,1.249-1.637,2.236c0.007-0.207,0.051-0.418-0.008-0.623c-0.035-0.117-0.159-0.197-0.283-0.259
			c-0.322-0.159-0.695-0.242-1.022-0.393c-0.345-0.171-0.521-0.467-0.734-0.724c-0.134-0.164-0.398-0.077-0.562-0.209
			c-0.073-0.156-0.036-0.328-0.073-0.491c-0.049-0.253-0.063-0.592-0.345-0.757c-0.286-0.173-0.665-0.166-1.009-0.168v-0.008
			c0.253-0.092,0.529-0.19,0.815-0.147c0.472,0.069,0.813,0.292,1.073,0.599c0.179,0.204,0.141,0.473,0.313,0.679
			c0.124,0.148,0.318,0.248,0.497,0.352c0.197,0.108,0.383,0.242,0.625,0.284c0.062-0.241,0.022-0.505-0.168-0.707
			c-0.325-0.348-0.436-0.734-0.509-1.154c-0.053-0.274,0.001-0.558,0.139-0.813c0.068-0.131,0.191-0.284,0.081-0.422
			C7.014,28.188,6.63,28.168,6.325,28.084L6.325,28.084z M18.38,23.441c0.868,0.567,2.012,1.268,2.963,1.744
			c-0.21,0.168-0.455,0.424-0.735,0.419C19.994,25.382,18.664,23.979,18.38,23.441L18.38,23.441z M19.655,21.535l0.019-0.003
			c1.285,1.615,2.655,2.867,4.582,3.778c0.518,0.257,1.009,0.449,1.644,0.473c0.342,0.026,0.666-0.202,1.005-0.204
			c0.397-0.01,0.794,0.167,1.077,0.361c0.087,0.056,0.149,0.135,0.164,0.226c0.087,0.403,0.204,0.795,0.548,1.104
			c0.215,0.191,0.565,0.178,0.872,0.122c0.056,0.211,0.177,0.448,0.461,0.52c0.265,0.053,0.485-0.218,0.769-0.142
			c0.117,0.154,0.184,0.301,0.306,0.455c0.109,0.105,0.295,0.133,0.423,0.223c0.499,0.264,0.819,0.767,1.015,1.166
			c-0.281-0.306-0.608-0.681-1.064-0.837c0.019,0.661-0.024,1.59-0.48,1.942c-0.018-0.426-0.002-0.839-0.249-1.218
			c-0.389,0.282-0.782,0.682-1.291,0.774c0.195-0.239,0.581-0.502,0.458-0.8c-0.229-0.144-0.507-0.182-0.799-0.111
			c-0.424,0.094-0.831,0.35-1.131,0.603c-0.088-0.234-0.149-0.446-0.261-0.655c-0.239,0.04-1.099,0.327-0.856,0.71
			c0.374,0.464,0.975,0.282,1.333,0.351c0.254,0.081,0.422,0.278,0.527,0.466c0.021-0.176,0.037-0.352,0.064-0.527
			c0.379,0.454,0.714,0.93,1.014,1.422c0.43-0.191,0.518-0.39,0.57-0.943c0.167,0.278,0.194,0.516,0.199,0.82
			c0.125-0.105,0.202-0.194,0.273-0.36c0.162,0.749-0.016,1.886-1.076,2.226c0.194-0.501,0.269-0.935-0.405-0.935
			c-0.531-0.003-1.129,0.195-1.654,0.257c0.204-0.108,1.111-0.619,0.953-0.918c-0.069-0.116-0.198-0.151-0.335-0.203
			c-0.333-0.116-0.638-0.291-1.008-0.338c-0.174-0.027-0.328,0.101-0.476,0.162c-0.878-0.418-1.188,0.1-1.813,0.193
			c-0.597,0.089-1.26-0.25-1.571-0.734c-0.7-1.091,0.348-1.758,1.24-2.036c-1.171-0.136-1.646,0.264-1.926,1.435
			c-0.566-0.18-0.835-0.206-1.537-0.335c-3.898-0.57-6.983,0.581-8.772,2.483c-1.725,1.834-2.796,4.671-2.778,6.982
			c-0.051,2.519,0.72,3.996,2.024,6.199c-1.89-1.55-2.73-3.501-3.289-4.801c-0.238,0.275-0.162,0.617-0.229,0.93
			c-1.094-1.489,0.426-5.241,1.147-6.924c-0.571,0.264-0.917,0.738-1.329,1.128c-0.069-2.129,1.811-4.285,3.733-6.022
			c-0.595,0.118-1.041,0.31-1.572,0.579c1.841-1.945,5.21-3.066,8.25-3.18c-0.717-0.24-1.57-0.288-2.326-0.416
			c2.374-0.492,4.003-0.511,5.606-1.574c0.746,0.485,1.617,0.978,2.044,0.848C22.461,25.343,20.111,23.206,19.655,21.535
			L19.655,21.535z M26.67,26.598c0.125,0.198,0.311,0.368,0.473,0.546c0.187,0.198,0.505,0.366,0.845,0.269
			c-0.05-0.177-0.115-0.355-0.223-0.515c-0.044-0.069-0.138-0.102-0.232-0.116C27.241,26.731,26.962,26.649,26.67,26.598
			L26.67,26.598z"/>
		
		<path class="st0" d="M1.247,24.757c5.997-3.747,12.872-6.727,18.981-7.731v-0.001l0.003,0l0.003,0v0.001
			c6.109,1.004,12.984,3.984,18.981,7.731c0.001,0.14,0,0.279,0,0.418c-5.931-3.73-12.69-6.708-18.706-7.762v-0.001l-0.003,0
			l-0.003,0v0.001c-6.108,0.938-12.984,3.844-18.981,7.526C1.442,39.143,5.309,50.446,11.609,57.27
			C5.146,50.548,1.167,39.166,1.247,24.757L1.247,24.757z"/>
	</g>
</g>
</svg>
