<?xml version="1.0" encoding="utf-8"?>
<!-- Generator: Adobe Illustrator 23.0.5, SVG Export Plug-In . SVG Version: 6.00 Build 0)  -->
<svg version="1.1" id="Capa_1" xmlns="http://www.w3.org/2000/svg" xmlns:xlink="http://www.w3.org/1999/xlink" x="0px" y="0px"
	 viewBox="0 0 120 80" style="enable-background:new 0 0 120 80;" xml:space="preserve">
<style type="text/css">
	.st0{fill-rule:evenodd;clip-rule:evenodd;fill:#FFFFFF;}
	.st1{fill-rule:evenodd;clip-rule:evenodd;fill:#76B800;}
</style>
<g>
	<path class="st0" d="M9.147,79.401V59.892h11.218c5.331,0,8.185,3.595,8.185,7.935v11.624h-5.54V68.635
		c0-2.044-1.482-3.891-3.643-3.891h-4.692v14.657L9.147,79.401L9.147,79.401z M29.138,59.805l6.377,19.559c2.715,0,5.43,0,8.146,0
		l6.377-19.559l-6.002,0.054l-4.448,14.585L35.14,59.859L29.138,59.805L29.138,59.805z M89.242,79.352l7.868-19.559h7.354
		l7.719,19.559h-5.809l-1.252-3.415h-8.934l-1.285,3.415H89.242L89.242,79.352z M103.875,72.534l-3.162-8.623l-3.244,8.623H103.875
		L103.875,72.534z M81.927,59.839h5.571v19.559h-5.571V59.839L81.927,59.839z M60.696,59.839h5.571v0.041l3.662-0.033
		c6.948-0.062,9.396,4.573,9.394,10.194c-0.002,4.754-1.508,9.357-8.229,9.357h-4.827h-2.359h-3.212V59.839L60.696,59.839z
		 M66.267,64.338V75.1h2.849c3.422,0,4.862-2.444,4.92-5.003c0.064-2.81-1.428-5.759-4.993-5.759H66.267L66.267,64.338z
		 M51.826,59.839h5.571v19.559h-5.571V59.839L51.826,59.839z M115.136,76.567c0.295,0,0.577,0.073,0.847,0.221
		c0.271,0.147,0.483,0.358,0.638,0.633c0.154,0.275,0.232,0.563,0.232,0.863c0,0.299-0.076,0.585-0.227,0.855
		c-0.152,0.271-0.363,0.483-0.635,0.634C115.72,79.924,115.434,80,115.136,80c-0.299,0-0.584-0.076-0.855-0.227
		c-0.271-0.151-0.483-0.363-0.634-0.634c-0.151-0.271-0.227-0.556-0.227-0.855c0-0.3,0.077-0.588,0.232-0.863
		c0.155-0.275,0.367-0.486,0.637-0.633C114.559,76.64,114.841,76.567,115.136,76.567L115.136,76.567z M115.138,76.903
		c-0.236,0-0.463,0.059-0.679,0.177c-0.217,0.118-0.387,0.288-0.512,0.509c-0.125,0.221-0.187,0.453-0.187,0.695
		c0,0.241,0.061,0.47,0.183,0.688c0.122,0.218,0.291,0.389,0.51,0.511c0.218,0.122,0.447,0.184,0.686,0.184
		c0.24,0,0.469-0.061,0.687-0.184c0.217-0.122,0.387-0.293,0.51-0.511c0.122-0.218,0.184-0.447,0.184-0.688
		c0-0.242-0.062-0.474-0.187-0.695c-0.125-0.221-0.296-0.391-0.513-0.509C115.601,76.962,115.374,76.903,115.138,76.903
		L115.138,76.903z M114.36,79.202v-1.821h0.37c0.347,0,0.541,0.002,0.582,0.005c0.122,0.01,0.218,0.034,0.286,0.073
		c0.068,0.038,0.125,0.096,0.17,0.174c0.046,0.079,0.069,0.166,0.069,0.262c0,0.131-0.043,0.243-0.129,0.337
		c-0.086,0.094-0.207,0.151-0.362,0.174c0.055,0.021,0.098,0.044,0.128,0.068c0.03,0.024,0.071,0.071,0.123,0.14
		c0.014,0.018,0.058,0.092,0.135,0.222l0.215,0.367h-0.457l-0.153-0.295c-0.103-0.199-0.188-0.324-0.256-0.376
		c-0.067-0.051-0.152-0.077-0.255-0.077h-0.096v0.748H114.36L114.36,79.202z M114.731,78.167h0.15c0.213,0,0.346-0.008,0.398-0.025
		c0.051-0.017,0.092-0.045,0.122-0.086c0.031-0.041,0.045-0.088,0.045-0.14c0-0.051-0.014-0.096-0.044-0.135
		c-0.029-0.04-0.07-0.068-0.125-0.086c-0.054-0.017-0.186-0.025-0.396-0.025h-0.15V78.167L114.731,78.167z"/>
	<path class="st1" d="M44.601,0v6.874c0.454-0.057,0.909-0.057,1.363-0.057C63.52,6.193,74.939,21.191,74.939,21.191
		S61.815,37.155,48.124,37.155c-1.25,0-2.443-0.114-3.522-0.284v4.261c0.909,0.114,1.932,0.17,2.954,0.17
		c12.726,0,21.93-6.477,30.849-14.203c1.477,1.193,7.556,4.09,8.749,5.34c-8.465,7.102-28.236,12.84-39.428,12.84
		c-1.079,0-2.102-0.057-3.125-0.17v5.965h48.404V0H44.601L44.601,0z M23.637,21.986c0,0,6.988-10.283,20.964-11.362v-3.75
		c-15.453,1.25-28.804,14.317-28.804,14.317s7.556,21.929,28.804,23.918v-3.977C28.978,39.144,23.637,21.986,23.637,21.986
		L23.637,21.986z M35.795,23.236c0,0,3.863-4.602,8.806-4.034v0.057v-4.034c-9.431,1.023-15.055,7.272-15.055,7.272
		s3.238,12.272,15.055,14.373v-3.636C37.954,31.019,35.795,23.236,35.795,23.236L35.795,23.236z M47.158,15.112
		c8.067,0,12.84,6.249,12.84,6.249l-6.533,5.568c-2.954-4.943-3.977-7.102-8.863-7.67v13.976c1.079,0.341,2.329,0.568,3.75,0.568
		c9.544,0,18.521-12.385,18.521-12.385s-8.295-11.249-20.907-10.851c-0.455,0-0.909,0-1.363,0.057v4.602
		C45.397,15.169,46.249,15.112,47.158,15.112L47.158,15.112z"/>
</g>
</svg>
