<?xml version="1.0" encoding="utf-8"?>
<!-- Generator: Adobe Illustrator 23.0.5, SVG Export Plug-In . SVG Version: 6.00 Build 0)  -->
<svg version="1.1" id="Capa_1" xmlns="http://www.w3.org/2000/svg" xmlns:xlink="http://www.w3.org/1999/xlink" x="0px" y="0px"
	 viewBox="0 0 80 80" style="enable-background:new 0 0 80 80;" xml:space="preserve">
<style type="text/css">
	.st0{fill:#87B042;}
</style>
<g>
	<path class="st0" d="M49.994,35.325c1.892-1.051,5.011,2.418,5.011,2.418C49.643,37.533,49.994,35.325,49.994,35.325L49.994,35.325
		z M45.368,31.016c-1.717-0.946-0.946-5.712-0.946-5.712C47.366,29.789,45.368,31.016,45.368,31.016L45.368,31.016z M39.026,40.757
		c0,0,1.858-3.785,4.625-3.504C43.651,37.252,44.107,39.39,39.026,40.757L39.026,40.757z M79.474,1.827
		c-0.397-0.187-0.28-0.467-0.28-0.467c-0.561-2.5-2.406-0.888-2.826-0.374c-0.421,0.514-0.934,0.654-0.934,0.654
		c-5.887-0.608-6.401,1.098-6.517,1.308c-0.117,0.21-0.351,0.421-0.351,0.421c-2.383,0.49-2.803,2.172-2.803,2.172
		c-0.21,0.841-0.771,0.421-0.771,0.421c-1.892-1.191-3.994-0.981-3.994-0.981c-5.466,0.841-6.097,5.256-6.097,5.256
		c-1.472,7.148,9.531,16.819,9.531,16.819s4.135,3.679,3.609,6.587c-0.525,2.909-3.609,2.698-3.609,2.698
		c0.701-1.051,0.595-3.013,0.595-3.013c-0.351-6.238-4.696-7.499-6.938-7.289c-2.242,0.211-2.242,1.612-2.242,1.612
		c0.035,1.542,1.472,1.437,1.472,1.437c2.768,0.315,4.17,2.593,3.89,4.625c-0.281,2.032-1.121,0.981-1.121,0.981
		c-3.679-4.766-6.483-5.571-7.218-5.501c-0.736,0.07-0.631-0.386-0.631-0.386c-0.666-6.482-6.798-9.671-7.429-9.741
		c-0.63-0.07-0.56-0.561-0.63-0.911c-0.071-0.35-0.386-1.437-0.386-1.437s-2.663-6.903-10.406-5.992
		c-7.744,0.911-8.795,9.811-9.075,10.512c-0.28,0.7-2.751,11.866-2.751,11.866c-0.092,0.691-0.691,3.131-2.44,3.062
		c-1.75-0.069-0.99-3.223-0.99-3.223s1.174-4.811-1.842-5.87c-3.016-1.059-4.812,1.474-4.995,2.44
		c-0.184,0.966-0.438,0.483-0.438,0.483c-0.3-0.944-1.335-1.842-3.914-2.256c-2.578-0.414-3.272-1.361-3.272-1.361
		c-1.851-2.313-2.66,0.578-2.66,0.578c-0.094,0.272,0,0-0.28,0.062c-0.28,0.061-0.429,0.56-0.429,0.56
		c-0.289,1.507,1.094,1.542,1.865,1.612c0.771,0.07,1.262,0.771,1.262,0.771c2.663,5.817,5.081,4.344,5.081,4.344
		c1.401,1.437,3.539,1.051,3.959,0.981c0.42-0.07,0.385,0.385,0.385,0.385c1.121,7.954,9.881,7.499,12.731,3.154
		c2.85-4.345,3.597-9.297,4.158-12.614c0.56-3.317,0.467-5.56,2.616-8.036c2.149-2.476,4.672-0.654,5.186-0.187
		c0.514,0.467-0.234,0.608-0.234,0.608c-3.037,1.122-4.952,3.785-5.42,6.541c-0.467,2.757,1.262,5.747,3.037,5.466
		c1.775-0.28,1.355-1.261,0.934-2.242c-0.421-0.981-0.374-2.243-0.374-2.243c0.187-2.756,2.149-3.317,2.896-3.644
		c0.748-0.327,0.701,0.234,0.701,0.234c-1.635,3.597-0.56,8.923-0.56,8.923c0.327,0.794-0.141,0.888-0.141,0.888
		c-5.98,4.578-5.092,11.025-5.092,11.025c-3.084,1.401-4.065,5.466-4.065,5.466c-0.513,5,0.467,8.784,5.373,11.26
		c4.906,2.477,19.494-1.822,19.494-1.822c1.227-0.561,5.116-1.017,5.326,0.876c0.21,1.892-2.908,2.137-2.908,2.137
		c-4.275,0.28-4.205,3.853-4.205,3.853c0.35,4.241,4.239,3.539,4.66,3.575c0.421,0.034,0.176,0.315,0.176,0.315
		c-1.367,1.402-0.351,3.924,0.07,5.886c0.421,1.962-0.14,2.348-0.14,2.348c-1.542,1.997,0.771,2.523,1.051,2.348
		c0.281-0.175,0.421,0.035,0.421,0.035c2.488,0.841,1.822-1.611,1.647-2.068c-0.175-0.455,0.21-1.821,0.21-1.821
		c2.943-3.575,2.348-5.783,2.068-5.888c-0.28-0.104-0.245-0.524-0.245-0.524s0.841-3.155-0.456-3.609
		c-1.297-0.457,0.351-1.086,0.351-1.086c2.557-0.947,4.94-7.078,0.49-11.038c-4.45-3.959-16.539-0.14-16.539-0.14
		s-4.099,1.507-7.814,1.017c-3.714-0.491-3.434-3.364-3.048-4.415c0.385-1.051,0.666-0.42,0.666-0.42
		c0.631,1.226,2.803,2.111,2.803,2.111c3.89,1.647,7.043-0.465,7.043-0.465c2.558-1.12,2.803-4.519,1.682-5.115
		c-1.121-0.595-1.682,0.316-1.682,0.316c-1.892,2.452-4.66,2.348-6.167,1.296c-1.507-1.051-0.561-1.437-0.561-1.437
		c7.674-1.016,9.04-3.925,9.04-3.925c0.561-0.455,0.771,0,0.771,0c5.151,2.208,10.232-0.42,11.003-0.841
		c0.771-0.42,1.612,0.093,1.612,0.093c4.625,1.121,8.315,0.654,12.1-4.672c3.784-5.326-2.243-11.68-2.103-11.634
		c0.14,0.047-9.811-11.259-9.811-11.259c-2.313-3.48,0.491-5.186,2.757-2.196c2.266,2.99,3.994,2.407,3.994,2.407
		c5.069-0.654,3.083-5.676,2.64-6.027c-0.444-0.35-0.257-0.561-0.257-0.561c2.687,0.421,4.975-2.64,5.513-3.317
		c0.537-0.678,1.028-0.631,1.028-0.631C80.244,4.514,79.871,2.015,79.474,1.827L79.474,1.827z"/>
	<g>
		<path d="M48.813,34.755c2.487-3.399,9.215,3.959,9.215,3.959C47.341,40.432,48.813,34.755,48.813,34.755L48.813,34.755z
			 M45.309,32.337c-3.819-0.21-2.137-9.776-2.137-9.776c2.522,1.296,3.854,5.326,3.854,5.326
			C47.936,32.653,45.309,32.337,45.309,32.337L45.309,32.337z M45.01,38.224c-0.438,2.242-8.286,4.87-8.286,4.87
			s1.352-6.622,6.843-7.113C43.567,35.982,45.447,35.982,45.01,38.224L45.01,38.224z M77.019,2.449
			c0.316-0.21,0.596-1.086,0.596-1.086c-0.281,0.56-1.402,1.296-1.402,1.296l-1.389,0.433c-4.71-0.514-4.952,0.7-5.139,0.981
			c-0.187,0.28-0.561,0.56-0.561,0.56c-1.074,0.047-2.242,0.888-2.476,2.149c-0.234,1.261,0.981,2.943,0.981,2.943
			c0.14,0.934-0.654,0.233-0.654,0.233c-0.935-1.962-3.971-3.223-3.971-3.223c-3.924-0.747-6.91,0.901-7.008,5.84
			c-0.098,4.939,8.316,12.377,8.316,12.377c4.205,3.267,4.812,7.011,4.812,7.011c1.682,5.84-5.567,5.875-5.567,5.875
			c-1.176,0.082-1.063-0.228-1.063-0.228s2.391-4.771,0-8.03c-2.391-3.258-5.143-1.682-5.143-1.682s1.075-0.56,3.831,1.916
			c2.757,2.476,0.374,6.167,0,6.716c-0.373,0.549-0.747,0.339-0.747,0.339s-2.663-2.289-4.625-4.532
			c-1.962-2.242-5.139-2.009-5.139-2.009c0.935-6.868-7.709-10.652-7.709-10.652c-0.888-7.662-8.083-7.616-8.083-7.616
			c-7.475-0.326-8.736,7.569-8.736,7.569s-2.523,9.251-2.662,10.746c-0.141,1.495-1.402,7.802-4.579,7.194
			c-3.177-0.608-2.429-4.438-2.055-5.513c0.374-1.074,0.56-3.457-1.495-3.877c-2.056-0.421-3.177,2.383-3.177,2.383
			s-0.374,1.074-1.215,1.168c-0.841,0.093-1.027-0.701-1.027-0.701c0.14-2.056-5.233-2.196-5.233-2.196l-1.437-0.876
			c-0.35-0.21-0.806-1.016-0.806-1.016c-0.07,0.35,0.14,0.876,0.14,0.876c-0.21-0.07-0.876,0.21-0.876,0.21
			c0.491,0,1.437,0.42,1.437,0.42l1.262,0.876c0.175,1.261,1.612,2.663,1.612,2.663c1.542,1.822,2.102,1.121,2.593,1.192
			c0.491,0.07,0.596,0.316,0.596,0.316c0.455,0.806,1.857,0.841,1.857,0.841c2.067-0.07,2.277-1.752,2.873-2.663
			c0.595-0.911,0.701,0.105,0.561,0.561c-0.14,0.455-0.596,2.383-0.596,2.383c-0.421,0.806,0.526,6.623,5.572,6.237
			c5.046-0.386,5.571-4.555,6.868-6.903c1.297-2.348,1.401-5.711,2.383-10.057c0.981-4.345,2.313-5.956,2.313-5.956
			c3.434-5.151,7.709-0.526,8.41,0.455c0.7,0.981,0.07,1.121,0.07,1.121c-4.24,0.561-6.062,3.014-6.482,6.132
			c-0.421,3.118,1.787,3.714,1.787,3.714s-2.487-3.714,0.351-6.447c2.838-2.733,5.151-1.541,5.151-1.541s0.105,0.455-0.701,4.485
			c-0.806,4.029,0.421,6.237,0.421,6.237c0.525,1.156-0.184,1.261-0.184,1.261c-6.474,3.98-5.318,9.321-5.388,10.267
			c-0.07,0.946-1.086,1.332-1.086,1.332c-3.96,2.838-3.119,7.463-3.119,7.463c0.841,7.253,6.552,7.569,10.442,7.393
			c3.889-0.175,14.016-2.803,14.016-2.803c0.794-0.42,5.886-1.005,5.979,2.148c0.094,3.155-3.036,3.504-3.036,3.504
			c-0.07,0.023-4.299-0.186-4.158,2.639c0.14,2.827,3.364,2.71,4.111,2.57c0.748-0.14,1.589,1.145,0.724,1.799
			c-0.865,0.655-0.748,1.659-0.748,1.659c-0.186,1.657,1.052,3.923,1.052,3.923l-0.187,1.915c-0.234,0.889-0.608,1.356-0.608,1.356
			c0.397-0.139,0.724-0.538,0.724-0.538c-0.024,0.257,0.467,0.656,0.467,0.656c-0.35-0.679-0.21-1.707-0.21-1.707l0.234-1.635
			c3.434-3.364,1.869-5.139,1.869-5.139s-0.631-0.257-0.164-0.935c0.467-0.677,0.258-1.751,0.258-1.751
			c-0.304-1.776-3.527-1.565-3.527-1.565s-0.608-0.046-0.655-0.514c-0.046-0.466,0.655-0.466,0.655-0.466h1.039
			c0,0,1.787-0.245,3.924-1.962c2.137-1.718,0.981-5.783,0.981-5.783c-1.367-3.717-6.552-4.029-10.687-3.714
			c-4.135,0.316-8.69,2.523-12.229,2.733c-3.539,0.21-5.922-0.526-6.658-2.698c-0.736-2.172,0.35-4.696,0.946-5.606
			c0.596-0.91,0.736-0.28,0.736-0.28s2.628,3.82,6.238,3.749c3.609-0.071,4.59-2.523,4.59-2.523c0.806-1.612-0.14-0.981-0.14-0.981
			c-0.526,0.841-2.313,2.207-4.38,2.242c-2.067,0.036-3.469-1.437-3.469-1.437c-2.032-1.787-1.226-2.662-1.226-2.662
			s0.315-0.631,4.07-1.296c3.754-0.666,5.811-3.014,6.232-3.609c0.42-0.595,0.911-0.035,0.911-0.035
			c5.045,3.364,11.563-0.525,11.808-0.859c0.245-0.333,0.386-0.107,0.386-0.107c3.119,2.327,9.776,1.282,12.054-4.57
			c2.278-5.852-4.45-11.528-4.45-11.528s-5.116-6.132-7.569-8.76c-2.453-2.628-0.665-5.186-0.665-5.186
			c2.418-2.243,5.116,1.331,5.116,1.331c1.086,1.927,2.593,2.418,4.1,1.647c1.507-0.771,1.437-2.803,0.21-4.31
			c-1.226-1.506,0.561-2.137,0.561-2.137c1.016,0.246,1.366,0.14,1.366,0.14c1.998-0.28,3.96-3.258,3.96-3.258l1.436-0.561
			c0.42-0.07,1.577-0.175,1.577-0.175C78.141,2.554,77.019,2.449,77.019,2.449L77.019,2.449z"/>
	</g>
</g>
</svg>
