<?xml version="1.0" encoding="utf-8"?>
<!-- Generator: Adobe Illustrator 23.0.5, SVG Export Plug-In . SVG Version: 6.00 Build 0)  -->
<svg version="1.1" id="Capa_1" xmlns="http://www.w3.org/2000/svg" xmlns:xlink="http://www.w3.org/1999/xlink" x="0px" y="0px"
	 viewBox="0 0 16 16">
<style type="text/css">
	.st0{fill:#F0F0F0;}
</style>
<g>
	<path class="st0" d="M15.03,16c-0.248,0-0.496-0.095-0.686-0.284l-3.079-3.079c-1.179,0.893-2.647,1.423-4.236,1.423
		C3.154,14.061,0,10.907,0,7.03C0,3.154,3.154,0,7.03,0c3.877,0,7.03,3.154,7.03,7.03c0,1.589-0.53,3.057-1.423,4.236l3.079,3.079
		c0.379,0.379,0.379,0.992,0,1.371C15.527,15.905,15.278,16,15.03,16z M7.03,1.939c-2.807,0-5.091,2.284-5.091,5.091
		c0,2.807,2.284,5.091,5.091,5.091c2.807,0,5.091-2.284,5.091-5.091C12.121,4.223,9.837,1.939,7.03,1.939z"/>
</g>
</svg>
