<?xml version="1.0" encoding="utf-8"?>
<!-- Generator: Adobe Illustrator 23.0.5, SVG Export Plug-In . SVG Version: 6.00 Build 0)  -->
<svg version="1.1" id="Capa_1" xmlns="http://www.w3.org/2000/svg" xmlns:xlink="http://www.w3.org/1999/xlink" x="0px" y="0px"
	 viewBox="0 0 150 80" style="enable-background:new 0 0 150 80;" xml:space="preserve">
<style type="text/css">
	.st0{fill:#FFFFFF;}
</style>
<path class="st0" d="M19.811,38.591l-0.593-0.979l-0.704-0.807l-0.741-0.599l-0.49-0.399l-0.352-0.361l-0.343-0.399L16.4,34.784
	c-0.005-0.003-0.025-0.011-0.029-0.015l-0.148-0.342l-0.06-0.399l-0.005-0.395l0.083-0.508l0.314-0.94l0.343-1.131l0.19-0.684
	l0.074-0.737l-0.051-0.617l-0.167-0.485l-0.282-0.413l-0.338-0.371l-0.51-0.38l-1.06-0.433l-1.273-0.317l-0.936-0.081l-1.964-0.094
	l-1.042,0.042l-1.209,0.247L7.434,27l-1.153,0.546L5.428,28.13L4.59,28.862l-0.912,1.059l-0.644,0.964l-0.751,1.487L1.788,33.73
	l-0.297,1.111l-0.19,0.371L0.769,35.91l-0.25,0.447l-0.226,0.489c-0.006,0.003-0.009,0.006-0.014,0.01l-0.204,0.727L0,38.09
	l0.019,0.542l0.074,0.332l0.101,0.241l0.116,0.15c0,0.01-0.001,0.015,0.002,0.022l0.162,0.128l0.145,0.05l0.197,0.015l0.16-0.088
	l0.164-0.169l0.039-0.274l0.021-0.515l0.005-0.522l0.148-0.276l0.19-0.121l0.392-0.009l0.322,0.066l0.44,0.173l0.424,0.25
	l0.558,0.442l0.408,0.368l0.618,0.739l0.361,0.551l0.372,0.644l0.305,0.772l-0.04,0.223l-0.287,0.392l-0.69,0.802l-0.521,0.446
	l-0.452,0.291L3.394,43.8l-0.359,0.011l-0.394-0.137l-0.497-0.308l-0.394-0.291l-0.272-0.326l-0.22-0.338l-0.145-0.333l-0.063-0.344
	l-0.024-0.57l-0.052-0.297l-0.151-0.154l-0.168-0.041l-0.214,0.082l-0.139,0.196L0.21,41.158l-0.046,0.219L0.153,41.65l0.011,0.439
	l0.122,0.546l0.168,0.463l0.231,0.427l0.295,0.403l0.324,0.405l0.492,0.475l0.585,0.469l0.607,0.557l0.51,0.528l0.532,0.653
	l0.538,0.854l0.313,0.565l0.353,0.724l0.052,0.243L5.6,49.879l0.371,0.309l0.55,0.279l0.729,0.107l0.342,0.018l0.387,0.03
	l0.157,0.089l0.11,0.119l0.092,0.226l-0.011,0.386l0.017,0.16l0.116,0.184l0.209,0.048l0.358-0.024l0.242-0.149l0.12-0.213
	l0.049-0.201l0.04-0.332l0.028-0.233l0.046-0.115l0.077-0.059l0.368-0.006l0.092,0.1l0.026,0.193l0.045,0.539l0.133,0.271
	l0.169,0.152c0.022,0.014,0.048,0.03,0.069,0.041l0.155,0.005l0.57,0.004l0.354-0.183c0.011-0.005,0.019-0.006,0.026-0.012
	l0.236-0.315l0.139-0.451c0.003-0.01,0.005-0.017,0.008-0.026l0.052-0.534l0.095-0.526l0.079-0.233
	c0.011-0.005,0.019-0.009,0.03-0.014l2.026-1.171l1.783-1.145l0.931-0.755l0.798-0.698l0.59-0.592
	c0.014-0.015,0.034-0.05,0.047-0.069l0.771-1.028l0.475-0.947l0.252-0.534l0.159-0.571l0.083-0.75l-0.009-1.246L19.811,38.591z
	 M9.863,47.283l-0.208,0.176l-0.235,0.05L9.221,47.48l-0.125-0.054l-0.418-0.4l-0.589-0.259L7.62,46.736l-1.064,0.016l-0.282,0.059
	l-0.336,0.115l-0.217-0.005L5.5,46.834l-0.118-0.12l-0.073-0.16l-0.039-0.636l0.103-0.442l0.321-0.944l0.425-0.971l0.263-0.455
	l0.24-0.325l3.274,4.103C9.967,47.025,9.925,47.16,9.863,47.283z M13.921,44.741c-2.099,0.007-3.808-1.693-3.816-3.794
	c-0.008-2.102,1.69-3.813,3.79-3.82c2.1-0.007,3.809,1.693,3.816,3.795C17.719,43.022,16.021,44.734,13.921,44.741z M67.466,41.328
	c0,3-0.943,4.229-3.143,4.229c-1.886,0-2.6-1.2-2.6-3.629v-8.342h-3.256h-0.801h-3.999L48.553,38.9V27.957h-4.057v12.584
	c-0.983-3.124-4.525-3.866-5.799-4.184c-5.114-1.314-6.085-1.514-6.085-3.086c0-1.714,1.657-2.315,3.086-2.315
	c2.143,0,3.886,0.629,4.029,3.086h4.343c0-4.714-3.914-6.571-8.171-6.571c-3.685,0-7.628,2-7.628,6.171c0,3.828,3.057,5,6.086,5.8
	c2.999,0.8,6.057,1.171,6.057,3.372c0,2.086-2.4,2.543-3.971,2.543c-2.4,0-4.514-1.057-4.514-3.771h-4.342
	c-0.058,5.028,4.171,7.257,8.685,7.257c4.595,0,7.402-1.926,8.227-4.717v4.231h4.057v-5.086l1.572-1.514l4.057,6.6h4.914l-6.2-9.342
	l4.771-4.648v8.305c0,3.657,1.086,6.085,5.4,6.085c1.714,0,3.485-0.8,4.514-2.457h0.085v2.057h3.857V33.586h-4.057V41.328z
	 M71.865,48.356h4.057V27.957h-4.057V48.356z M145.8,33.586l-3.229,10.114h-0.057l-3.343-10.114h-2.828v-5.628h-4.057v7.428h-0.057
	c-0.914-1.457-2.629-2.2-4.371-2.2c-3.329,0-5.397,2.166-6.182,4.965c-0.227-3.024-1.503-4.965-5.359-4.965
	c-1.715,0-3.486,0.8-4.514,2.457h-0.086v-2.057h-3.857v14.217c-0.203-0.694-0.285-1.713-0.285-2.732v-7.686
	c0-3.543-3.543-4.2-6.485-4.2c-2.913,0-5.891,0.884-6.725,3.677c-1.031-2.471-3.673-3.677-6.502-3.677
	c-4.234,0-6.865,2.646-7.428,6.427V27.957h-4.057v20.399h4.057v-5.723c0.584,3.649,3.389,6.123,7.342,6.123
	c2.729,0,4.878-1.058,6.095-3.042c0.583,2.071,2.517,3.042,4.847,3.042c1.8,0,3.686-0.486,4.972-1.828
	c0.028,0.486,0.142,0.972,0.285,1.429h3.885h0.229h3.828v-7.742c0-3,0.943-4.229,3.143-4.229c1.885,0,2.6,1.2,2.6,3.628v8.343h4.057
	v-4.583c0.814,2.814,2.873,4.983,6.227,4.983c1.885,0,3.543-0.685,4.485-2.285h0.058v1.886h3.857V37.622l3.685,9.82
	c0.457,1.172,0,2.629-1.401,2.772c-0.799,0.028-1.599-0.086-2.371-0.143v3.343c0.828,0.085,1.657,0.142,2.486,0.142
	c2.8,0,4.2-0.971,5.085-3.342L150,33.586H145.8z M103.519,42.642c0,0.886-0.115,3.4-3.286,3.4c-1.314,0-2.486-0.372-2.486-1.886
	c0-1.486,1.143-1.914,2.4-2.172c1.257-0.228,2.686-0.257,3.371-0.857V42.642z M98.719,39.842c-2.041,0.278-4.083,0.859-4.779,2.858
	h-2.963c-0.257,1.799-1.342,2.999-3.228,2.999c-2.543,0-3.371-2.542-3.371-4.657c0-2.172,0.857-4.8,3.457-4.8
	c1.686,0,2.743,0.886,3,2.543h3.971c-0.015-0.226-0.042-0.445-0.078-0.657h3.477c0.143-1.601,1.143-2.229,2.686-2.229
	c1.428,0,2.629,0.257,2.629,2C103.519,39.557,101.205,39.471,98.719,39.842z M128.944,45.699c-2.514,0-3.571-2.428-3.571-4.743
	c0-2.428,0.915-4.714,3.571-4.714c2.629,0,3.485,2.286,3.485,4.686C132.43,43.356,131.63,45.699,128.944,45.699z M147.977,46.053
	c-0.766,0-1.409,0.602-1.409,1.39c0,0.804,0.643,1.406,1.409,1.406c0.762,0,1.401-0.602,1.401-1.406
	C149.378,46.655,148.74,46.053,147.977,46.053z M147.977,48.644c-0.654,0-1.155-0.516-1.155-1.2c0-0.669,0.501-1.184,1.155-1.184
	c0.647,0,1.147,0.516,1.147,1.184C149.125,48.128,148.624,48.644,147.977,48.644z M148.635,47.1c0-0.314-0.183-0.467-0.572-0.467
	h-0.631v1.634h0.254v-0.703h0.269l0.445,0.703h0.273l-0.468-0.721C148.448,47.518,148.635,47.395,148.635,47.1z M147.951,47.358
	h-0.266v-0.519h0.337c0.172,0,0.359,0.033,0.359,0.25C148.381,47.347,148.176,47.358,147.951,47.358z"/>
</svg>
