<?xml version="1.0" encoding="utf-8"?>
<!-- Generator: Adobe Illustrator 23.0.5, SVG Export Plug-In . SVG Version: 6.00 Build 0)  -->
<svg version="1.1" id="Capa_1" xmlns="http://www.w3.org/2000/svg" xmlns:xlink="http://www.w3.org/1999/xlink" x="0px" y="0px"
	 viewBox="0 0 40 40" style="enable-background:new 0 0 40 40;" xml:space="preserve">
<style type="text/css">
	<!-- .st0{fill:#191919;} -->
</style>
<path class="st0" d="M38.065,7.5H27.742V6.875C27.742,3.083,24.559,0,20.645,0h-1.29c-3.914,0-7.097,3.083-7.097,6.875V7.5H1.935
	C0.867,7.5,0,8.34,0,9.375s0.867,1.875,1.935,1.875h2.742l2.016,22.468C7.014,37.3,10.055,40,13.765,40h12.47
	c3.71,0,6.752-2.7,7.072-6.279l2.016-22.471h2.742c1.069,0,1.935-0.84,1.935-1.875S39.133,7.5,38.065,7.5z M16.129,6.875
	c0-1.724,1.447-3.125,3.226-3.125h1.29c1.779,0,3.226,1.401,3.226,3.125V7.5h-7.742V6.875z M29.451,33.396
	c-0.146,1.626-1.53,2.854-3.216,2.854h-12.47c-1.686,0-3.07-1.228-3.216-2.856L8.562,11.25h22.876L29.451,33.396z"/>
</svg>
