<?xml version="1.0" encoding="utf-8"?>
<!-- Generator: Adobe Illustrator 23.0.5, SVG Export Plug-In . SVG Version: 6.00 Build 0)  -->
<svg version="1.1" id="Capa_1" xmlns="http://www.w3.org/2000/svg" xmlns:xlink="http://www.w3.org/1999/xlink" x="0px" y="0px"
	 viewBox="0 0 16 17">
<style type="text/css">
	.st0{fill:#F0F0F0;}
</style>
<path class="st0" d="M8.001,8.758c2.403,0,4.358-1.965,4.358-4.379S10.404,0,8.001,0S3.643,1.965,3.643,4.379
	S5.597,8.758,8.001,8.758z M8.001,2.061c1.272,0,2.307,1.04,2.307,2.318S9.272,6.697,8.001,6.697s-2.307-1.04-2.307-2.318
	S6.729,2.061,8.001,2.061z M15.716,13.437c-0.937-1.782-3.036-3.906-7.716-3.906s-6.779,2.124-7.718,3.907
	c-0.393,0.747-0.376,1.579,0.045,2.281C0.803,16.509,1.718,17,2.716,17h10.568c0.998,0,1.914-0.491,2.388-1.282
	C16.093,15.016,16.11,14.184,15.716,13.437z M13.916,14.654c-0.083,0.137-0.315,0.286-0.632,0.286H2.716
	c-0.316,0-0.549-0.148-0.632-0.286c-0.033-0.055-0.059-0.119,0.012-0.255c0.966-1.837,3.008-2.808,5.904-2.808
	c2.895,0,4.937,0.971,5.902,2.808C13.975,14.535,13.949,14.599,13.916,14.654z"/>
</svg>
