<?xml version="1.0" encoding="utf-8"?>
<!-- Generator: Adobe Illustrator 23.0.5, SVG Export Plug-In . SVG Version: 6.00 Build 0)  -->
<svg version="1.1" id="Capa_1" xmlns="http://www.w3.org/2000/svg" xmlns:xlink="http://www.w3.org/1999/xlink" x="0px" y="0px"
	 viewBox="0 0 150 80" style="enable-background:new 0 0 150 80;" xml:space="preserve">
<style type="text/css">
	.st0{fill-rule:evenodd;clip-rule:evenodd;fill:#AD2F58;}
</style>
<path class="st0" d="M23.464,28.329h-7.248v0.86c1.966,0.123,2.948,0.246,2.948,1.597c0,0.737-0.369,1.597-0.737,2.334l-4.3,11.302
	L9.582,33.612C9.214,32.752,8.6,31.278,8.6,30.663c0-1.351,0.737-1.351,2.948-1.474v-0.86H0v0.86
	c1.474,0.246,1.966,0.369,2.826,2.457l8.845,20.516h0.983l7.74-20.147c0.737-1.843,1.228-2.58,3.071-2.826V28.329z M26.781,33.12
	c1.474,0,2.58-1.106,2.58-2.58c0-1.474-1.106-2.703-2.58-2.703c-1.597,0-2.703,1.229-2.703,2.703
	C24.079,32.015,25.184,33.12,26.781,33.12z M29.238,48.845V35.7h-6.634v0.86c1.351,0.246,1.843,0.491,1.843,1.966v10.197
	c0,1.597-0.614,1.72-1.843,2.088v0.737h8.231v-0.737C29.484,50.565,29.238,49.828,29.238,48.845z M40.541,49.582
	c-3.194,0-3.931-3.563-4.054-6.511h8.6c-0.123-1.72-0.491-7.74-6.511-7.74c-3.931,0-7.002,3.194-7.002,8.231
	c0,5.897,3.44,8.477,6.88,8.477c2.826,0,4.791-1.106,6.88-4.3l-0.86-0.491C43.857,48.108,42.629,49.582,40.541,49.582z
	 M38.698,36.314c1.228,0,1.72,0.86,1.843,1.72c0.369,0.983,0.369,2.826,0.369,3.808h-4.668
	C36.241,37.174,37.469,36.314,38.698,36.314z M64.619,36.56c0.983,0.123,1.72,0.123,1.72,1.228c0,0.737-1.843,4.914-2.703,7.494
	h-0.123c-0.614-2.703-2.088-7.125-2.088-7.862c0-0.737,0.86-0.86,1.72-0.86V35.7h-8.108v0.86c0.86,0.123,1.229,0.123,1.597,0.737
	c0.123,0.491,0.369,1.106,0.737,2.334l-2.334,5.897c-1.72-4.668-2.948-7.248-2.948-7.985c0-0.86,0.86-0.983,1.351-0.983V35.7h-7.617
	v0.86c0.86,0.123,0.983,0.369,1.966,2.58l5.037,12.899h0.86l4.177-10.442h0.123l3.44,10.442h0.86l5.283-13.759
	c0.614-1.597,1.106-1.597,1.72-1.72V35.7h-4.668V36.56z M82.678,38.772l-5.037-2.58c-2.826-1.351-3.563-2.088-3.563-3.931
	c0-2.334,1.966-3.317,3.686-3.317c4.054,0,6.143,3.931,6.757,6.388h0.983v-7.494h-1.106c-0.123,0.614-0.246,1.229-1.106,1.229
	c-0.983,0-2.58-1.229-5.405-1.229c-6.511,0-7.494,4.668-7.494,6.757c0,1.597,0,4.545,5.897,7.371l2.211,1.106
	c2.211,1.106,3.931,1.843,3.931,4.177c0,0.491-0.246,3.808-4.3,3.808c-4.423,0-6.388-3.808-7.125-7.371h-0.983v8.477h0.983
	c0.123-0.491,0.369-1.106,1.106-1.106c0.983,0,2.58,1.106,5.774,1.106c6.388,0,8.6-4.054,8.6-7.125
	C86.486,41.351,83.907,39.386,82.678,38.772z M95.7,35.332c-4.791,0-7.862,3.931-7.862,8.354c0,4.423,3.071,8.354,7.862,8.354
	c4.668,0,7.617-3.808,7.617-8.354C103.317,38.894,100.123,35.332,95.7,35.332z M95.7,50.934c-2.826,0-2.826-3.563-2.826-7.248
	c0-3.931,0.246-7.371,2.826-7.371c2.088,0,2.58,2.088,2.58,7.371C98.28,48.108,98.034,50.934,95.7,50.934z M120.147,48.845v-8.722
	c0-3.808-2.703-4.791-4.668-4.791c-2.948,0-4.423,2.088-4.914,2.826V35.7h-6.634v0.86c1.474,0.123,1.843,0.491,1.843,1.966v10.197
	c0,1.597-0.491,1.843-1.843,2.088v0.737h8.354v-0.737c-1.597-0.246-1.72-1.228-1.72-1.966v-9.214c0-0.369,1.474-2.088,2.826-2.088
	c1.966,0,1.966,1.966,1.966,2.948v8.354c0,1.228-0.491,1.843-1.597,1.966v0.737h7.985v-0.737
	C120.147,50.688,120.147,49.582,120.147,48.845z M129.238,48.845V35.7h-6.511v0.86c1.228,0.246,1.72,0.491,1.72,1.966v10.197
	c0,1.597-0.491,1.72-1.72,2.088v0.737h8.108v-0.737C129.484,50.565,129.238,49.828,129.238,48.845z M126.904,33.12
	c1.351,0,2.58-1.106,2.58-2.58c0-1.474-1.229-2.703-2.58-2.703c-1.597,0-2.703,1.229-2.703,2.703
	C124.201,32.015,125.307,33.12,126.904,33.12z M141.155,49.705c-2.58,0-4.668-2.703-4.668-7.617c0-1.474,0.246-5.774,2.826-5.774
	c0.614,0,1.474,0.369,1.474,1.351c0,1.843,0,3.563,1.843,3.563c0.369,0,2.334,0,2.334-2.211c0-2.457-2.826-3.686-5.283-3.686
	c-3.194,0-8.108,2.088-8.108,8.845c0,4.177,2.948,7.862,7.371,7.862c2.703,0,4.914-1.351,6.511-3.563l-0.614-0.614
	C144.103,48.722,143.12,49.705,141.155,49.705z M148.649,34.103c0-0.491-0.369-0.737-0.983-0.737h-1.106v2.826h0.369v-1.229h0.614
	l0.737,1.229h0.491l-0.86-1.229C148.403,34.84,148.649,34.717,148.649,34.103z M146.929,34.595v-0.86h0.614
	c0.369,0,0.614,0,0.614,0.369c0,0.491-0.246,0.491-0.614,0.491H146.929z M147.543,32.26c-1.351,0-2.58,1.106-2.58,2.457
	c0,1.474,1.229,2.58,2.58,2.58c1.351,0,2.457-1.106,2.457-2.58C150,33.366,148.894,32.26,147.543,32.26z M147.543,36.806
	c-1.229,0-2.088-0.86-2.088-2.088c0-1.106,0.86-2.088,2.088-2.088c1.106,0,1.966,0.983,1.966,2.088
	C149.509,35.946,148.649,36.806,147.543,36.806z"/>
</svg>
