<?xml version="1.0" encoding="utf-8"?>
<!-- Generator: Adobe Illustrator 23.0.5, SVG Export Plug-In . SVG Version: 6.00 Build 0)  -->
<svg version="1.1" id="Capa_1" xmlns="http://www.w3.org/2000/svg" xmlns:xlink="http://www.w3.org/1999/xlink" x="0px" y="0px"
	 viewBox="0 0 125 40" style="enable-background:new 0 0 125 40;" xml:space="preserve">
<style type="text/css">
	.st0{fill:url(#SVGID_1_);}
</style>
<linearGradient id="SVGID_1_" gradientUnits="userSpaceOnUse" x1="0.7148" y1="20" x2="124.2852" y2="20">
	<stop  offset="0" style="stop-color:#2547A0"/>
	<stop  offset="1" style="stop-color:#232E6E"/>
</linearGradient>
<path class="st0" d="M35.825,0.714L35.825,0.714l-9.795,26.41l-1.044-5.366c-0.001-0.003-0.003-0.007-0.004-0.01l-3.503-17.79
	c-0.603-2.449-2.359-3.178-4.532-3.264v0H0.809L0.715,1.36c3.896,0.997,7.38,2.444,10.437,4.245l8.926,33.785l10.592-0.005
	L46.419,0.714H35.825z M80.657,16.236c-3.488-1.796-5.645-2.987-5.613-4.807c0.003-1.608,1.81-3.332,5.733-3.332
	c3.277-0.055,5.633,0.697,7.488,1.489l0.892,0.445l1.361-8.401C88.542,0.85,85.422,0,81.552,0l0,0
	C71.654,0,64.701,5.262,64.64,12.787c-0.063,5.574,4.972,8.682,8.759,10.535c3.907,1.894,5.212,3.111,5.199,4.805
	c-0.039,2.597-3.126,3.78-5.995,3.78c-4,0-6.132-0.584-9.41-2.026l-1.3-0.618l-1.4,8.672c2.34,1.079,6.662,2.014,11.154,2.063
	c10.504,0,17.338-5.202,17.419-13.234C89.108,22.345,86.436,18.999,80.657,16.236z M50.479,0.676l-6.261,38.751h10.002l6.264-38.752
	H50.48L50.479,0.676z M116.183,0.716h-7.73l0,0c-2.397,0-4.193,0.683-5.25,3.216L88.349,39.44h10.509c0,0,1.718-4.779,2.107-5.826
	c1.147,0,11.354,0.022,12.81,0.022c0.31,1.351,1.218,5.803,1.218,5.803h9.292L116.183,0.716z M103.844,25.687
	c0.831-2.224,3.986-10.832,3.986-10.832c-0.061,0.105,0.821-2.241,1.33-3.692l0,0l0.667,3.341c0,0,1.923,9.246,2.324,11.183H103.844
	z"/>
</svg>
