<?xml version="1.0" encoding="utf-8"?>
<!-- Generator: Adobe Illustrator 23.0.5, SVG Export Plug-In . SVG Version: 6.00 Build 0)  -->
<svg version="1.1" id="Capa_1" xmlns="http://www.w3.org/2000/svg" xmlns:xlink="http://www.w3.org/1999/xlink" x="0px" y="0px"
	 viewBox="0 0 150 80" style="enable-background:new 0 0 150 80;" xml:space="preserve">
<style type="text/css">
	.st0{fill-rule:evenodd;clip-rule:evenodd;fill:#026BAC;}
	.st1{fill-rule:evenodd;clip-rule:evenodd;fill:#FFFFFF;}
</style>
<g>
	<path class="st0" d="M64.276,19.419H4.266C1.91,19.419,0,21.329,0,23.686v31.565c0,2.355,1.91,4.267,4.266,4.267h60.01
		c2.356,0,4.266-1.911,4.266-4.267V23.686C68.542,21.329,66.631,19.419,64.276,19.419z M33.311,28.705h6.156l-1.566,4.549
		l-6.038-0.002L33.311,28.705z M22.821,28.705h4.708l0.479,4.545l-7.591-0.002L22.821,28.705z M11.655,28.629h6.157l-0.685,4.618
		l-5.984-0.002L11.655,28.629z M24.895,49.822l-1.265-12.555l-6.205,12.555H9.304l1.717-15.471l5.911,0.208l-1.087,7.329
		l3.827-7.233l8.516,0.299l0.779,7.389l2.32-7.28l5.92,0.208l-5.011,14.55H24.895z M59.896,39.264
		C57.918,45.2,51.503,49.822,45.65,49.822H34.007l4.831-14.492l7.837,0.276l-2.865,8.455c1.208,0.097,1.503,0.003,2.352-0.037
		c3.309-0.157,6.217-2.413,7.212-5.389c0.981-2.93-0.444-5.3-3.34-5.376L39.53,33.255l1.516-4.55h11.642
		C58.57,28.705,61.873,33.325,59.896,39.264z"/>
	<path class="st1" d="M80.692,38.04l2.964-11.645h0.042L86.45,38.04h3.642l3.895-15.287h-3.132L88.398,34.25h-0.042l-2.667-11.497
		h-3.706L79.018,34.25h-0.042l-2.35-11.497h-3.388l3.726,15.287H80.692z M98.19,38.358c2.477,0,4.531-0.869,4.806-3.494h-2.858
		c-0.297,0.974-0.847,1.376-1.949,1.376c-1.63,0-1.82-1.291-1.82-2.668h6.964c0-0.7,0-1.376-0.084-2.032
		c-0.085-0.679-0.233-1.313-0.529-1.906c-0.889-1.863-2.541-2.54-4.531-2.54c-3.239,0-5.102,2.456-5.102,5.653
		C93.088,36.303,94.548,38.358,98.19,38.358z M98.19,29.211c1.546,0,1.863,1.08,1.863,2.245H96.37
		C96.412,30.291,96.73,29.211,98.19,29.211z M113.604,34.864c0-3.98-6.077-3.027-6.077-4.701c0-0.698,0.403-0.952,1.271-0.952
		c0.72,0,1.397,0.318,1.44,1.038h2.858c-0.148-2.35-2.053-3.154-4.298-3.154c-1.863,0-4.552,0.973-4.552,3.197
		c0,2.477,1.884,2.921,3.917,3.408c0.635,0.149,2.16,0.509,2.16,1.356c0,0.825-0.656,1.185-1.525,1.185
		c-0.932,0-1.672-0.466-1.736-1.291h-2.942c0.042,2.434,2.202,3.409,4.678,3.409C110.767,38.358,113.604,37.192,113.604,34.864z
		 M114.981,34.759c0,2.308,0.529,3.599,3.006,3.599c0.444,0,2.138-0.149,2.499-0.318v-1.864c-0.339,0.021-0.677,0.064-1.017,0.064
		c-1.101,0-1.313-0.381-1.313-1.779v-4.933h2.393v-2.117h-2.393v-3.239l-3.175,1.142v2.097h-1.169v2.117h1.169V34.759z
		 M125.99,38.358c2.476,0,4.53-0.869,4.806-3.494h-2.859c-0.296,0.974-0.847,1.376-1.947,1.376c-1.631,0-1.821-1.291-1.821-2.668
		h6.966c0-0.7,0-1.376-0.085-2.032c-0.085-0.679-0.232-1.313-0.529-1.906c-0.89-1.863-2.541-2.54-4.53-2.54
		c-3.24,0-5.102,2.456-5.102,5.653C120.888,36.303,122.348,38.358,125.99,38.358z M125.99,29.211c1.545,0,1.863,1.08,1.863,2.245
		h-3.684C124.211,30.291,124.528,29.211,125.99,29.211z M135.38,29.339h-0.043l-0.063-1.927h-2.9
		c0.042,0.782,0.105,1.673,0.105,2.117l0.022,8.511h3.154v-5.271c0.022-0.7,0.085-1.292,0.424-1.885
		c0.318-0.445,1.016-0.741,1.545-0.784L139,27.285C137.413,27.242,136.057,27.666,135.38,29.339z M149.788,29.423
		c-0.381-1.545-2.434-2.328-3.494-2.328c-1.609,0-2.604,0.635-3.259,1.608l-0.044-0.063v-1.228h-3.154V38.04h3.176v-6.394
		c0.042-1.546,0.91-2.436,1.905-2.436c1.567,0,1.884,1.291,1.905,2.436v6.394H150v-6.923C150,30.757,149.958,30.079,149.788,29.423z
		 M79.612,41.103h-5.208v15.285h5.208c4.763,0.042,7.728-2.329,7.728-7.643C87.34,43.431,84.375,41.061,79.612,41.103z
		 M79.378,53.848h-1.694V43.643h1.694c3.895-0.042,4.467,2.668,4.467,5.103C83.845,51.18,83.273,53.891,79.378,53.848z
		 M88.673,43.834h3.388v-2.73h-3.388V43.834z M88.78,56.389h3.175V45.76H88.78V56.389z M100.679,46.988h-0.042
		c-0.508-1.08-1.418-1.546-2.838-1.546c-2.964,0-4.509,2.731-4.509,5.441c0,2.583,1.482,5.293,4.362,5.293
		c1.207,0,2.329-0.423,2.985-1.461h0.042c0.127,1.546,0.211,3.748-2.202,3.748c-0.869,0-1.715-0.361-1.758-1.314h-3.005
		c0.063,2.858,2.582,3.43,4.932,3.43c4.658,0.042,5.207-2.668,5.207-5.145V45.76h-3.175V46.988z M98.624,54.06
		c-1.736,0-2.053-1.778-2.053-3.154c0-1.568,0.317-3.346,2.053-3.346c1.736,0,2.054,1.778,2.054,3.346
		C100.679,52.282,100.361,54.06,98.624,54.06z M105.641,43.834h3.388v-2.73h-3.388V43.834z M105.747,56.389h3.176V45.76h-3.176
		V56.389z M114.406,42.52l-3.176,1.144v2.096h-1.256v2.118h1.256v5.229c0,2.308,0.53,3.6,3.007,3.6c0.445,0,2.138-0.149,2.497-0.318
		v-1.863c-0.338,0.021-0.677,0.063-1.015,0.063c-1.101,0-1.312-0.381-1.312-1.778v-4.933h2.393V45.76h-2.393V42.52z M127.129,49.423
		c0-3.196-2.392-3.981-4.53-3.981c-1.143,0-2.265,0.17-3.134,0.677c-0.846,0.488-1.419,1.313-1.439,2.647h3.049
		c-0.043-0.486,0.317-1.524,1.417-1.524c1.123,0,1.461,0.869,1.461,1.313v0.996c-1.27-0.042-2.879,0.021-4.15,0.571
		c-1.927,0.826-2.266,2.625-2.266,3.366c0,2.075,1.482,3.218,3.472,3.218c1.441,0,2.541-0.509,3.261-1.737h0.042
		c0,0.445,0.042,0.932,0.106,1.419h2.858c-0.042-0.318-0.127-0.635-0.148-1.164V49.423z M122.133,54.589
		c-0.888,0-1.546-0.636-1.546-1.524c0-1.716,2.266-1.695,3.367-1.673C123.954,52.641,123.89,54.589,122.133,54.589z M129.104,56.389
		h3.176V41.103h-3.176V56.389z M136.206,40.59c-1.281,0-2.311,1.028-2.311,2.298c0,1.28,1.03,2.31,2.311,2.31
		c1.275,0,2.299-1.03,2.299-2.31C138.505,41.618,137.481,40.59,136.206,40.59z M136.206,44.794c-1.054,0-1.906-0.852-1.906-1.906
		c0-1.042,0.851-1.894,1.906-1.894c1.047,0,1.893,0.852,1.893,1.894C138.099,43.942,137.253,44.794,136.206,44.794z M136.629,42.894
		v-0.013c0.362-0.074,0.552-0.318,0.552-0.631c0-0.614-0.516-0.748-1.012-0.748h-0.877v2.709h0.423v-1.17h0.354
		c0.148,0.011,0.288,0,0.392,0.11c0.123,0.129,0.123,0.343,0.153,0.576c0.02,0.159,0.062,0.332,0.092,0.484h0.54
		c-0.093-0.245-0.123-0.527-0.159-0.785C137.046,43.132,137.003,42.966,136.629,42.894z M136.163,42.618h-0.447v-0.692h0.508
		c0.337,0,0.429,0.104,0.429,0.306C136.653,42.44,136.561,42.606,136.163,42.618z"/>
</g>
</svg>
